G75*
%MOIN*%
%OFA0B0*%
%FSLAX25Y25*%
%IPPOS*%
%LPD*%
%AMOC8*
5,1,8,0,0,1.08239X$1,22.5*
%
%ADD10C,0.15800*%
%ADD11OC8,0.06800*%
%ADD12R,0.17600X0.18400*%
%ADD13C,0.04300*%
%ADD14C,0.04343*%
%ADD15C,0.03769*%
%ADD16C,0.04934*%
D10*
X0022800Y0108300D03*
X0364300Y0111800D03*
X0359300Y0359300D03*
X0074300Y0409300D03*
D11*
X0181800Y0401800D03*
X0181800Y0391800D03*
X0191800Y0391800D03*
X0191800Y0401800D03*
X0201800Y0401800D03*
X0211800Y0401800D03*
X0211800Y0391800D03*
X0201800Y0391800D03*
X0221800Y0391800D03*
X0231800Y0391800D03*
X0231800Y0401800D03*
X0221800Y0401800D03*
X0241800Y0401800D03*
X0241800Y0391800D03*
X0251800Y0391800D03*
X0261800Y0391800D03*
X0261800Y0401800D03*
X0251800Y0401800D03*
X0271800Y0401800D03*
X0271800Y0391800D03*
X0281800Y0391800D03*
X0291800Y0391800D03*
X0291800Y0401800D03*
X0281800Y0401800D03*
X0301800Y0401800D03*
X0301800Y0391800D03*
X0311800Y0391800D03*
X0321800Y0391800D03*
X0321800Y0401800D03*
X0311800Y0401800D03*
X0331800Y0401800D03*
X0341800Y0401800D03*
X0341800Y0391800D03*
X0331800Y0391800D03*
X0351800Y0391800D03*
X0351800Y0401800D03*
X0361800Y0401800D03*
X0371800Y0401800D03*
X0371800Y0391800D03*
X0361800Y0391800D03*
D12*
X0270600Y0186800D03*
X0270500Y0161800D03*
X0270500Y0136800D03*
X0270500Y0111800D03*
X0353100Y0164300D03*
X0318100Y0174300D03*
D13*
X0316800Y0174300D03*
X0311800Y0174300D03*
X0311800Y0169300D03*
X0316800Y0169300D03*
X0321800Y0169300D03*
X0321800Y0174300D03*
X0321800Y0179300D03*
X0316800Y0179300D03*
X0311800Y0179300D03*
X0346800Y0169300D03*
X0346800Y0164300D03*
X0346800Y0159300D03*
X0351800Y0159300D03*
X0351800Y0164300D03*
X0351800Y0169300D03*
X0356800Y0169300D03*
X0356800Y0164300D03*
X0356800Y0159300D03*
X0276800Y0156800D03*
X0276800Y0161800D03*
X0271800Y0161800D03*
X0271800Y0156800D03*
X0266800Y0156800D03*
X0266800Y0161800D03*
X0266800Y0166800D03*
X0271800Y0166800D03*
X0276800Y0166800D03*
X0274300Y0181800D03*
X0269300Y0181800D03*
X0269300Y0186800D03*
X0274300Y0186800D03*
X0274300Y0191800D03*
X0269300Y0191800D03*
X0264300Y0191800D03*
X0264300Y0186800D03*
X0264300Y0181800D03*
X0266800Y0141800D03*
X0266800Y0136800D03*
X0266800Y0131800D03*
X0271800Y0131800D03*
X0271800Y0136800D03*
X0271800Y0141800D03*
X0276800Y0141800D03*
X0276800Y0136800D03*
X0276800Y0131800D03*
X0276800Y0116800D03*
X0276800Y0111800D03*
X0276800Y0106800D03*
X0271800Y0106800D03*
X0271800Y0111800D03*
X0271800Y0116800D03*
X0266800Y0116800D03*
X0266800Y0111800D03*
X0266800Y0106800D03*
D14*
X0115300Y0075800D03*
X0115300Y0080800D03*
X0120300Y0080800D03*
X0120300Y0075800D03*
X0130300Y0085800D03*
X0130300Y0090800D03*
X0130300Y0095800D03*
X0156800Y0099300D03*
X0161800Y0096800D03*
X0164300Y0089300D03*
X0164300Y0084300D03*
X0159300Y0084300D03*
X0179300Y0084300D03*
X0179300Y0089300D03*
X0184300Y0084300D03*
X0212800Y0073300D03*
X0217800Y0073300D03*
X0217800Y0078300D03*
X0224300Y0094300D03*
X0221800Y0116800D03*
X0216800Y0121800D03*
X0229300Y0126800D03*
X0225800Y0131800D03*
X0211800Y0139300D03*
X0211800Y0144300D03*
X0206800Y0144300D03*
X0201800Y0144300D03*
X0201800Y0139300D03*
X0206800Y0139300D03*
X0231800Y0154300D03*
X0234300Y0174300D03*
X0254300Y0174300D03*
X0236800Y0194300D03*
X0236800Y0199300D03*
X0236800Y0206800D03*
X0251800Y0216800D03*
X0254300Y0221800D03*
X0266800Y0216800D03*
X0269300Y0221800D03*
X0284300Y0221800D03*
X0294300Y0224300D03*
X0294300Y0231800D03*
X0291800Y0236800D03*
X0299300Y0244300D03*
X0296800Y0251800D03*
X0291800Y0251800D03*
X0286800Y0246800D03*
X0281800Y0246800D03*
X0271800Y0246800D03*
X0261800Y0246800D03*
X0246800Y0254300D03*
X0241800Y0259300D03*
X0234300Y0259300D03*
X0246800Y0279300D03*
X0246800Y0289300D03*
X0229300Y0286800D03*
X0234300Y0306800D03*
X0209300Y0311800D03*
X0209300Y0324300D03*
X0204300Y0339300D03*
X0209300Y0341800D03*
X0199300Y0351800D03*
X0194300Y0344300D03*
X0189300Y0336800D03*
X0181800Y0326800D03*
X0164300Y0326800D03*
X0164300Y0331800D03*
X0161800Y0339300D03*
X0156800Y0339300D03*
X0146800Y0339300D03*
X0151800Y0351800D03*
X0151800Y0356800D03*
X0151800Y0361800D03*
X0146800Y0364300D03*
X0144300Y0371800D03*
X0144300Y0379300D03*
X0146800Y0384300D03*
X0151800Y0396800D03*
X0151800Y0401800D03*
X0151800Y0406800D03*
X0151800Y0411800D03*
X0146800Y0414300D03*
X0154300Y0419300D03*
X0098050Y0416800D03*
X0098050Y0386800D03*
X0098050Y0381800D03*
X0098050Y0371800D03*
X0096800Y0366800D03*
X0079300Y0354300D03*
X0075550Y0358050D03*
X0069300Y0349300D03*
X0064300Y0346800D03*
X0051800Y0354300D03*
X0044300Y0351800D03*
X0021800Y0336800D03*
X0049300Y0321800D03*
X0054300Y0326800D03*
X0064300Y0326800D03*
X0069300Y0324300D03*
X0074300Y0324300D03*
X0084300Y0324300D03*
X0089300Y0329300D03*
X0098050Y0334300D03*
X0099300Y0324300D03*
X0104300Y0319300D03*
X0104300Y0314300D03*
X0104300Y0309300D03*
X0144300Y0324300D03*
X0151800Y0319300D03*
X0146800Y0314300D03*
X0161800Y0316800D03*
X0159300Y0296800D03*
X0154300Y0296800D03*
X0166800Y0291800D03*
X0171800Y0289300D03*
X0164300Y0281800D03*
X0164300Y0274300D03*
X0159300Y0274300D03*
X0154300Y0274300D03*
X0149300Y0266800D03*
X0151800Y0259300D03*
X0149300Y0251800D03*
X0151800Y0246800D03*
X0149300Y0239300D03*
X0144300Y0239300D03*
X0151800Y0234300D03*
X0151800Y0229300D03*
X0164300Y0214300D03*
X0171800Y0214300D03*
X0181800Y0209300D03*
X0181800Y0199300D03*
X0181800Y0194300D03*
X0181800Y0189300D03*
X0181800Y0184300D03*
X0174300Y0189300D03*
X0174300Y0194300D03*
X0169300Y0194300D03*
X0169300Y0189300D03*
X0156800Y0191800D03*
X0156800Y0199300D03*
X0134300Y0184300D03*
X0124300Y0174300D03*
X0111800Y0166800D03*
X0111800Y0159300D03*
X0111800Y0154300D03*
X0106800Y0149300D03*
X0099300Y0145550D03*
X0096800Y0149300D03*
X0094300Y0145550D03*
X0091800Y0149300D03*
X0091800Y0156800D03*
X0091800Y0161800D03*
X0086800Y0161800D03*
X0086800Y0156800D03*
X0081800Y0156800D03*
X0081800Y0161800D03*
X0069300Y0169300D03*
X0064300Y0169300D03*
X0059300Y0169300D03*
X0049300Y0159300D03*
X0044300Y0159300D03*
X0039300Y0159300D03*
X0034300Y0159300D03*
X0029300Y0159300D03*
X0014300Y0164300D03*
X0026800Y0136800D03*
X0031800Y0136800D03*
X0036800Y0136800D03*
X0041800Y0136800D03*
X0046800Y0136800D03*
X0051800Y0136800D03*
X0061800Y0116800D03*
X0055800Y0102800D03*
X0055800Y0097800D03*
X0055800Y0092800D03*
X0050800Y0092800D03*
X0050800Y0097800D03*
X0050800Y0102800D03*
X0045800Y0102800D03*
X0045800Y0097800D03*
X0045800Y0092800D03*
X0040800Y0097300D03*
X0034800Y0097300D03*
X0034800Y0091300D03*
X0034800Y0085300D03*
X0028800Y0085300D03*
X0028800Y0091300D03*
X0089300Y0111800D03*
X0094300Y0111800D03*
X0096800Y0121800D03*
X0101800Y0121800D03*
X0106800Y0129300D03*
X0106800Y0134300D03*
X0106800Y0139300D03*
X0111800Y0139300D03*
X0111800Y0134300D03*
X0111800Y0129300D03*
X0134300Y0126800D03*
X0134300Y0131800D03*
X0134300Y0136800D03*
X0134300Y0141800D03*
X0134300Y0146800D03*
X0134300Y0151800D03*
X0151800Y0161800D03*
X0151800Y0166800D03*
X0151800Y0171800D03*
X0166800Y0171800D03*
X0166800Y0166800D03*
X0166800Y0161800D03*
X0176800Y0151800D03*
X0176800Y0146800D03*
X0176800Y0141800D03*
X0176800Y0136800D03*
X0176800Y0131800D03*
X0181800Y0179300D03*
X0191800Y0194300D03*
X0196800Y0194300D03*
X0201800Y0194300D03*
X0206800Y0194300D03*
X0211800Y0194300D03*
X0211800Y0216800D03*
X0206800Y0216800D03*
X0201800Y0216800D03*
X0196800Y0216800D03*
X0196800Y0234300D03*
X0181800Y0244300D03*
X0211800Y0246800D03*
X0226800Y0239300D03*
X0274300Y0201800D03*
X0289300Y0199300D03*
X0289300Y0204300D03*
X0289300Y0209300D03*
X0301800Y0194300D03*
X0301800Y0189300D03*
X0299300Y0184300D03*
X0299300Y0179300D03*
X0286800Y0179300D03*
X0286800Y0184300D03*
X0286800Y0189300D03*
X0306800Y0196800D03*
X0324300Y0199300D03*
X0324300Y0189300D03*
X0336800Y0184300D03*
X0349300Y0184300D03*
X0349300Y0179300D03*
X0354300Y0179300D03*
X0374300Y0159300D03*
X0361800Y0151800D03*
X0356800Y0146800D03*
X0344300Y0144300D03*
X0339300Y0144300D03*
X0336800Y0139300D03*
X0349300Y0134300D03*
X0339300Y0126800D03*
X0341800Y0121800D03*
X0341800Y0116800D03*
X0336800Y0114300D03*
X0349300Y0099300D03*
X0342800Y0080800D03*
X0342800Y0075800D03*
X0342800Y0070800D03*
X0337800Y0075800D03*
X0300300Y0075800D03*
X0300300Y0070800D03*
X0295300Y0075800D03*
X0300300Y0080800D03*
X0289300Y0099300D03*
X0304300Y0109300D03*
X0299300Y0111800D03*
X0304300Y0114300D03*
X0301800Y0124300D03*
X0306800Y0124300D03*
X0301800Y0134300D03*
X0299300Y0139300D03*
X0304300Y0139300D03*
X0296800Y0156800D03*
X0291800Y0156800D03*
X0316800Y0159300D03*
X0324300Y0149300D03*
X0334300Y0154300D03*
X0366800Y0131800D03*
X0366800Y0201800D03*
X0361800Y0209300D03*
X0349300Y0209300D03*
X0346800Y0219300D03*
X0346800Y0224300D03*
X0339300Y0231800D03*
X0341800Y0236800D03*
X0331800Y0224300D03*
X0336800Y0219300D03*
X0331800Y0211800D03*
X0331800Y0206800D03*
X0319300Y0241800D03*
X0309300Y0241800D03*
X0331800Y0249300D03*
X0331800Y0259300D03*
X0331800Y0269300D03*
X0339300Y0279300D03*
X0331800Y0286800D03*
X0339300Y0296800D03*
X0334300Y0299300D03*
X0334300Y0311800D03*
X0331800Y0324300D03*
X0351800Y0309300D03*
X0356800Y0311800D03*
X0361800Y0306800D03*
X0361800Y0296800D03*
X0356800Y0296800D03*
X0356800Y0289300D03*
X0344300Y0269300D03*
X0344300Y0264300D03*
X0344300Y0259300D03*
X0351800Y0266800D03*
X0296800Y0269300D03*
X0296800Y0274300D03*
X0291800Y0289300D03*
X0286800Y0294300D03*
X0291800Y0301800D03*
X0284300Y0304300D03*
X0286800Y0309300D03*
X0289300Y0314300D03*
X0294300Y0324300D03*
X0294300Y0329300D03*
X0289300Y0329300D03*
X0296800Y0339300D03*
X0296800Y0344300D03*
X0284300Y0351800D03*
X0276800Y0349300D03*
X0276800Y0356800D03*
X0269300Y0359300D03*
X0264300Y0359300D03*
X0269300Y0364300D03*
X0259300Y0369300D03*
X0256800Y0364300D03*
X0239300Y0366800D03*
X0229300Y0354300D03*
X0234300Y0334300D03*
X0271800Y0314300D03*
X0276800Y0324300D03*
X0266800Y0296800D03*
X0274300Y0286800D03*
X0269300Y0281800D03*
X0199300Y0299300D03*
X0196800Y0294300D03*
X0196800Y0304300D03*
X0191800Y0284300D03*
X0109300Y0246800D03*
X0104300Y0246800D03*
X0104300Y0239300D03*
X0109300Y0239300D03*
X0106800Y0231800D03*
X0099300Y0219300D03*
X0086800Y0226800D03*
X0086800Y0231800D03*
X0081800Y0226800D03*
X0074300Y0226800D03*
X0070550Y0224300D03*
X0074300Y0221800D03*
X0070550Y0219300D03*
X0064300Y0231800D03*
X0059300Y0231800D03*
X0054300Y0231800D03*
X0049300Y0231800D03*
X0044300Y0231800D03*
X0039300Y0231800D03*
X0066800Y0254300D03*
X0066800Y0259300D03*
X0066800Y0264300D03*
X0066800Y0269300D03*
X0066800Y0274300D03*
X0066800Y0279300D03*
X0089300Y0279300D03*
X0089300Y0274300D03*
X0089300Y0269300D03*
X0089300Y0264300D03*
X0089300Y0259300D03*
X0089300Y0254300D03*
X0096800Y0249300D03*
X0096800Y0244300D03*
X0114300Y0219300D03*
X0116800Y0201800D03*
X0099300Y0201800D03*
X0069300Y0184300D03*
X0064300Y0184300D03*
X0059300Y0184300D03*
X0084300Y0179300D03*
X0094300Y0171800D03*
X0252800Y0075800D03*
X0257800Y0075800D03*
X0257800Y0070800D03*
X0257800Y0080800D03*
X0261800Y0096800D03*
X0346800Y0344300D03*
X0334300Y0364300D03*
X0329300Y0364300D03*
X0311800Y0366800D03*
X0309300Y0359300D03*
X0304300Y0361800D03*
X0299300Y0364300D03*
X0289300Y0371800D03*
X0296800Y0384300D03*
X0296800Y0356800D03*
X0344300Y0376800D03*
X0211800Y0371800D03*
X0199300Y0366800D03*
X0191800Y0366800D03*
X0186800Y0369300D03*
X0179300Y0371800D03*
X0174300Y0374300D03*
X0169300Y0371800D03*
D15*
X0226800Y0366800D03*
D16*
X0331800Y0351800D03*
X0284300Y0124300D03*
X0279300Y0096800D03*
M02*
