G75*
%MOIN*%
%OFA0B0*%
%FSLAX25Y25*%
%IPPOS*%
%LPD*%
%AMOC8*
5,1,8,0,0,1.08239X$1,22.5*
%
%ADD10R,0.05118X0.05906*%
%ADD11R,0.05906X0.05118*%
%ADD12R,0.09449X0.03150*%
%ADD13R,0.12992X0.07087*%
%ADD14OC8,0.06000*%
%ADD15R,0.11220X0.13386*%
%ADD16R,0.13386X0.11220*%
%ADD17R,0.04724X0.04724*%
%ADD18R,0.07480X0.02362*%
%ADD19R,0.07795X0.02362*%
%ADD20R,0.04331X0.05512*%
%ADD21R,0.05512X0.04331*%
%ADD22R,0.06102X0.01772*%
%ADD23R,0.02205X0.07205*%
%ADD24R,0.01772X0.06102*%
%ADD25R,0.03150X0.09449*%
%ADD26R,0.07087X0.12992*%
%ADD27R,0.07874X0.02362*%
%ADD28R,0.05800X0.01400*%
%ADD29R,0.07800X0.02200*%
%ADD30R,0.02362X0.06102*%
%ADD31R,0.03150X0.05118*%
%ADD32R,0.07800X0.01600*%
%ADD33R,0.05906X0.02165*%
%ADD34R,0.05000X0.02500*%
%ADD35R,0.05000X0.02600*%
%ADD36C,0.03500*%
%ADD37R,0.16800X0.17600*%
%ADD38C,0.07874*%
%ADD39R,0.02200X0.07800*%
%ADD40R,0.05118X0.03150*%
%ADD41R,0.13780X0.04724*%
%ADD42R,0.08268X0.05512*%
%ADD43C,0.01600*%
%ADD44C,0.03543*%
%ADD45C,0.02969*%
%ADD46C,0.01000*%
%ADD47C,0.02400*%
%ADD48C,0.04134*%
D10*
X0120954Y0126800D03*
X0127646Y0126800D03*
X0127646Y0136800D03*
X0120954Y0136800D03*
X0120954Y0146800D03*
X0127646Y0146800D03*
X0120146Y0174300D03*
X0113454Y0174300D03*
X0077646Y0176800D03*
X0070954Y0176800D03*
X0105954Y0201800D03*
X0112646Y0201800D03*
X0080146Y0256800D03*
X0073454Y0256800D03*
X0073454Y0266800D03*
X0080146Y0266800D03*
X0080146Y0276800D03*
X0073454Y0276800D03*
X0065540Y0354300D03*
X0058060Y0354300D03*
X0180560Y0344300D03*
X0188040Y0344300D03*
X0215560Y0344300D03*
X0223040Y0344300D03*
X0225540Y0334300D03*
X0218060Y0334300D03*
X0243060Y0366800D03*
X0250540Y0366800D03*
X0318060Y0356800D03*
X0325540Y0356800D03*
X0185146Y0284300D03*
X0178454Y0284300D03*
X0230560Y0251800D03*
X0238040Y0251800D03*
X0238040Y0241800D03*
X0230560Y0241800D03*
X0230560Y0231800D03*
X0238040Y0231800D03*
X0198040Y0241800D03*
X0190560Y0241800D03*
X0313060Y0199300D03*
X0320540Y0199300D03*
X0333060Y0241800D03*
X0340540Y0241800D03*
X0192646Y0151800D03*
X0185954Y0151800D03*
X0185954Y0141800D03*
X0192646Y0141800D03*
X0192646Y0131800D03*
X0185954Y0131800D03*
D11*
X0229300Y0160560D03*
X0229300Y0168040D03*
X0229300Y0180560D03*
X0229300Y0188040D03*
X0239300Y0188040D03*
X0239300Y0180560D03*
X0229300Y0198060D03*
X0229300Y0205540D03*
X0229300Y0215560D03*
X0229300Y0223040D03*
X0239300Y0223040D03*
X0239300Y0215560D03*
X0251800Y0210540D03*
X0251800Y0203060D03*
X0266800Y0203060D03*
X0266800Y0210540D03*
X0281800Y0210540D03*
X0281800Y0203060D03*
X0209300Y0200954D03*
X0209300Y0207646D03*
X0199300Y0207646D03*
X0199300Y0200954D03*
X0189300Y0200954D03*
X0189300Y0207646D03*
X0156800Y0215954D03*
X0156800Y0222646D03*
X0164300Y0235560D03*
X0164300Y0243040D03*
X0174300Y0243040D03*
X0174300Y0235560D03*
X0164300Y0253454D03*
X0164300Y0260146D03*
X0161800Y0303060D03*
X0161800Y0310540D03*
X0171800Y0325560D03*
X0171800Y0333040D03*
X0201800Y0333040D03*
X0201800Y0325560D03*
X0229300Y0273040D03*
X0229300Y0265560D03*
X0239300Y0265560D03*
X0239300Y0273040D03*
X0276800Y0298060D03*
X0276800Y0305540D03*
X0341800Y0330560D03*
X0341800Y0338040D03*
X0351800Y0338040D03*
X0351800Y0330560D03*
X0361800Y0330560D03*
X0361800Y0338040D03*
X0159300Y0180146D03*
X0159300Y0173454D03*
X0096800Y0230954D03*
X0096800Y0237646D03*
X0061800Y0225146D03*
X0061800Y0218454D03*
X0051800Y0218454D03*
X0051800Y0225146D03*
X0041800Y0225146D03*
X0041800Y0218454D03*
X0039300Y0150146D03*
X0039300Y0143454D03*
X0029300Y0143454D03*
X0029300Y0150146D03*
X0049300Y0150146D03*
X0049300Y0143454D03*
X0089300Y0333060D03*
X0089300Y0340540D03*
X0356800Y0140540D03*
X0356800Y0133060D03*
X0341800Y0108040D03*
X0341800Y0100560D03*
X0371800Y0165560D03*
X0371800Y0173040D03*
D12*
X0042800Y0276131D03*
X0042800Y0282036D03*
X0042800Y0287942D03*
X0042800Y0293847D03*
X0042800Y0299753D03*
X0042800Y0305658D03*
X0042800Y0311564D03*
X0042800Y0317469D03*
X0042800Y0363631D03*
X0042800Y0369536D03*
X0042800Y0375442D03*
X0042800Y0381347D03*
X0042800Y0387253D03*
X0042800Y0393158D03*
X0042800Y0399064D03*
X0042800Y0404969D03*
D13*
X0022918Y0415206D03*
X0022918Y0353394D03*
X0022918Y0327706D03*
X0022918Y0265894D03*
D14*
X0181800Y0391800D03*
X0181800Y0401800D03*
X0191800Y0401800D03*
X0191800Y0391800D03*
X0201800Y0391800D03*
X0211800Y0391800D03*
X0211800Y0401800D03*
X0201800Y0401800D03*
X0221800Y0401800D03*
X0231800Y0401800D03*
X0231800Y0391800D03*
X0221800Y0391800D03*
X0241800Y0391800D03*
X0241800Y0401800D03*
X0251800Y0401800D03*
X0261800Y0401800D03*
X0261800Y0391800D03*
X0251800Y0391800D03*
X0271800Y0391800D03*
X0271800Y0401800D03*
X0281800Y0401800D03*
X0291800Y0401800D03*
X0291800Y0391800D03*
X0281800Y0391800D03*
X0301800Y0391800D03*
X0301800Y0401800D03*
X0311800Y0401800D03*
X0321800Y0401800D03*
X0321800Y0391800D03*
X0311800Y0391800D03*
X0331800Y0391800D03*
X0341800Y0391800D03*
X0341800Y0401800D03*
X0331800Y0401800D03*
X0351800Y0401800D03*
X0351800Y0391800D03*
X0361800Y0391800D03*
X0371800Y0391800D03*
X0371800Y0401800D03*
X0361800Y0401800D03*
D15*
X0047194Y0176800D03*
X0021406Y0176800D03*
D16*
X0106800Y0256406D03*
X0106800Y0282194D03*
X0159300Y0149694D03*
X0159300Y0123906D03*
D17*
X0177666Y0121800D03*
X0185934Y0121800D03*
X0019300Y0150166D03*
X0019300Y0158434D03*
X0080166Y0286800D03*
X0088434Y0286800D03*
X0251800Y0320166D03*
X0261800Y0320166D03*
X0261800Y0328434D03*
X0251800Y0328434D03*
D18*
X0133217Y0314300D03*
X0133217Y0309300D03*
D19*
X0133217Y0319300D03*
X0133217Y0324300D03*
X0110383Y0324300D03*
X0110383Y0319300D03*
X0110383Y0314300D03*
X0110383Y0309300D03*
D20*
X0095737Y0321800D03*
X0087863Y0321800D03*
X0073237Y0286800D03*
X0065363Y0286800D03*
X0035737Y0336800D03*
X0027863Y0336800D03*
X0165363Y0221800D03*
X0173237Y0221800D03*
X0113237Y0211800D03*
X0105363Y0211800D03*
X0090737Y0201800D03*
X0082863Y0201800D03*
X0105363Y0184300D03*
X0113237Y0184300D03*
X0095737Y0179300D03*
X0087863Y0179300D03*
X0192863Y0121800D03*
X0200737Y0121800D03*
X0252863Y0284300D03*
X0260737Y0284300D03*
X0260737Y0294300D03*
X0252863Y0294300D03*
X0307863Y0374300D03*
X0315737Y0374300D03*
X0325363Y0374300D03*
X0333237Y0374300D03*
D21*
X0261800Y0313237D03*
X0251800Y0313237D03*
X0251800Y0305363D03*
X0261800Y0305363D03*
X0234800Y0300737D03*
X0234800Y0292863D03*
X0146800Y0215737D03*
X0146800Y0207863D03*
X0146800Y0198237D03*
X0146800Y0190363D03*
X0119300Y0165737D03*
X0119300Y0157863D03*
X0106800Y0220363D03*
X0106800Y0228237D03*
X0019300Y0143237D03*
X0019300Y0135363D03*
X0064300Y0335363D03*
X0064300Y0343237D03*
X0011800Y0345737D03*
X0011800Y0337863D03*
D22*
X0080698Y0220639D03*
X0080698Y0218080D03*
X0080698Y0215520D03*
X0080698Y0212961D03*
X0092902Y0212961D03*
X0092902Y0215520D03*
X0092902Y0218080D03*
X0092902Y0220639D03*
X0163198Y0208139D03*
X0163198Y0205580D03*
X0163198Y0203020D03*
X0163198Y0200461D03*
X0175402Y0200461D03*
X0175402Y0203020D03*
X0175402Y0205580D03*
X0175402Y0208139D03*
D23*
X0080540Y0333591D03*
X0076800Y0333591D03*
X0073060Y0333591D03*
X0073060Y0345009D03*
X0076800Y0345009D03*
X0080540Y0345009D03*
X0055540Y0345009D03*
X0051800Y0345009D03*
X0048060Y0345009D03*
X0048060Y0333591D03*
X0051800Y0333591D03*
X0055540Y0333591D03*
D24*
X0097961Y0167902D03*
X0100520Y0167902D03*
X0103080Y0167902D03*
X0105639Y0167902D03*
X0105639Y0155698D03*
X0103080Y0155698D03*
X0100520Y0155698D03*
X0097961Y0155698D03*
D25*
X0099828Y0084300D03*
X0093922Y0084300D03*
X0088017Y0084300D03*
X0082111Y0084300D03*
X0076206Y0084300D03*
X0070300Y0084300D03*
X0064394Y0084300D03*
X0058489Y0084300D03*
X0052583Y0084300D03*
X0046678Y0084300D03*
X0040772Y0084300D03*
X0136442Y0084300D03*
X0142347Y0084300D03*
X0148253Y0084300D03*
X0154158Y0084300D03*
X0189847Y0084300D03*
X0195753Y0084300D03*
X0232347Y0084300D03*
X0238253Y0084300D03*
X0274847Y0084300D03*
X0280753Y0084300D03*
X0317347Y0084300D03*
X0323253Y0084300D03*
X0359847Y0084300D03*
X0365753Y0084300D03*
D26*
X0030536Y0064418D03*
X0110064Y0064418D03*
X0126206Y0064418D03*
X0164394Y0064418D03*
X0179611Y0064418D03*
X0205989Y0064418D03*
X0222111Y0064418D03*
X0248489Y0064418D03*
X0264611Y0064418D03*
X0290989Y0064418D03*
X0307111Y0064418D03*
X0333489Y0064418D03*
X0349611Y0064418D03*
X0375989Y0064418D03*
D27*
X0140107Y0334300D03*
X0140107Y0339300D03*
X0140107Y0344300D03*
X0140107Y0349300D03*
X0140107Y0354300D03*
X0140107Y0359300D03*
X0140107Y0364300D03*
X0140107Y0369300D03*
X0140107Y0381800D03*
X0140107Y0386800D03*
X0140107Y0391800D03*
X0140107Y0396800D03*
X0140107Y0401800D03*
X0140107Y0406800D03*
X0140107Y0411800D03*
X0140107Y0416800D03*
X0103493Y0416800D03*
X0103493Y0411800D03*
X0103493Y0406800D03*
X0103493Y0401800D03*
X0103493Y0396800D03*
X0103493Y0391800D03*
X0103493Y0386800D03*
X0103493Y0381800D03*
X0103493Y0369300D03*
X0103493Y0364300D03*
X0103493Y0359300D03*
X0103493Y0354300D03*
X0103493Y0349300D03*
X0103493Y0344300D03*
X0103493Y0339300D03*
X0103493Y0334300D03*
D28*
X0235702Y0337784D03*
X0235702Y0340343D03*
X0235702Y0342902D03*
X0235702Y0345461D03*
X0235702Y0348020D03*
X0235702Y0350580D03*
X0235702Y0353139D03*
X0235702Y0355698D03*
X0235702Y0358257D03*
X0235702Y0360816D03*
X0257898Y0360816D03*
X0257898Y0358257D03*
X0257898Y0355698D03*
X0257898Y0353139D03*
X0257898Y0350580D03*
X0257898Y0348020D03*
X0257898Y0345461D03*
X0257898Y0342902D03*
X0257898Y0340343D03*
X0257898Y0337784D03*
D29*
X0304600Y0339300D03*
X0304600Y0334300D03*
X0304600Y0329300D03*
X0304600Y0324300D03*
X0304600Y0319300D03*
X0324000Y0319300D03*
X0324000Y0324300D03*
X0324000Y0329300D03*
X0324000Y0334300D03*
X0324000Y0339300D03*
X0324000Y0344300D03*
X0324000Y0349300D03*
X0304600Y0349300D03*
X0304600Y0344300D03*
X0226100Y0306800D03*
X0226100Y0301800D03*
X0226100Y0296800D03*
X0226100Y0291800D03*
X0207500Y0291800D03*
X0207500Y0296800D03*
X0207500Y0301800D03*
X0207500Y0306800D03*
X0304600Y0279300D03*
X0304600Y0274300D03*
X0304600Y0269300D03*
X0304600Y0264300D03*
X0304600Y0259300D03*
X0304600Y0254300D03*
X0304600Y0249300D03*
X0324000Y0249300D03*
X0324000Y0254300D03*
X0324000Y0259300D03*
X0324000Y0264300D03*
X0324000Y0269300D03*
X0324000Y0274300D03*
X0324000Y0279300D03*
D30*
X0286800Y0275560D03*
X0281800Y0275560D03*
X0276800Y0275560D03*
X0271800Y0275560D03*
X0266800Y0275560D03*
X0261800Y0275560D03*
X0256800Y0275560D03*
X0251800Y0275560D03*
X0251800Y0254300D03*
X0256800Y0254300D03*
X0261800Y0254300D03*
X0266800Y0254300D03*
X0271800Y0254300D03*
X0276800Y0254300D03*
X0281800Y0254300D03*
X0286800Y0254300D03*
D31*
X0284300Y0236524D03*
X0280560Y0227076D03*
X0270540Y0227076D03*
X0263060Y0227076D03*
X0255540Y0227076D03*
X0248060Y0227076D03*
X0251800Y0236524D03*
X0266800Y0236524D03*
X0288040Y0227076D03*
D32*
X0303000Y0290343D03*
X0303000Y0292902D03*
X0303000Y0295461D03*
X0303000Y0298020D03*
X0303000Y0300580D03*
X0303000Y0303139D03*
X0303000Y0305698D03*
X0303000Y0308257D03*
X0325600Y0308257D03*
X0325600Y0305698D03*
X0325600Y0303139D03*
X0325600Y0300580D03*
X0325600Y0298020D03*
X0325600Y0295461D03*
X0325600Y0292902D03*
X0325600Y0290343D03*
D33*
X0324930Y0236800D03*
X0324930Y0231800D03*
X0324930Y0226800D03*
X0324930Y0221800D03*
X0324930Y0216800D03*
X0324930Y0211800D03*
X0324930Y0206800D03*
X0303670Y0206800D03*
X0303670Y0211800D03*
X0303670Y0216800D03*
X0303670Y0221800D03*
X0303670Y0226800D03*
X0303670Y0231800D03*
X0303670Y0236800D03*
D34*
X0343300Y0194300D03*
X0343300Y0189300D03*
X0343300Y0184300D03*
X0343300Y0179300D03*
X0365300Y0179300D03*
X0365300Y0184300D03*
X0365300Y0189300D03*
X0365300Y0194300D03*
X0332800Y0149300D03*
X0332800Y0144300D03*
X0332800Y0139300D03*
X0332800Y0134300D03*
X0332800Y0124300D03*
X0332800Y0119300D03*
X0332800Y0114300D03*
X0332800Y0109300D03*
X0310800Y0109300D03*
X0310800Y0114300D03*
X0310800Y0119300D03*
X0310800Y0124300D03*
X0310800Y0134300D03*
X0310800Y0139300D03*
X0310800Y0144300D03*
X0310800Y0149300D03*
D35*
X0304800Y0166800D03*
X0304800Y0171800D03*
X0304800Y0176800D03*
X0304800Y0181800D03*
X0281300Y0179300D03*
X0281300Y0184300D03*
X0281300Y0189300D03*
X0281300Y0194300D03*
X0257300Y0194300D03*
X0257300Y0189300D03*
X0257300Y0184300D03*
X0257300Y0179300D03*
X0259800Y0169300D03*
X0259800Y0164300D03*
X0259800Y0159300D03*
X0259800Y0154300D03*
X0259800Y0144300D03*
X0259800Y0139300D03*
X0259800Y0134300D03*
X0259800Y0129300D03*
X0259800Y0119300D03*
X0259800Y0114300D03*
X0259800Y0109300D03*
X0259800Y0104300D03*
X0283800Y0104300D03*
X0283800Y0109300D03*
X0283800Y0114300D03*
X0283800Y0119300D03*
X0283800Y0129300D03*
X0283800Y0134300D03*
X0283800Y0139300D03*
X0283800Y0144300D03*
X0283800Y0154300D03*
X0283800Y0159300D03*
X0283800Y0164300D03*
X0283800Y0169300D03*
X0328800Y0166800D03*
X0328800Y0171800D03*
X0328800Y0176800D03*
X0328800Y0181800D03*
X0339800Y0171800D03*
X0339800Y0166800D03*
X0339800Y0161800D03*
X0339800Y0156800D03*
X0363800Y0156800D03*
X0363800Y0161800D03*
X0363800Y0166800D03*
X0363800Y0171800D03*
D36*
X0356800Y0169300D03*
X0356800Y0164300D03*
X0356800Y0159300D03*
X0351800Y0159300D03*
X0351800Y0164300D03*
X0351800Y0169300D03*
X0346800Y0169300D03*
X0346800Y0164300D03*
X0346800Y0159300D03*
X0321800Y0169300D03*
X0321800Y0174300D03*
X0321800Y0179300D03*
X0316800Y0179300D03*
X0311800Y0179300D03*
X0311800Y0174300D03*
X0316800Y0174300D03*
X0316800Y0169300D03*
X0311800Y0169300D03*
X0276800Y0166800D03*
X0271800Y0166800D03*
X0266800Y0166800D03*
X0266800Y0161800D03*
X0266800Y0156800D03*
X0271800Y0156800D03*
X0271800Y0161800D03*
X0276800Y0161800D03*
X0276800Y0156800D03*
X0276800Y0141800D03*
X0276800Y0136800D03*
X0276800Y0131800D03*
X0271800Y0131800D03*
X0271800Y0136800D03*
X0271800Y0141800D03*
X0266800Y0141800D03*
X0266800Y0136800D03*
X0266800Y0131800D03*
X0266800Y0116800D03*
X0266800Y0111800D03*
X0266800Y0106800D03*
X0271800Y0106800D03*
X0271800Y0111800D03*
X0271800Y0116800D03*
X0276800Y0116800D03*
X0276800Y0111800D03*
X0276800Y0106800D03*
X0274300Y0181800D03*
X0269300Y0181800D03*
X0269300Y0186800D03*
X0274300Y0186800D03*
X0274300Y0191800D03*
X0269300Y0191800D03*
X0264300Y0191800D03*
X0264300Y0186800D03*
X0264300Y0181800D03*
D37*
X0270600Y0186800D03*
X0270500Y0161800D03*
X0270500Y0136800D03*
X0270500Y0111800D03*
X0353100Y0164300D03*
X0318100Y0174300D03*
D38*
X0314300Y0189300D03*
X0331800Y0189300D03*
X0344300Y0201800D03*
X0366800Y0216800D03*
X0339300Y0254300D03*
X0279300Y0316800D03*
X0284300Y0324300D03*
X0284300Y0334300D03*
X0279300Y0341800D03*
X0181800Y0334300D03*
X0206800Y0234300D03*
X0291800Y0169300D03*
X0309300Y0156800D03*
X0291800Y0144300D03*
X0291800Y0129300D03*
X0291800Y0114300D03*
X0296800Y0104300D03*
X0309300Y0101800D03*
X0307800Y0090800D03*
X0346800Y0126800D03*
X0341800Y0134300D03*
X0366800Y0144300D03*
X0239300Y0151800D03*
X0217800Y0085800D03*
X0150800Y0096800D03*
D39*
X0171800Y0297100D03*
X0176800Y0297100D03*
X0181800Y0297100D03*
X0186800Y0297100D03*
X0186800Y0316500D03*
X0181800Y0316500D03*
X0176800Y0316500D03*
X0171800Y0316500D03*
D40*
X0171524Y0345560D03*
X0171524Y0353040D03*
X0162076Y0349300D03*
D41*
X0215973Y0319300D03*
X0237627Y0319300D03*
D42*
X0212213Y0270658D03*
X0212213Y0252942D03*
X0176387Y0252942D03*
X0176387Y0270658D03*
D43*
X0174664Y0268936D01*
X0174664Y0262164D01*
X0169300Y0256800D01*
X0169300Y0254300D01*
X0165146Y0254300D01*
X0164300Y0253454D01*
X0164300Y0243040D01*
X0156800Y0239300D02*
X0156800Y0266800D01*
X0149300Y0274300D01*
X0149300Y0296800D01*
X0154300Y0301800D01*
X0154300Y0311800D01*
X0156800Y0314300D01*
X0156800Y0321800D01*
X0154300Y0324300D01*
X0149300Y0324300D01*
X0144300Y0319300D01*
X0133217Y0319300D01*
X0136800Y0319300D01*
X0136800Y0314300D02*
X0133217Y0314300D01*
X0146800Y0314300D01*
X0151800Y0311800D02*
X0149300Y0309300D01*
X0133217Y0309300D01*
X0136800Y0309300D01*
X0151800Y0311800D02*
X0151800Y0319300D01*
X0144300Y0324300D02*
X0133217Y0324300D01*
X0140107Y0334300D02*
X0144300Y0334300D01*
X0146800Y0336800D01*
X0146800Y0339300D01*
X0151800Y0344300D02*
X0140107Y0344300D01*
X0140107Y0349300D02*
X0146800Y0349300D01*
X0149300Y0351800D01*
X0151800Y0351800D01*
X0149300Y0354300D02*
X0140107Y0354300D01*
X0140107Y0359300D02*
X0146800Y0359300D01*
X0149300Y0361800D01*
X0151800Y0361800D01*
X0151800Y0356800D02*
X0149300Y0354300D01*
X0156800Y0349300D02*
X0151800Y0344300D01*
X0156800Y0339300D02*
X0156800Y0331800D01*
X0161800Y0326800D01*
X0164300Y0326800D01*
X0164300Y0331800D02*
X0164300Y0336800D01*
X0161800Y0339300D01*
X0161800Y0344300D02*
X0166800Y0339300D01*
X0176800Y0339300D01*
X0181800Y0334300D01*
X0186800Y0329300D01*
X0186800Y0316500D01*
X0186524Y0316776D01*
X0186800Y0316500D02*
X0186800Y0319300D01*
X0194300Y0321800D02*
X0199300Y0316800D01*
X0199300Y0306800D01*
X0207500Y0306800D01*
X0207500Y0301800D02*
X0204300Y0301800D01*
X0201800Y0304300D01*
X0196800Y0304300D01*
X0199300Y0299300D02*
X0201800Y0296800D01*
X0207500Y0296800D01*
X0207500Y0291800D02*
X0199300Y0291800D01*
X0196800Y0294300D01*
X0186800Y0291800D02*
X0184300Y0289300D01*
X0184300Y0285146D01*
X0190954Y0285146D01*
X0191800Y0284300D01*
X0191800Y0279300D01*
X0209300Y0279300D01*
X0212213Y0276387D01*
X0212213Y0270658D01*
X0224300Y0271800D02*
X0224300Y0241800D01*
X0221800Y0239300D01*
X0221800Y0231800D01*
X0224300Y0229300D01*
X0228060Y0229300D01*
X0230560Y0231800D01*
X0224300Y0229300D02*
X0221800Y0226800D01*
X0221800Y0139300D01*
X0225800Y0135300D01*
X0225800Y0131800D01*
X0229300Y0136800D02*
X0224300Y0141800D01*
X0224300Y0221800D01*
X0226800Y0224300D01*
X0228040Y0224300D01*
X0229300Y0223040D01*
X0239300Y0223040D01*
X0239300Y0215560D02*
X0239300Y0211800D01*
X0241800Y0209300D01*
X0241800Y0196800D01*
X0239300Y0199300D01*
X0236800Y0199300D01*
X0234300Y0196800D01*
X0230560Y0196800D01*
X0229300Y0198060D01*
X0230540Y0204300D02*
X0229300Y0205540D01*
X0230560Y0206800D01*
X0236800Y0206800D01*
X0229300Y0205540D02*
X0229300Y0215560D01*
X0214300Y0214802D02*
X0169300Y0214802D01*
X0169300Y0216400D02*
X0214300Y0216400D01*
X0214300Y0217999D02*
X0176877Y0217999D01*
X0176843Y0217939D02*
X0177080Y0218349D01*
X0177202Y0218807D01*
X0177202Y0221517D01*
X0173520Y0221517D01*
X0173520Y0222083D01*
X0172954Y0222083D01*
X0172954Y0226356D01*
X0170835Y0226356D01*
X0170377Y0226233D01*
X0169966Y0225996D01*
X0169631Y0225661D01*
X0169394Y0225251D01*
X0169300Y0224899D01*
X0169300Y0226800D01*
X0214300Y0226800D01*
X0214300Y0206800D01*
X0214053Y0206800D01*
X0214053Y0207167D01*
X0209780Y0207167D01*
X0209780Y0208126D01*
X0214053Y0208126D01*
X0214053Y0210442D01*
X0213930Y0210900D01*
X0213693Y0211311D01*
X0213358Y0211646D01*
X0212948Y0211883D01*
X0212490Y0212005D01*
X0209780Y0212005D01*
X0209780Y0208126D01*
X0208820Y0208126D01*
X0208820Y0207167D01*
X0204547Y0207167D01*
X0204547Y0206800D01*
X0204053Y0206800D01*
X0204053Y0207167D01*
X0199780Y0207167D01*
X0199780Y0208126D01*
X0204053Y0208126D01*
X0204053Y0210442D01*
X0203930Y0210900D01*
X0203693Y0211311D01*
X0203358Y0211646D01*
X0202948Y0211883D01*
X0202490Y0212005D01*
X0199780Y0212005D01*
X0199780Y0208126D01*
X0198820Y0208126D01*
X0198820Y0207167D01*
X0194547Y0207167D01*
X0194547Y0206800D01*
X0194053Y0206800D01*
X0194053Y0207167D01*
X0189780Y0207167D01*
X0189780Y0208126D01*
X0194053Y0208126D01*
X0194053Y0210442D01*
X0193930Y0210900D01*
X0193693Y0211311D01*
X0193358Y0211646D01*
X0192948Y0211883D01*
X0192490Y0212005D01*
X0189780Y0212005D01*
X0189780Y0208126D01*
X0188820Y0208126D01*
X0188820Y0207167D01*
X0184547Y0207167D01*
X0184547Y0206800D01*
X0179854Y0206800D01*
X0179854Y0209604D01*
X0179033Y0210424D01*
X0176800Y0210424D01*
X0176800Y0211800D01*
X0169300Y0211800D01*
X0169300Y0218701D01*
X0169394Y0218349D01*
X0169631Y0217939D01*
X0169966Y0217604D01*
X0170377Y0217367D01*
X0170835Y0217244D01*
X0172954Y0217244D01*
X0172954Y0221517D01*
X0173520Y0221517D01*
X0173520Y0217244D01*
X0175639Y0217244D01*
X0176097Y0217367D01*
X0176508Y0217604D01*
X0176843Y0217939D01*
X0177202Y0219597D02*
X0214300Y0219597D01*
X0214300Y0221196D02*
X0177202Y0221196D01*
X0177202Y0222083D02*
X0177202Y0224793D01*
X0177080Y0225251D01*
X0176843Y0225661D01*
X0176508Y0225996D01*
X0176097Y0226233D01*
X0175639Y0226356D01*
X0173520Y0226356D01*
X0173520Y0222083D01*
X0177202Y0222083D01*
X0177202Y0222794D02*
X0214300Y0222794D01*
X0214300Y0224393D02*
X0177202Y0224393D01*
X0176513Y0225991D02*
X0214300Y0225991D01*
X0206800Y0229300D02*
X0206800Y0234300D01*
X0206800Y0229300D02*
X0159300Y0229300D01*
X0159300Y0236800D01*
X0163060Y0236800D01*
X0164300Y0235560D01*
X0174300Y0235560D01*
X0173040Y0234300D01*
X0183060Y0234300D01*
X0190560Y0241800D01*
X0198040Y0241800D02*
X0198040Y0235540D01*
X0196800Y0234300D01*
X0181800Y0244300D02*
X0175560Y0244300D01*
X0174300Y0243040D01*
X0174418Y0252942D01*
X0176387Y0252942D01*
X0176800Y0252528D01*
X0164300Y0260146D02*
X0164300Y0269300D01*
X0169300Y0274300D01*
X0169300Y0276800D01*
X0164300Y0281800D01*
X0163040Y0288060D02*
X0171800Y0279300D01*
X0174300Y0279300D01*
X0191800Y0279300D01*
X0185146Y0284300D02*
X0184300Y0285146D01*
X0179300Y0285146D02*
X0178454Y0284300D01*
X0179300Y0285146D02*
X0179300Y0289300D01*
X0181800Y0291800D01*
X0181800Y0297100D01*
X0176800Y0297100D02*
X0176800Y0291800D01*
X0174300Y0291800D01*
X0171800Y0289300D01*
X0167946Y0292946D02*
X0166800Y0291800D01*
X0167946Y0292946D02*
X0167946Y0297100D01*
X0171800Y0297100D01*
X0163040Y0301800D02*
X0163040Y0288060D01*
X0159300Y0296800D02*
X0159300Y0274300D01*
X0164300Y0274300D02*
X0159300Y0269300D01*
X0159300Y0236800D01*
X0156800Y0239300D02*
X0151800Y0234300D01*
X0151800Y0229300D02*
X0156800Y0224300D01*
X0156800Y0222646D01*
X0156800Y0215954D02*
X0156800Y0214536D01*
X0163198Y0208139D01*
X0163198Y0205580D02*
X0155580Y0205580D01*
X0149083Y0205580D01*
X0146800Y0207863D01*
X0155580Y0205580D02*
X0148237Y0198237D01*
X0146800Y0198237D01*
X0156800Y0199300D02*
X0156800Y0201800D01*
X0158020Y0203020D01*
X0163198Y0203020D01*
X0163198Y0200461D02*
X0164300Y0199359D01*
X0164300Y0185146D01*
X0159300Y0180146D01*
X0160146Y0179300D01*
X0159300Y0179300D01*
X0163877Y0176800D02*
X0171800Y0176800D01*
X0171800Y0136800D01*
X0146800Y0136800D01*
X0146800Y0176800D01*
X0154723Y0176800D01*
X0154670Y0176707D01*
X0154547Y0176250D01*
X0154547Y0173933D01*
X0158820Y0173933D01*
X0158820Y0172974D01*
X0154547Y0172974D01*
X0154547Y0170658D01*
X0154670Y0170200D01*
X0154907Y0169789D01*
X0155242Y0169454D01*
X0155652Y0169217D01*
X0156110Y0169094D01*
X0158820Y0169094D01*
X0158820Y0172974D01*
X0159780Y0172974D01*
X0159780Y0173933D01*
X0164053Y0173933D01*
X0164053Y0176250D01*
X0163930Y0176707D01*
X0163877Y0176800D01*
X0164002Y0176437D02*
X0171800Y0176437D01*
X0171800Y0174839D02*
X0164053Y0174839D01*
X0164053Y0172974D02*
X0164053Y0170658D01*
X0163930Y0170200D01*
X0163693Y0169789D01*
X0163358Y0169454D01*
X0162948Y0169217D01*
X0162490Y0169094D01*
X0159780Y0169094D01*
X0159780Y0172974D01*
X0164053Y0172974D01*
X0164053Y0171642D02*
X0171800Y0171642D01*
X0171800Y0173240D02*
X0159780Y0173240D01*
X0158820Y0173240D02*
X0146800Y0173240D01*
X0146800Y0171642D02*
X0154547Y0171642D01*
X0154760Y0170043D02*
X0146800Y0170043D01*
X0146800Y0168445D02*
X0171800Y0168445D01*
X0171800Y0170043D02*
X0163840Y0170043D01*
X0159780Y0170043D02*
X0158820Y0170043D01*
X0158820Y0171642D02*
X0159780Y0171642D01*
X0154547Y0174839D02*
X0146800Y0174839D01*
X0146800Y0176437D02*
X0154598Y0176437D01*
X0146800Y0166846D02*
X0171800Y0166846D01*
X0171800Y0165248D02*
X0146800Y0165248D01*
X0146800Y0163649D02*
X0171800Y0163649D01*
X0171800Y0162051D02*
X0146800Y0162051D01*
X0146800Y0160452D02*
X0171800Y0160452D01*
X0171800Y0158854D02*
X0146800Y0158854D01*
X0146800Y0157255D02*
X0171800Y0157255D01*
X0171800Y0155657D02*
X0167762Y0155657D01*
X0167793Y0155541D02*
X0167670Y0155999D01*
X0167433Y0156409D01*
X0167098Y0156744D01*
X0166688Y0156981D01*
X0166230Y0157104D01*
X0160100Y0157104D01*
X0160100Y0150494D01*
X0158500Y0150494D01*
X0158500Y0157104D01*
X0152370Y0157104D01*
X0151912Y0156981D01*
X0151502Y0156744D01*
X0151167Y0156409D01*
X0150930Y0155999D01*
X0150807Y0155541D01*
X0150807Y0150494D01*
X0158500Y0150494D01*
X0158500Y0148894D01*
X0150807Y0148894D01*
X0150807Y0143846D01*
X0150930Y0143389D01*
X0151167Y0142978D01*
X0151502Y0142643D01*
X0151912Y0142406D01*
X0152370Y0142283D01*
X0158500Y0142283D01*
X0158500Y0148894D01*
X0160100Y0148894D01*
X0160100Y0150494D01*
X0167793Y0150494D01*
X0167793Y0155541D01*
X0167793Y0154058D02*
X0171800Y0154058D01*
X0171800Y0152460D02*
X0167793Y0152460D01*
X0167793Y0150861D02*
X0171800Y0150861D01*
X0171800Y0149263D02*
X0160100Y0149263D01*
X0160100Y0148894D02*
X0167793Y0148894D01*
X0167793Y0143846D01*
X0167670Y0143389D01*
X0167433Y0142978D01*
X0167098Y0142643D01*
X0166688Y0142406D01*
X0166230Y0142283D01*
X0160100Y0142283D01*
X0160100Y0148894D01*
X0160100Y0147664D02*
X0158500Y0147664D01*
X0158500Y0146066D02*
X0160100Y0146066D01*
X0160100Y0144467D02*
X0158500Y0144467D01*
X0158500Y0142869D02*
X0160100Y0142869D01*
X0167324Y0142869D02*
X0171800Y0142869D01*
X0171800Y0144467D02*
X0167793Y0144467D01*
X0167793Y0146066D02*
X0171800Y0146066D01*
X0171800Y0147664D02*
X0167793Y0147664D01*
X0174300Y0147664D02*
X0182032Y0147664D01*
X0181954Y0147742D02*
X0182289Y0147407D01*
X0182700Y0147170D01*
X0183158Y0147047D01*
X0185474Y0147047D01*
X0185474Y0151320D01*
X0186433Y0151320D01*
X0186433Y0147047D01*
X0186800Y0147047D01*
X0186800Y0146553D01*
X0186433Y0146553D01*
X0186433Y0142280D01*
X0185474Y0142280D01*
X0185474Y0146553D01*
X0183158Y0146553D01*
X0182700Y0146430D01*
X0182289Y0146193D01*
X0181954Y0145858D01*
X0181717Y0145448D01*
X0181594Y0144990D01*
X0181594Y0142280D01*
X0185474Y0142280D01*
X0185474Y0141320D01*
X0186433Y0141320D01*
X0186433Y0137047D01*
X0186800Y0137047D01*
X0186800Y0136553D01*
X0186433Y0136553D01*
X0186433Y0132280D01*
X0185474Y0132280D01*
X0185474Y0136553D01*
X0183158Y0136553D01*
X0182700Y0136430D01*
X0182289Y0136193D01*
X0181954Y0135858D01*
X0181717Y0135448D01*
X0181594Y0134990D01*
X0181594Y0132280D01*
X0185474Y0132280D01*
X0185474Y0131320D01*
X0186433Y0131320D01*
X0186433Y0127047D01*
X0186800Y0127047D01*
X0186800Y0126800D01*
X0181800Y0126800D01*
X0181800Y0124505D01*
X0181706Y0124857D01*
X0181469Y0125267D01*
X0181134Y0125603D01*
X0180723Y0125840D01*
X0180265Y0125962D01*
X0178047Y0125962D01*
X0178047Y0122181D01*
X0177285Y0122181D01*
X0177285Y0121419D01*
X0173504Y0121419D01*
X0173504Y0119201D01*
X0173627Y0118743D01*
X0173864Y0118333D01*
X0174199Y0117997D01*
X0174609Y0117760D01*
X0175067Y0117638D01*
X0177285Y0117638D01*
X0177285Y0121419D01*
X0178047Y0121419D01*
X0178047Y0117638D01*
X0180265Y0117638D01*
X0180723Y0117760D01*
X0181134Y0117997D01*
X0181469Y0118333D01*
X0181706Y0118743D01*
X0181800Y0119095D01*
X0181800Y0114300D01*
X0146800Y0114300D01*
X0146800Y0134300D01*
X0174300Y0134300D01*
X0174300Y0154300D01*
X0181594Y0154300D01*
X0181594Y0152280D01*
X0185474Y0152280D01*
X0185474Y0151320D01*
X0181594Y0151320D01*
X0181594Y0148610D01*
X0181717Y0148152D01*
X0181954Y0147742D01*
X0181594Y0149263D02*
X0174300Y0149263D01*
X0174300Y0150861D02*
X0181594Y0150861D01*
X0181594Y0152460D02*
X0174300Y0152460D01*
X0174300Y0154058D02*
X0181594Y0154058D01*
X0185474Y0150861D02*
X0186433Y0150861D01*
X0186433Y0149263D02*
X0185474Y0149263D01*
X0185474Y0147664D02*
X0186433Y0147664D01*
X0186433Y0146066D02*
X0185474Y0146066D01*
X0185474Y0144467D02*
X0186433Y0144467D01*
X0186433Y0142869D02*
X0185474Y0142869D01*
X0185474Y0141320D02*
X0181594Y0141320D01*
X0181594Y0138610D01*
X0181717Y0138152D01*
X0181954Y0137742D01*
X0182289Y0137407D01*
X0182700Y0137170D01*
X0183158Y0137047D01*
X0185474Y0137047D01*
X0185474Y0141320D01*
X0185474Y0141270D02*
X0186433Y0141270D01*
X0186433Y0139672D02*
X0185474Y0139672D01*
X0185474Y0138073D02*
X0186433Y0138073D01*
X0186433Y0136475D02*
X0185474Y0136475D01*
X0185474Y0134876D02*
X0186433Y0134876D01*
X0186433Y0133278D02*
X0185474Y0133278D01*
X0185474Y0131679D02*
X0146800Y0131679D01*
X0146800Y0130081D02*
X0150895Y0130081D01*
X0150930Y0130211D02*
X0150807Y0129754D01*
X0150807Y0124706D01*
X0158500Y0124706D01*
X0158500Y0123106D01*
X0160100Y0123106D01*
X0160100Y0116496D01*
X0166230Y0116496D01*
X0166688Y0116619D01*
X0167098Y0116856D01*
X0167433Y0117191D01*
X0167670Y0117601D01*
X0167793Y0118059D01*
X0167793Y0123106D01*
X0160100Y0123106D01*
X0160100Y0124706D01*
X0167793Y0124706D01*
X0167793Y0129754D01*
X0167670Y0130211D01*
X0167433Y0130622D01*
X0167098Y0130957D01*
X0166688Y0131194D01*
X0166230Y0131317D01*
X0160100Y0131317D01*
X0160100Y0124706D01*
X0158500Y0124706D01*
X0158500Y0131317D01*
X0152370Y0131317D01*
X0151912Y0131194D01*
X0151502Y0130957D01*
X0151167Y0130622D01*
X0150930Y0130211D01*
X0150807Y0128482D02*
X0146800Y0128482D01*
X0146800Y0126884D02*
X0150807Y0126884D01*
X0150807Y0125285D02*
X0146800Y0125285D01*
X0146800Y0123687D02*
X0158500Y0123687D01*
X0158500Y0123106D02*
X0150807Y0123106D01*
X0150807Y0118059D01*
X0150930Y0117601D01*
X0151167Y0117191D01*
X0151502Y0116856D01*
X0151912Y0116619D01*
X0152370Y0116496D01*
X0158500Y0116496D01*
X0158500Y0123106D01*
X0158500Y0122088D02*
X0160100Y0122088D01*
X0160100Y0120490D02*
X0158500Y0120490D01*
X0158500Y0118891D02*
X0160100Y0118891D01*
X0160100Y0117293D02*
X0158500Y0117293D01*
X0151108Y0117293D02*
X0146800Y0117293D01*
X0146800Y0118891D02*
X0150807Y0118891D01*
X0150807Y0120490D02*
X0146800Y0120490D01*
X0146800Y0122088D02*
X0150807Y0122088D01*
X0146800Y0115694D02*
X0181800Y0115694D01*
X0181800Y0117293D02*
X0167492Y0117293D01*
X0167793Y0118891D02*
X0173587Y0118891D01*
X0173504Y0120490D02*
X0167793Y0120490D01*
X0167793Y0122088D02*
X0177285Y0122088D01*
X0177285Y0122181D02*
X0173504Y0122181D01*
X0173504Y0124399D01*
X0173627Y0124857D01*
X0173864Y0125267D01*
X0174199Y0125603D01*
X0174609Y0125840D01*
X0175067Y0125962D01*
X0177285Y0125962D01*
X0177285Y0122181D01*
X0177285Y0123687D02*
X0178047Y0123687D01*
X0178047Y0125285D02*
X0177285Y0125285D01*
X0173881Y0125285D02*
X0167793Y0125285D01*
X0167793Y0126884D02*
X0186800Y0126884D01*
X0185474Y0127047D02*
X0185474Y0131320D01*
X0181594Y0131320D01*
X0181594Y0128610D01*
X0181717Y0128152D01*
X0181954Y0127742D01*
X0182289Y0127407D01*
X0182700Y0127170D01*
X0183158Y0127047D01*
X0185474Y0127047D01*
X0185474Y0128482D02*
X0186433Y0128482D01*
X0186433Y0130081D02*
X0185474Y0130081D01*
X0181594Y0130081D02*
X0167705Y0130081D01*
X0167793Y0128482D02*
X0181629Y0128482D01*
X0181451Y0125285D02*
X0181800Y0125285D01*
X0185934Y0121800D02*
X0192863Y0121800D01*
X0196800Y0118701D02*
X0196894Y0118349D01*
X0197131Y0117939D01*
X0197466Y0117604D01*
X0197877Y0117367D01*
X0198335Y0117244D01*
X0200454Y0117244D01*
X0200454Y0121517D01*
X0201020Y0121517D01*
X0201020Y0122083D01*
X0200454Y0122083D01*
X0200454Y0126356D01*
X0198335Y0126356D01*
X0197877Y0126233D01*
X0197466Y0125996D01*
X0197131Y0125661D01*
X0196894Y0125251D01*
X0196800Y0124899D01*
X0196800Y0126800D01*
X0189300Y0126800D01*
X0189300Y0127223D01*
X0189393Y0127170D01*
X0189850Y0127047D01*
X0192167Y0127047D01*
X0192167Y0131320D01*
X0193126Y0131320D01*
X0193126Y0127047D01*
X0195442Y0127047D01*
X0195900Y0127170D01*
X0196311Y0127407D01*
X0196646Y0127742D01*
X0196883Y0128152D01*
X0197005Y0128610D01*
X0197005Y0131320D01*
X0193126Y0131320D01*
X0193126Y0132280D01*
X0192167Y0132280D01*
X0192167Y0136553D01*
X0189850Y0136553D01*
X0189393Y0136430D01*
X0189300Y0136377D01*
X0189300Y0137223D01*
X0189393Y0137170D01*
X0189850Y0137047D01*
X0192167Y0137047D01*
X0192167Y0141320D01*
X0193126Y0141320D01*
X0193126Y0137047D01*
X0195442Y0137047D01*
X0195900Y0137170D01*
X0196311Y0137407D01*
X0196646Y0137742D01*
X0196883Y0138152D01*
X0197005Y0138610D01*
X0197005Y0141320D01*
X0193126Y0141320D01*
X0193126Y0142280D01*
X0192167Y0142280D01*
X0192167Y0146553D01*
X0189850Y0146553D01*
X0189393Y0146430D01*
X0189300Y0146377D01*
X0189300Y0147223D01*
X0189393Y0147170D01*
X0189850Y0147047D01*
X0192167Y0147047D01*
X0192167Y0151320D01*
X0193126Y0151320D01*
X0193126Y0147047D01*
X0195442Y0147047D01*
X0195900Y0147170D01*
X0196311Y0147407D01*
X0196646Y0147742D01*
X0196883Y0148152D01*
X0197005Y0148610D01*
X0197005Y0151320D01*
X0193126Y0151320D01*
X0193126Y0152280D01*
X0192167Y0152280D01*
X0192167Y0156553D01*
X0189850Y0156553D01*
X0189393Y0156430D01*
X0189300Y0156377D01*
X0189300Y0156800D01*
X0174300Y0156800D01*
X0174300Y0179300D01*
X0166800Y0179300D01*
X0166800Y0196800D01*
X0176800Y0196800D01*
X0176800Y0174300D01*
X0186800Y0174300D01*
X0186800Y0196594D01*
X0188820Y0196594D01*
X0188820Y0200474D01*
X0189780Y0200474D01*
X0189780Y0201433D01*
X0194053Y0201433D01*
X0194053Y0203750D01*
X0193930Y0204207D01*
X0193877Y0204300D01*
X0194723Y0204300D01*
X0194670Y0204207D01*
X0194547Y0203750D01*
X0194547Y0201433D01*
X0198820Y0201433D01*
X0198820Y0200474D01*
X0194547Y0200474D01*
X0194547Y0198158D01*
X0194670Y0197700D01*
X0194907Y0197289D01*
X0195242Y0196954D01*
X0195652Y0196717D01*
X0196110Y0196594D01*
X0198820Y0196594D01*
X0198820Y0200474D01*
X0199780Y0200474D01*
X0199780Y0201433D01*
X0204053Y0201433D01*
X0204053Y0203750D01*
X0203930Y0204207D01*
X0203877Y0204300D01*
X0204723Y0204300D01*
X0204670Y0204207D01*
X0204547Y0203750D01*
X0204547Y0201433D01*
X0208820Y0201433D01*
X0208820Y0200474D01*
X0204547Y0200474D01*
X0204547Y0198158D01*
X0204670Y0197700D01*
X0204907Y0197289D01*
X0205242Y0196954D01*
X0205652Y0196717D01*
X0206110Y0196594D01*
X0208820Y0196594D01*
X0208820Y0200474D01*
X0209780Y0200474D01*
X0209780Y0201433D01*
X0214053Y0201433D01*
X0214053Y0203750D01*
X0213930Y0204207D01*
X0213877Y0204300D01*
X0214300Y0204300D01*
X0214300Y0123785D01*
X0214111Y0123597D01*
X0213628Y0122431D01*
X0213628Y0121169D01*
X0214111Y0120003D01*
X0214300Y0119815D01*
X0214300Y0116800D01*
X0196800Y0116800D01*
X0196800Y0118701D01*
X0196800Y0117293D02*
X0198154Y0117293D01*
X0200454Y0117293D02*
X0201020Y0117293D01*
X0201020Y0117244D02*
X0203139Y0117244D01*
X0203597Y0117367D01*
X0204008Y0117604D01*
X0204343Y0117939D01*
X0204580Y0118349D01*
X0204702Y0118807D01*
X0204702Y0121517D01*
X0201020Y0121517D01*
X0201020Y0117244D01*
X0201020Y0118891D02*
X0200454Y0118891D01*
X0200454Y0120490D02*
X0201020Y0120490D01*
X0201020Y0122083D02*
X0204702Y0122083D01*
X0204702Y0124793D01*
X0204580Y0125251D01*
X0204343Y0125661D01*
X0204008Y0125996D01*
X0203597Y0126233D01*
X0203139Y0126356D01*
X0201020Y0126356D01*
X0201020Y0122083D01*
X0201020Y0122088D02*
X0200454Y0122088D01*
X0200454Y0123687D02*
X0201020Y0123687D01*
X0201020Y0125285D02*
X0200454Y0125285D01*
X0196914Y0125285D02*
X0196800Y0125285D01*
X0196971Y0128482D02*
X0214300Y0128482D01*
X0214300Y0126884D02*
X0189300Y0126884D01*
X0192167Y0128482D02*
X0193126Y0128482D01*
X0193126Y0130081D02*
X0192167Y0130081D01*
X0193126Y0131679D02*
X0214300Y0131679D01*
X0214300Y0130081D02*
X0197005Y0130081D01*
X0197005Y0132280D02*
X0193126Y0132280D01*
X0193126Y0136553D01*
X0195442Y0136553D01*
X0195900Y0136430D01*
X0196311Y0136193D01*
X0196646Y0135858D01*
X0196883Y0135448D01*
X0197005Y0134990D01*
X0197005Y0132280D01*
X0197005Y0133278D02*
X0214300Y0133278D01*
X0214300Y0134876D02*
X0197005Y0134876D01*
X0195734Y0136475D02*
X0214300Y0136475D01*
X0214300Y0138073D02*
X0196837Y0138073D01*
X0197005Y0139672D02*
X0214300Y0139672D01*
X0214300Y0141270D02*
X0197005Y0141270D01*
X0197005Y0142280D02*
X0197005Y0144990D01*
X0196883Y0145448D01*
X0196646Y0145858D01*
X0196311Y0146193D01*
X0195900Y0146430D01*
X0195442Y0146553D01*
X0193126Y0146553D01*
X0193126Y0142280D01*
X0197005Y0142280D01*
X0197005Y0142869D02*
X0214300Y0142869D01*
X0214300Y0144467D02*
X0197005Y0144467D01*
X0196438Y0146066D02*
X0214300Y0146066D01*
X0214300Y0147664D02*
X0196568Y0147664D01*
X0197005Y0149263D02*
X0214300Y0149263D01*
X0214300Y0150861D02*
X0197005Y0150861D01*
X0197005Y0152280D02*
X0197005Y0154990D01*
X0196883Y0155448D01*
X0196646Y0155858D01*
X0196311Y0156193D01*
X0195900Y0156430D01*
X0195442Y0156553D01*
X0193126Y0156553D01*
X0193126Y0152280D01*
X0197005Y0152280D01*
X0197005Y0152460D02*
X0214300Y0152460D01*
X0214300Y0154058D02*
X0197005Y0154058D01*
X0196762Y0155657D02*
X0214300Y0155657D01*
X0214300Y0157255D02*
X0174300Y0157255D01*
X0174300Y0158854D02*
X0214300Y0158854D01*
X0214300Y0160452D02*
X0174300Y0160452D01*
X0174300Y0162051D02*
X0214300Y0162051D01*
X0214300Y0163649D02*
X0174300Y0163649D01*
X0174300Y0165248D02*
X0214300Y0165248D01*
X0214300Y0166846D02*
X0174300Y0166846D01*
X0174300Y0168445D02*
X0214300Y0168445D01*
X0214300Y0170043D02*
X0174300Y0170043D01*
X0174300Y0171642D02*
X0214300Y0171642D01*
X0214300Y0173240D02*
X0174300Y0173240D01*
X0174300Y0174839D02*
X0176800Y0174839D01*
X0176800Y0176437D02*
X0174300Y0176437D01*
X0174300Y0178036D02*
X0176800Y0178036D01*
X0176800Y0179634D02*
X0166800Y0179634D01*
X0166800Y0181233D02*
X0176800Y0181233D01*
X0176800Y0182832D02*
X0166800Y0182832D01*
X0166800Y0184430D02*
X0176800Y0184430D01*
X0176800Y0186029D02*
X0166800Y0186029D01*
X0166800Y0187627D02*
X0176800Y0187627D01*
X0176800Y0189226D02*
X0166800Y0189226D01*
X0166800Y0190824D02*
X0176800Y0190824D01*
X0176800Y0192423D02*
X0166800Y0192423D01*
X0166800Y0194021D02*
X0176800Y0194021D01*
X0176800Y0195620D02*
X0166800Y0195620D01*
X0174300Y0194300D02*
X0174300Y0199359D01*
X0175402Y0200461D01*
X0175402Y0203020D02*
X0180580Y0203020D01*
X0181800Y0201800D01*
X0181800Y0199300D01*
X0179854Y0198996D02*
X0179854Y0201800D01*
X0184300Y0201800D01*
X0184300Y0176800D01*
X0179300Y0176800D01*
X0179300Y0198442D01*
X0179854Y0198996D01*
X0179674Y0198817D02*
X0184300Y0198817D01*
X0184300Y0200415D02*
X0179854Y0200415D01*
X0179300Y0197218D02*
X0184300Y0197218D01*
X0184300Y0195620D02*
X0179300Y0195620D01*
X0179300Y0194021D02*
X0184300Y0194021D01*
X0184300Y0192423D02*
X0179300Y0192423D01*
X0179300Y0190824D02*
X0184300Y0190824D01*
X0184300Y0189226D02*
X0179300Y0189226D01*
X0179300Y0187627D02*
X0184300Y0187627D01*
X0184300Y0186029D02*
X0179300Y0186029D01*
X0179300Y0184430D02*
X0184300Y0184430D01*
X0184300Y0182832D02*
X0179300Y0182832D01*
X0179300Y0181233D02*
X0184300Y0181233D01*
X0184300Y0179634D02*
X0179300Y0179634D01*
X0179300Y0178036D02*
X0184300Y0178036D01*
X0186800Y0178036D02*
X0214300Y0178036D01*
X0214300Y0179634D02*
X0186800Y0179634D01*
X0186800Y0181233D02*
X0214300Y0181233D01*
X0214300Y0182832D02*
X0186800Y0182832D01*
X0186800Y0184430D02*
X0214300Y0184430D01*
X0214300Y0186029D02*
X0186800Y0186029D01*
X0186800Y0187627D02*
X0214300Y0187627D01*
X0214300Y0189226D02*
X0186800Y0189226D01*
X0186800Y0190824D02*
X0214300Y0190824D01*
X0214300Y0192423D02*
X0186800Y0192423D01*
X0186800Y0194021D02*
X0214300Y0194021D01*
X0214300Y0195620D02*
X0186800Y0195620D01*
X0188820Y0197218D02*
X0189780Y0197218D01*
X0189780Y0196594D02*
X0192490Y0196594D01*
X0192948Y0196717D01*
X0193358Y0196954D01*
X0193693Y0197289D01*
X0193930Y0197700D01*
X0194053Y0198158D01*
X0194053Y0200474D01*
X0189780Y0200474D01*
X0189780Y0196594D01*
X0189780Y0198817D02*
X0188820Y0198817D01*
X0188820Y0200415D02*
X0189780Y0200415D01*
X0194053Y0200415D02*
X0194547Y0200415D01*
X0194547Y0198817D02*
X0194053Y0198817D01*
X0193622Y0197218D02*
X0194978Y0197218D01*
X0198820Y0197218D02*
X0199780Y0197218D01*
X0199780Y0196594D02*
X0202490Y0196594D01*
X0202948Y0196717D01*
X0203358Y0196954D01*
X0203693Y0197289D01*
X0203930Y0197700D01*
X0204053Y0198158D01*
X0204053Y0200474D01*
X0199780Y0200474D01*
X0199780Y0196594D01*
X0199780Y0198817D02*
X0198820Y0198817D01*
X0198820Y0200415D02*
X0199780Y0200415D01*
X0204053Y0200415D02*
X0204547Y0200415D01*
X0204547Y0198817D02*
X0204053Y0198817D01*
X0203622Y0197218D02*
X0204978Y0197218D01*
X0208820Y0197218D02*
X0209780Y0197218D01*
X0209780Y0196594D02*
X0212490Y0196594D01*
X0212948Y0196717D01*
X0213358Y0196954D01*
X0213693Y0197289D01*
X0213930Y0197700D01*
X0214053Y0198158D01*
X0214053Y0200474D01*
X0209780Y0200474D01*
X0209780Y0196594D01*
X0209780Y0198817D02*
X0208820Y0198817D01*
X0208820Y0200415D02*
X0209780Y0200415D01*
X0214053Y0200415D02*
X0214300Y0200415D01*
X0214300Y0198817D02*
X0214053Y0198817D01*
X0214300Y0197218D02*
X0213622Y0197218D01*
X0214053Y0202014D02*
X0214300Y0202014D01*
X0214300Y0203612D02*
X0214053Y0203612D01*
X0214053Y0206809D02*
X0214300Y0206809D01*
X0214300Y0208408D02*
X0214053Y0208408D01*
X0214053Y0210006D02*
X0214300Y0210006D01*
X0214300Y0211605D02*
X0213399Y0211605D01*
X0214300Y0213203D02*
X0169300Y0213203D01*
X0171800Y0214300D02*
X0209300Y0214300D01*
X0211800Y0216800D01*
X0209780Y0211605D02*
X0208820Y0211605D01*
X0208820Y0212005D02*
X0206110Y0212005D01*
X0205652Y0211883D01*
X0205242Y0211646D01*
X0204907Y0211311D01*
X0204670Y0210900D01*
X0204547Y0210442D01*
X0204547Y0208126D01*
X0208820Y0208126D01*
X0208820Y0212005D01*
X0208820Y0210006D02*
X0209780Y0210006D01*
X0209780Y0208408D02*
X0208820Y0208408D01*
X0204547Y0208408D02*
X0204053Y0208408D01*
X0204053Y0210006D02*
X0204547Y0210006D01*
X0205201Y0211605D02*
X0203399Y0211605D01*
X0199780Y0211605D02*
X0198820Y0211605D01*
X0198820Y0212005D02*
X0196110Y0212005D01*
X0195652Y0211883D01*
X0195242Y0211646D01*
X0194907Y0211311D01*
X0194670Y0210900D01*
X0194547Y0210442D01*
X0194547Y0208126D01*
X0198820Y0208126D01*
X0198820Y0212005D01*
X0198820Y0210006D02*
X0199780Y0210006D01*
X0199780Y0208408D02*
X0198820Y0208408D01*
X0194547Y0208408D02*
X0194053Y0208408D01*
X0194053Y0210006D02*
X0194547Y0210006D01*
X0195201Y0211605D02*
X0193399Y0211605D01*
X0189780Y0211605D02*
X0188820Y0211605D01*
X0188820Y0212005D02*
X0186110Y0212005D01*
X0185652Y0211883D01*
X0185242Y0211646D01*
X0184907Y0211311D01*
X0184670Y0210900D01*
X0184547Y0210442D01*
X0184547Y0208126D01*
X0188820Y0208126D01*
X0188820Y0212005D01*
X0188820Y0210006D02*
X0189780Y0210006D01*
X0189780Y0208408D02*
X0188820Y0208408D01*
X0184547Y0208408D02*
X0179854Y0208408D01*
X0179854Y0206809D02*
X0184547Y0206809D01*
X0184547Y0210006D02*
X0179452Y0210006D01*
X0181800Y0209300D02*
X0180580Y0205580D01*
X0175402Y0205580D01*
X0176800Y0211605D02*
X0185201Y0211605D01*
X0194053Y0206809D02*
X0194547Y0206809D01*
X0194547Y0203612D02*
X0194053Y0203612D01*
X0194053Y0202014D02*
X0194547Y0202014D01*
X0204053Y0202014D02*
X0204547Y0202014D01*
X0204547Y0203612D02*
X0204053Y0203612D01*
X0204053Y0206809D02*
X0204547Y0206809D01*
X0229300Y0188040D02*
X0239300Y0188040D01*
X0236800Y0190540D01*
X0236800Y0194300D01*
X0241800Y0196800D02*
X0244300Y0196800D01*
X0244300Y0181800D01*
X0243060Y0180560D01*
X0239300Y0180560D01*
X0239300Y0176800D01*
X0241800Y0174300D01*
X0241800Y0169300D01*
X0233060Y0160560D01*
X0229300Y0160560D01*
X0231800Y0154300D02*
X0226800Y0149300D01*
X0226800Y0144300D01*
X0231800Y0139300D01*
X0231800Y0129300D01*
X0234300Y0126800D01*
X0234300Y0106800D01*
X0241800Y0099300D01*
X0259300Y0099300D01*
X0261800Y0096800D01*
X0263646Y0101800D02*
X0263740Y0101895D01*
X0263977Y0102305D01*
X0264100Y0102763D01*
X0264100Y0104300D01*
X0264100Y0104480D01*
X0264537Y0104043D01*
X0265118Y0103654D01*
X0265764Y0103386D01*
X0266450Y0103250D01*
X0266800Y0103250D01*
X0267150Y0103250D01*
X0267835Y0103386D01*
X0268482Y0103654D01*
X0269063Y0104043D01*
X0269300Y0104280D01*
X0269537Y0104043D01*
X0270118Y0103654D01*
X0270764Y0103386D01*
X0271450Y0103250D01*
X0271800Y0103250D01*
X0272150Y0103250D01*
X0272835Y0103386D01*
X0273482Y0103654D01*
X0274063Y0104043D01*
X0274300Y0104280D01*
X0274537Y0104043D01*
X0275118Y0103654D01*
X0275764Y0103386D01*
X0276450Y0103250D01*
X0276800Y0103250D01*
X0276800Y0106800D01*
X0276800Y0106800D01*
X0276800Y0108250D01*
X0276800Y0111800D01*
X0279300Y0111800D01*
X0279300Y0111800D01*
X0276800Y0111800D01*
X0276800Y0111800D01*
X0276800Y0111800D01*
X0276800Y0116800D01*
X0276800Y0116800D01*
X0276800Y0120350D01*
X0277150Y0120350D01*
X0277835Y0120214D01*
X0278482Y0119946D01*
X0279063Y0119557D01*
X0279300Y0119320D01*
X0279300Y0129280D01*
X0279063Y0129043D01*
X0278482Y0128654D01*
X0277835Y0128386D01*
X0277150Y0128250D01*
X0276800Y0128250D01*
X0276800Y0131800D01*
X0276800Y0131800D01*
X0276800Y0133250D01*
X0276800Y0136800D01*
X0279300Y0136800D01*
X0279300Y0136800D01*
X0276800Y0136800D01*
X0276800Y0136800D01*
X0276800Y0136800D01*
X0276800Y0141800D01*
X0276800Y0141800D01*
X0276800Y0145350D01*
X0277150Y0145350D01*
X0277835Y0145214D01*
X0278482Y0144946D01*
X0279063Y0144557D01*
X0279300Y0144320D01*
X0279300Y0154280D01*
X0279063Y0154043D01*
X0278482Y0153654D01*
X0277835Y0153386D01*
X0277150Y0153250D01*
X0276800Y0153250D01*
X0276800Y0156800D01*
X0276800Y0156800D01*
X0276800Y0158250D01*
X0276800Y0161800D01*
X0276800Y0161800D01*
X0276800Y0166800D01*
X0276800Y0166800D01*
X0276800Y0170350D01*
X0277150Y0170350D01*
X0277835Y0170214D01*
X0278482Y0169946D01*
X0279063Y0169557D01*
X0279300Y0169320D01*
X0279300Y0171800D01*
X0263646Y0171800D01*
X0263740Y0171705D01*
X0263977Y0171295D01*
X0264100Y0170837D01*
X0264100Y0169300D01*
X0259800Y0169300D01*
X0259800Y0169300D01*
X0264100Y0169300D01*
X0264100Y0169120D01*
X0264537Y0169557D01*
X0265118Y0169946D01*
X0265764Y0170214D01*
X0266450Y0170350D01*
X0266800Y0170350D01*
X0266800Y0166800D01*
X0266800Y0166800D01*
X0271800Y0166800D01*
X0276800Y0166800D01*
X0276800Y0166800D01*
X0276800Y0166800D01*
X0276800Y0170350D01*
X0276450Y0170350D01*
X0275764Y0170214D01*
X0275118Y0169946D01*
X0274537Y0169557D01*
X0274300Y0169320D01*
X0274063Y0169557D01*
X0273482Y0169946D01*
X0272835Y0170214D01*
X0272150Y0170350D01*
X0271800Y0170350D01*
X0271800Y0166800D01*
X0271800Y0166800D01*
X0271800Y0166800D01*
X0273250Y0166800D01*
X0276800Y0166800D01*
X0276800Y0165350D01*
X0276800Y0161800D01*
X0279300Y0161800D01*
X0279300Y0161800D01*
X0276800Y0161800D01*
X0276800Y0161800D01*
X0276800Y0161800D01*
X0275350Y0161800D01*
X0271800Y0161800D01*
X0271800Y0161800D01*
X0271800Y0161800D01*
X0271800Y0166800D01*
X0271800Y0166800D01*
X0271800Y0170350D01*
X0271450Y0170350D01*
X0270764Y0170214D01*
X0270118Y0169946D01*
X0269537Y0169557D01*
X0269300Y0169320D01*
X0269063Y0169557D01*
X0268482Y0169946D01*
X0267835Y0170214D01*
X0267150Y0170350D01*
X0266800Y0170350D01*
X0266800Y0166800D01*
X0266800Y0166800D01*
X0266800Y0161800D01*
X0266800Y0161800D01*
X0270350Y0161800D01*
X0271800Y0161800D01*
X0276800Y0161800D01*
X0276800Y0161800D01*
X0276800Y0156800D01*
X0276800Y0156800D01*
X0271800Y0156800D01*
X0271800Y0156800D01*
X0271800Y0156800D01*
X0271800Y0161800D01*
X0271800Y0165350D01*
X0271800Y0166800D01*
X0271800Y0166800D01*
X0268250Y0166800D01*
X0266800Y0166800D01*
X0266800Y0166800D01*
X0266800Y0165350D01*
X0266800Y0161800D01*
X0266800Y0161800D01*
X0266800Y0156800D01*
X0271800Y0156800D01*
X0273250Y0156800D01*
X0276800Y0156800D01*
X0276800Y0156800D01*
X0276800Y0153250D01*
X0276450Y0153250D01*
X0275764Y0153386D01*
X0275118Y0153654D01*
X0274537Y0154043D01*
X0274300Y0154280D01*
X0274063Y0154043D01*
X0273482Y0153654D01*
X0272835Y0153386D01*
X0272150Y0153250D01*
X0271800Y0153250D01*
X0271800Y0156800D01*
X0271800Y0156800D01*
X0271800Y0156800D01*
X0271800Y0158250D01*
X0271800Y0161800D01*
X0271800Y0161800D01*
X0271800Y0161800D01*
X0266800Y0161800D01*
X0266800Y0161800D01*
X0266800Y0160350D01*
X0266800Y0156800D01*
X0266800Y0156800D01*
X0266800Y0156800D01*
X0266800Y0153250D01*
X0267150Y0153250D01*
X0267835Y0153386D01*
X0268482Y0153654D01*
X0269063Y0154043D01*
X0269300Y0154280D01*
X0269537Y0154043D01*
X0270118Y0153654D01*
X0270764Y0153386D01*
X0271450Y0153250D01*
X0271800Y0153250D01*
X0271800Y0156800D01*
X0268250Y0156800D01*
X0266800Y0156800D01*
X0266800Y0156800D01*
X0266800Y0153250D01*
X0266450Y0153250D01*
X0265764Y0153386D01*
X0265118Y0153654D01*
X0264537Y0154043D01*
X0264100Y0154480D01*
X0264100Y0154300D01*
X0259800Y0154300D01*
X0259800Y0154300D01*
X0259800Y0154300D01*
X0259800Y0159300D01*
X0264100Y0159300D01*
X0264100Y0159480D01*
X0264280Y0159300D01*
X0264100Y0159120D01*
X0264100Y0159300D01*
X0259800Y0159300D01*
X0259800Y0159300D01*
X0259800Y0159300D01*
X0259800Y0164300D01*
X0264100Y0164300D01*
X0264100Y0164480D01*
X0264280Y0164300D01*
X0264100Y0164120D01*
X0264100Y0164300D01*
X0259800Y0164300D01*
X0259800Y0164300D01*
X0259800Y0164300D01*
X0259800Y0169300D01*
X0259800Y0169300D01*
X0259800Y0167400D01*
X0259800Y0164300D01*
X0259800Y0164300D01*
X0259800Y0162400D01*
X0259800Y0159300D01*
X0259800Y0159300D01*
X0259800Y0157400D01*
X0259800Y0154300D01*
X0264100Y0154300D01*
X0264100Y0152763D01*
X0263977Y0152305D01*
X0263740Y0151895D01*
X0263405Y0151560D01*
X0262995Y0151323D01*
X0262537Y0151200D01*
X0259800Y0151200D01*
X0259800Y0154300D01*
X0259800Y0154300D01*
X0259800Y0151200D01*
X0257063Y0151200D01*
X0256800Y0151270D01*
X0256800Y0147330D01*
X0257063Y0147400D01*
X0259800Y0147400D01*
X0259800Y0144300D01*
X0259800Y0144300D01*
X0264100Y0144300D01*
X0264100Y0145837D01*
X0263977Y0146295D01*
X0263740Y0146705D01*
X0263405Y0147040D01*
X0262995Y0147277D01*
X0262537Y0147400D01*
X0259800Y0147400D01*
X0259800Y0144300D01*
X0259800Y0144300D01*
X0264100Y0144300D01*
X0264100Y0144120D01*
X0264537Y0144557D01*
X0265118Y0144946D01*
X0265764Y0145214D01*
X0266450Y0145350D01*
X0266800Y0145350D01*
X0266800Y0141800D01*
X0266800Y0141800D01*
X0271800Y0141800D01*
X0271800Y0141800D01*
X0271800Y0145350D01*
X0272150Y0145350D01*
X0272835Y0145214D01*
X0273482Y0144946D01*
X0274063Y0144557D01*
X0274300Y0144320D01*
X0274537Y0144557D01*
X0275118Y0144946D01*
X0275764Y0145214D01*
X0276450Y0145350D01*
X0276800Y0145350D01*
X0276800Y0141800D01*
X0276800Y0141800D01*
X0276800Y0141800D01*
X0271800Y0141800D01*
X0271800Y0141800D01*
X0271800Y0145350D01*
X0271450Y0145350D01*
X0270764Y0145214D01*
X0270118Y0144946D01*
X0269537Y0144557D01*
X0269300Y0144320D01*
X0269063Y0144557D01*
X0268482Y0144946D01*
X0267835Y0145214D01*
X0267150Y0145350D01*
X0266800Y0145350D01*
X0266800Y0141800D01*
X0266800Y0141800D01*
X0268250Y0141800D01*
X0271800Y0141800D01*
X0271800Y0141800D01*
X0271800Y0136800D01*
X0271800Y0136800D01*
X0275350Y0136800D01*
X0276800Y0136800D01*
X0276800Y0136800D01*
X0276800Y0136800D01*
X0276800Y0140350D01*
X0276800Y0141800D01*
X0273250Y0141800D01*
X0271800Y0141800D01*
X0271800Y0141800D01*
X0271800Y0140350D01*
X0271800Y0136800D01*
X0271800Y0136800D01*
X0271800Y0136800D01*
X0270350Y0136800D01*
X0266800Y0136800D01*
X0266800Y0136800D01*
X0266800Y0136800D01*
X0266800Y0141800D01*
X0266800Y0141800D01*
X0266800Y0140350D01*
X0266800Y0136800D01*
X0271800Y0136800D01*
X0271800Y0131800D01*
X0271800Y0131800D01*
X0276800Y0131800D01*
X0276800Y0136800D01*
X0271800Y0136800D01*
X0271800Y0136800D01*
X0271800Y0133250D01*
X0271800Y0131800D01*
X0271800Y0131800D01*
X0271800Y0131800D01*
X0266800Y0131800D01*
X0266800Y0131800D01*
X0266800Y0136800D01*
X0266800Y0136800D01*
X0266800Y0133250D01*
X0266800Y0131800D01*
X0266800Y0131800D01*
X0268250Y0131800D01*
X0271800Y0131800D01*
X0273250Y0131800D01*
X0276800Y0131800D01*
X0276800Y0131800D01*
X0276800Y0131800D01*
X0276800Y0128250D01*
X0276450Y0128250D01*
X0275764Y0128386D01*
X0275118Y0128654D01*
X0274537Y0129043D01*
X0274300Y0129280D01*
X0274063Y0129043D01*
X0273482Y0128654D01*
X0272835Y0128386D01*
X0272150Y0128250D01*
X0271800Y0128250D01*
X0271800Y0131800D01*
X0271800Y0131800D01*
X0271800Y0128250D01*
X0271450Y0128250D01*
X0270764Y0128386D01*
X0270118Y0128654D01*
X0269537Y0129043D01*
X0269300Y0129280D01*
X0269063Y0129043D01*
X0268482Y0128654D01*
X0267835Y0128386D01*
X0267150Y0128250D01*
X0266800Y0128250D01*
X0266800Y0131800D01*
X0266800Y0131800D01*
X0266800Y0128250D01*
X0266450Y0128250D01*
X0265764Y0128386D01*
X0265118Y0128654D01*
X0264537Y0129043D01*
X0264100Y0129480D01*
X0264100Y0129300D01*
X0259800Y0129300D01*
X0259800Y0129300D01*
X0259800Y0134300D01*
X0259800Y0134300D01*
X0259800Y0139300D01*
X0259800Y0139300D01*
X0259800Y0144300D01*
X0259800Y0144300D01*
X0259800Y0142400D01*
X0259800Y0139300D01*
X0264100Y0139300D01*
X0264100Y0139480D01*
X0264280Y0139300D01*
X0264100Y0139120D01*
X0264100Y0139300D01*
X0259800Y0139300D01*
X0259800Y0139300D01*
X0259800Y0139300D01*
X0259800Y0137400D01*
X0259800Y0134300D01*
X0264100Y0134300D01*
X0264100Y0134480D01*
X0264280Y0134300D01*
X0264100Y0134120D01*
X0264100Y0134300D01*
X0259800Y0134300D01*
X0259800Y0134300D01*
X0259800Y0134300D01*
X0259800Y0131200D01*
X0259800Y0129300D01*
X0259800Y0129300D01*
X0264100Y0129300D01*
X0264100Y0127763D01*
X0263977Y0127305D01*
X0263740Y0126895D01*
X0263405Y0126560D01*
X0262995Y0126323D01*
X0262537Y0126200D01*
X0259800Y0126200D01*
X0259800Y0129300D01*
X0259800Y0129300D01*
X0259800Y0126200D01*
X0257063Y0126200D01*
X0256800Y0126270D01*
X0256800Y0122330D01*
X0257063Y0122400D01*
X0259800Y0122400D01*
X0259800Y0119300D01*
X0259800Y0119300D01*
X0264100Y0119300D01*
X0264100Y0120837D01*
X0263977Y0121295D01*
X0263740Y0121705D01*
X0263405Y0122040D01*
X0262995Y0122277D01*
X0262537Y0122400D01*
X0259800Y0122400D01*
X0259800Y0119300D01*
X0259800Y0119300D01*
X0259800Y0114300D01*
X0259800Y0114300D01*
X0264100Y0114300D01*
X0264100Y0114480D01*
X0264280Y0114300D01*
X0264100Y0114120D01*
X0264100Y0114300D01*
X0259800Y0114300D01*
X0259800Y0114300D01*
X0259800Y0109300D01*
X0264280Y0109300D01*
X0264100Y0109120D01*
X0264100Y0109300D01*
X0264100Y0109480D01*
X0264280Y0109300D01*
X0264100Y0109300D02*
X0259800Y0109300D01*
X0259800Y0109300D01*
X0259800Y0109300D01*
X0259800Y0104300D01*
X0259800Y0104300D01*
X0264100Y0104300D01*
X0259800Y0104300D01*
X0259800Y0104300D01*
X0259800Y0107400D01*
X0259800Y0109300D01*
X0259800Y0109300D01*
X0259800Y0112400D01*
X0259800Y0114300D01*
X0259800Y0114300D01*
X0259800Y0117400D01*
X0259800Y0119300D01*
X0259800Y0119300D01*
X0264100Y0119300D01*
X0264100Y0119120D01*
X0264537Y0119557D01*
X0265118Y0119946D01*
X0265764Y0120214D01*
X0266450Y0120350D01*
X0266800Y0120350D01*
X0266800Y0116800D01*
X0271800Y0116800D01*
X0271800Y0116800D01*
X0271800Y0120350D01*
X0272150Y0120350D01*
X0272835Y0120214D01*
X0273482Y0119946D01*
X0274063Y0119557D01*
X0274300Y0119320D01*
X0274537Y0119557D01*
X0275118Y0119946D01*
X0275764Y0120214D01*
X0276450Y0120350D01*
X0276800Y0120350D01*
X0276800Y0116800D01*
X0276800Y0116800D01*
X0276800Y0116800D01*
X0271800Y0116800D01*
X0271800Y0116800D01*
X0271800Y0116800D01*
X0271800Y0120350D01*
X0271450Y0120350D01*
X0270764Y0120214D01*
X0270118Y0119946D01*
X0269537Y0119557D01*
X0269300Y0119320D01*
X0269063Y0119557D01*
X0268482Y0119946D01*
X0267835Y0120214D01*
X0267150Y0120350D01*
X0266800Y0120350D01*
X0266800Y0116800D01*
X0266800Y0116800D01*
X0266800Y0116800D01*
X0268250Y0116800D01*
X0271800Y0116800D01*
X0271800Y0111800D01*
X0271800Y0111800D01*
X0275350Y0111800D01*
X0276800Y0111800D01*
X0276800Y0111800D01*
X0276800Y0111800D01*
X0276800Y0115350D01*
X0276800Y0116800D01*
X0273250Y0116800D01*
X0271800Y0116800D01*
X0271800Y0116800D01*
X0271800Y0115350D01*
X0271800Y0111800D01*
X0271800Y0111800D01*
X0271800Y0111800D01*
X0270350Y0111800D01*
X0266800Y0111800D01*
X0266800Y0111800D01*
X0266800Y0111800D01*
X0266800Y0116800D01*
X0266800Y0116800D01*
X0266800Y0115350D01*
X0266800Y0111800D01*
X0271800Y0111800D01*
X0271800Y0106800D01*
X0271800Y0106800D01*
X0276800Y0106800D01*
X0276800Y0111800D01*
X0271800Y0111800D01*
X0271800Y0111800D01*
X0271800Y0108250D01*
X0271800Y0106800D01*
X0271800Y0106800D01*
X0271800Y0106800D01*
X0266800Y0106800D01*
X0266800Y0106800D01*
X0266800Y0111800D01*
X0266800Y0111800D01*
X0266800Y0110350D01*
X0266800Y0106800D01*
X0266800Y0106800D01*
X0268250Y0106800D01*
X0271800Y0106800D01*
X0271800Y0103250D01*
X0271800Y0106800D01*
X0271800Y0106800D01*
X0273250Y0106800D01*
X0276800Y0106800D01*
X0276800Y0106800D01*
X0276800Y0106800D01*
X0276800Y0103250D01*
X0277150Y0103250D01*
X0277835Y0103386D01*
X0278482Y0103654D01*
X0279063Y0104043D01*
X0279300Y0104280D01*
X0279300Y0101800D01*
X0263646Y0101800D01*
X0264100Y0102906D02*
X0279300Y0102906D01*
X0276800Y0104504D02*
X0276800Y0104504D01*
X0276800Y0106103D02*
X0276800Y0106103D01*
X0276800Y0107701D02*
X0276800Y0107701D01*
X0276800Y0109300D02*
X0276800Y0109300D01*
X0276800Y0110899D02*
X0276800Y0110899D01*
X0276800Y0112497D02*
X0276800Y0112497D01*
X0276800Y0114096D02*
X0276800Y0114096D01*
X0276800Y0115694D02*
X0276800Y0115694D01*
X0276800Y0117293D02*
X0276800Y0117293D01*
X0276800Y0118891D02*
X0276800Y0118891D01*
X0279300Y0120490D02*
X0264100Y0120490D01*
X0263323Y0122088D02*
X0279300Y0122088D01*
X0279300Y0123687D02*
X0256800Y0123687D01*
X0256800Y0125285D02*
X0279300Y0125285D01*
X0279300Y0126884D02*
X0263729Y0126884D01*
X0264100Y0128482D02*
X0265533Y0128482D01*
X0266800Y0128482D02*
X0266800Y0128482D01*
X0244300Y0128482D01*
X0244300Y0126884D02*
X0266800Y0126884D01*
X0266800Y0125285D02*
X0244300Y0125285D01*
X0244300Y0123687D02*
X0266800Y0123687D01*
X0266800Y0122088D02*
X0244300Y0122088D01*
X0244300Y0120490D02*
X0266800Y0120490D01*
X0266800Y0118891D02*
X0266800Y0118891D01*
X0244300Y0118891D01*
X0244300Y0117293D02*
X0266800Y0117293D01*
X0266800Y0117293D01*
X0266800Y0115694D02*
X0266800Y0115694D01*
X0244300Y0115694D01*
X0244300Y0114096D02*
X0266800Y0114096D01*
X0266800Y0114096D01*
X0266800Y0112497D02*
X0266800Y0112497D01*
X0244300Y0112497D01*
X0244300Y0110899D02*
X0266800Y0110899D01*
X0266800Y0110899D01*
X0266800Y0109300D02*
X0266800Y0109300D01*
X0244300Y0109300D01*
X0244300Y0107701D02*
X0266800Y0107701D01*
X0266800Y0107701D01*
X0266800Y0106800D02*
X0266800Y0103250D01*
X0266800Y0106800D01*
X0266800Y0106800D01*
X0266800Y0106103D02*
X0266800Y0106103D01*
X0244300Y0106103D01*
X0244300Y0104504D02*
X0266800Y0104504D01*
X0266800Y0104504D01*
X0266800Y0102906D02*
X0244300Y0102906D01*
X0244300Y0101800D02*
X0244300Y0178689D01*
X0245211Y0179600D01*
X0246500Y0180889D01*
X0246500Y0196800D01*
X0261420Y0196800D01*
X0260800Y0196180D01*
X0260800Y0181580D01*
X0260380Y0182000D01*
X0254220Y0182000D01*
X0253400Y0181180D01*
X0253400Y0177420D01*
X0253442Y0177378D01*
X0252503Y0176989D01*
X0251611Y0176097D01*
X0251128Y0174931D01*
X0251128Y0173669D01*
X0251611Y0172503D01*
X0252503Y0171611D01*
X0253669Y0171128D01*
X0254931Y0171128D01*
X0256097Y0171611D01*
X0256989Y0172503D01*
X0257472Y0173669D01*
X0257472Y0174360D01*
X0259500Y0176389D01*
X0259500Y0176600D01*
X0260380Y0176600D01*
X0261000Y0177220D01*
X0261620Y0176600D01*
X0266800Y0176600D01*
X0266800Y0101800D01*
X0244300Y0101800D01*
X0250300Y0088300D02*
X0250300Y0072314D01*
X0252612Y0072314D01*
X0244366Y0072314D01*
X0243546Y0071494D01*
X0243546Y0068300D01*
X0230300Y0068300D01*
X0230300Y0075800D01*
X0340300Y0075800D01*
X0340300Y0068300D01*
X0338432Y0068300D01*
X0338432Y0071494D01*
X0337612Y0072314D01*
X0329366Y0072314D01*
X0328546Y0071494D01*
X0328546Y0069300D01*
X0316800Y0069300D01*
X0316800Y0076800D01*
X0341800Y0076800D01*
X0341800Y0069300D01*
X0338432Y0069300D01*
X0338432Y0071494D01*
X0337612Y0072314D01*
X0329366Y0072314D01*
X0328546Y0071494D01*
X0328546Y0068300D01*
X0312054Y0068300D01*
X0312054Y0071494D01*
X0311234Y0072314D01*
X0302988Y0072314D01*
X0302168Y0071494D01*
X0302168Y0068300D01*
X0295932Y0068300D01*
X0295932Y0071494D01*
X0295112Y0072314D01*
X0286866Y0072314D01*
X0286046Y0071494D01*
X0286046Y0068300D01*
X0269554Y0068300D01*
X0269554Y0071494D01*
X0268734Y0072314D01*
X0260488Y0072314D01*
X0259668Y0071494D01*
X0259668Y0068300D01*
X0253432Y0068300D01*
X0253432Y0071494D01*
X0252612Y0072314D01*
X0244366Y0072314D01*
X0243546Y0071494D01*
X0243546Y0068300D01*
X0227054Y0068300D01*
X0227054Y0071494D01*
X0226234Y0072314D01*
X0217988Y0072314D01*
X0217168Y0071494D01*
X0217168Y0068300D01*
X0210932Y0068300D01*
X0210932Y0071494D01*
X0210300Y0072126D01*
X0210300Y0075800D01*
X0320300Y0075800D01*
X0320300Y0068300D01*
X0312054Y0068300D01*
X0312054Y0071494D01*
X0311234Y0072314D01*
X0302988Y0072314D01*
X0302168Y0071494D01*
X0302168Y0068300D01*
X0295932Y0068300D01*
X0295932Y0071494D01*
X0295112Y0072314D01*
X0286866Y0072314D01*
X0286046Y0071494D01*
X0286046Y0068300D01*
X0269554Y0068300D01*
X0269554Y0071494D01*
X0268734Y0072314D01*
X0260488Y0072314D01*
X0259668Y0071494D01*
X0259668Y0068300D01*
X0253432Y0068300D01*
X0253432Y0071494D01*
X0252612Y0072314D01*
X0253432Y0071494D01*
X0253432Y0068300D01*
X0259668Y0068300D01*
X0259668Y0071494D01*
X0260488Y0072314D01*
X0268734Y0072314D01*
X0269554Y0071494D01*
X0269554Y0068300D01*
X0277800Y0068300D01*
X0277800Y0078974D01*
X0277778Y0078996D01*
X0277778Y0088300D01*
X0250300Y0088300D01*
X0250300Y0086921D02*
X0277778Y0086921D01*
X0277778Y0085322D02*
X0250300Y0085322D01*
X0250300Y0083724D02*
X0277778Y0083724D01*
X0277778Y0082125D02*
X0250300Y0082125D01*
X0250300Y0080527D02*
X0277778Y0080527D01*
X0277800Y0078928D02*
X0250300Y0078928D01*
X0250300Y0077330D02*
X0277800Y0077330D01*
X0277800Y0075731D02*
X0250300Y0075731D01*
X0250300Y0074133D02*
X0277800Y0074133D01*
X0277800Y0072534D02*
X0250300Y0072534D01*
X0253432Y0070936D02*
X0259668Y0070936D01*
X0253432Y0070936D01*
X0259668Y0070936D01*
X0259668Y0069337D02*
X0253432Y0069337D01*
X0259668Y0069337D01*
X0253432Y0069337D01*
X0243546Y0069337D02*
X0230300Y0069337D01*
X0230300Y0070936D02*
X0243546Y0070936D01*
X0227054Y0070936D01*
X0235300Y0070936D01*
X0235300Y0072534D02*
X0210300Y0072534D01*
X0320300Y0072534D01*
X0292800Y0072534D01*
X0292800Y0072314D02*
X0292800Y0084123D01*
X0295377Y0086700D01*
X0304352Y0086700D01*
X0304777Y0086276D01*
X0306738Y0085463D01*
X0308862Y0085463D01*
X0310823Y0086276D01*
X0312324Y0087777D01*
X0312541Y0088300D01*
X0320278Y0088300D01*
X0320278Y0078996D01*
X0320300Y0078974D01*
X0320300Y0068300D01*
X0312054Y0068300D01*
X0312054Y0071494D01*
X0311234Y0072314D01*
X0302988Y0072314D01*
X0302168Y0071494D01*
X0302168Y0068300D01*
X0295932Y0068300D01*
X0295932Y0071494D01*
X0295112Y0072314D01*
X0292800Y0072314D01*
X0292800Y0074133D02*
X0320300Y0074133D01*
X0210300Y0074133D01*
X0235300Y0074133D01*
X0235300Y0075731D02*
X0210300Y0075731D01*
X0320300Y0075731D01*
X0292800Y0075731D01*
X0292800Y0077330D02*
X0320300Y0077330D01*
X0320300Y0078928D02*
X0292800Y0078928D01*
X0292800Y0080527D02*
X0320278Y0080527D01*
X0320278Y0082125D02*
X0292800Y0082125D01*
X0292800Y0083724D02*
X0320278Y0083724D01*
X0320278Y0085322D02*
X0293999Y0085322D01*
X0311469Y0086921D02*
X0320278Y0086921D01*
X0322800Y0088300D02*
X0322800Y0084753D01*
X0323253Y0084300D01*
X0332800Y0083724D02*
X0360300Y0083724D01*
X0360300Y0085322D02*
X0332800Y0085322D01*
X0332800Y0086921D02*
X0360300Y0086921D01*
X0360300Y0088300D02*
X0360300Y0068300D01*
X0354554Y0068300D01*
X0354554Y0071494D01*
X0353734Y0072314D01*
X0345488Y0072314D01*
X0344668Y0071494D01*
X0344668Y0068300D01*
X0338432Y0068300D01*
X0338432Y0071494D01*
X0337612Y0072314D01*
X0332800Y0072314D01*
X0332800Y0088300D01*
X0360300Y0088300D01*
X0360300Y0082125D02*
X0332800Y0082125D01*
X0332800Y0080527D02*
X0360300Y0080527D01*
X0360300Y0078928D02*
X0332800Y0078928D01*
X0332800Y0077330D02*
X0360300Y0077330D01*
X0360300Y0075731D02*
X0332800Y0075731D01*
X0332800Y0074133D02*
X0360300Y0074133D01*
X0360300Y0072534D02*
X0332800Y0072534D01*
X0328546Y0070936D02*
X0316800Y0070936D01*
X0316800Y0072534D02*
X0341800Y0072534D01*
X0340300Y0072534D02*
X0230300Y0072534D01*
X0230300Y0074133D02*
X0340300Y0074133D01*
X0341800Y0074133D02*
X0316800Y0074133D01*
X0316800Y0075731D02*
X0341800Y0075731D01*
X0340300Y0075731D02*
X0230300Y0075731D01*
X0235300Y0077330D02*
X0210300Y0077330D01*
X0210300Y0078928D02*
X0235300Y0078928D01*
X0235300Y0078974D02*
X0235300Y0068300D01*
X0227054Y0068300D01*
X0227054Y0071494D01*
X0226234Y0072314D01*
X0217988Y0072314D01*
X0217168Y0071494D01*
X0217168Y0068300D01*
X0210932Y0068300D01*
X0210932Y0071494D01*
X0210300Y0072126D01*
X0210300Y0088200D01*
X0211723Y0088200D01*
X0212638Y0087285D01*
X0212463Y0086862D01*
X0212463Y0084738D01*
X0213276Y0082777D01*
X0214777Y0081276D01*
X0216738Y0080463D01*
X0218862Y0080463D01*
X0220823Y0081276D01*
X0222324Y0082777D01*
X0223137Y0084738D01*
X0223137Y0086700D01*
X0227317Y0086700D01*
X0228273Y0087096D01*
X0229004Y0087827D01*
X0229004Y0087827D01*
X0229477Y0088300D01*
X0234123Y0088300D01*
X0235278Y0087145D01*
X0235278Y0078996D01*
X0235300Y0078974D01*
X0235278Y0080527D02*
X0219016Y0080527D01*
X0216584Y0080527D02*
X0210300Y0080527D01*
X0210300Y0082125D02*
X0213927Y0082125D01*
X0212883Y0083724D02*
X0210300Y0083724D01*
X0210300Y0085322D02*
X0212463Y0085322D01*
X0212488Y0086921D02*
X0210300Y0086921D01*
X0221673Y0082125D02*
X0235278Y0082125D01*
X0235278Y0083724D02*
X0222717Y0083724D01*
X0223137Y0085322D02*
X0235278Y0085322D01*
X0235278Y0086921D02*
X0227850Y0086921D01*
X0237800Y0088300D02*
X0237800Y0084753D01*
X0224300Y0094300D02*
X0216800Y0101800D01*
X0159300Y0101800D01*
X0156800Y0099300D01*
X0162305Y0093628D02*
X0162431Y0093628D01*
X0163597Y0094111D01*
X0164489Y0095003D01*
X0164972Y0096169D01*
X0164972Y0096800D01*
X0191800Y0096800D01*
X0191800Y0090787D01*
X0191659Y0090824D01*
X0189847Y0090824D01*
X0188035Y0090824D01*
X0187578Y0090702D01*
X0187167Y0090465D01*
X0186832Y0090130D01*
X0186595Y0089719D01*
X0186472Y0089261D01*
X0186472Y0084300D01*
X0189847Y0084300D01*
X0189847Y0084300D01*
X0186472Y0084300D01*
X0186472Y0079339D01*
X0186483Y0079300D01*
X0157523Y0079300D01*
X0157533Y0079339D01*
X0157533Y0084300D01*
X0157533Y0089261D01*
X0157410Y0089719D01*
X0157173Y0090130D01*
X0156838Y0090465D01*
X0156428Y0090702D01*
X0155970Y0090824D01*
X0154158Y0090824D01*
X0152346Y0090824D01*
X0151889Y0090702D01*
X0151478Y0090465D01*
X0151206Y0090192D01*
X0150933Y0090465D01*
X0150522Y0090702D01*
X0150065Y0090824D01*
X0148253Y0090824D01*
X0148253Y0084300D01*
X0151628Y0084300D01*
X0154158Y0084300D01*
X0154158Y0084300D01*
X0148253Y0084300D01*
X0148253Y0084300D01*
X0148253Y0084300D01*
X0154158Y0084300D01*
X0154158Y0090824D01*
X0154158Y0084300D01*
X0154158Y0084300D01*
X0157533Y0084300D01*
X0154158Y0084300D01*
X0154158Y0084300D01*
X0154158Y0085322D02*
X0154158Y0085322D01*
X0154158Y0086921D02*
X0154158Y0086921D01*
X0154158Y0088519D02*
X0154158Y0088519D01*
X0154158Y0090118D02*
X0154158Y0090118D01*
X0153783Y0091700D02*
X0159817Y0091700D01*
X0160773Y0092096D01*
X0161504Y0092827D01*
X0161504Y0092827D01*
X0162305Y0093628D01*
X0161992Y0093315D02*
X0191800Y0093315D01*
X0191800Y0094913D02*
X0164399Y0094913D01*
X0164972Y0096512D02*
X0191800Y0096512D01*
X0191800Y0091716D02*
X0159857Y0091716D01*
X0157180Y0090118D02*
X0186825Y0090118D01*
X0186472Y0088519D02*
X0157533Y0088519D01*
X0157533Y0086921D02*
X0186472Y0086921D01*
X0186472Y0085322D02*
X0157533Y0085322D01*
X0157533Y0083724D02*
X0186472Y0083724D01*
X0186472Y0082125D02*
X0157533Y0082125D01*
X0157533Y0080527D02*
X0186472Y0080527D01*
X0189847Y0084300D02*
X0189847Y0090824D01*
X0189847Y0084300D01*
X0189847Y0084300D01*
X0189847Y0085322D02*
X0189847Y0085322D01*
X0189847Y0086921D02*
X0189847Y0086921D01*
X0189847Y0088519D02*
X0189847Y0088519D01*
X0189847Y0090118D02*
X0189847Y0090118D01*
X0210932Y0070936D02*
X0217168Y0070936D01*
X0210932Y0070936D01*
X0210932Y0069337D02*
X0217168Y0069337D01*
X0210932Y0069337D01*
X0227054Y0069337D02*
X0243546Y0069337D01*
X0235300Y0069337D02*
X0227054Y0069337D01*
X0269554Y0069337D02*
X0286046Y0069337D01*
X0269554Y0069337D01*
X0277800Y0069337D01*
X0277800Y0070936D02*
X0269554Y0070936D01*
X0286046Y0070936D01*
X0269554Y0070936D01*
X0280753Y0084300D02*
X0280300Y0084753D01*
X0291800Y0096800D02*
X0301800Y0096800D01*
X0304300Y0099300D01*
X0309300Y0099300D01*
X0309300Y0101800D01*
X0309300Y0099300D02*
X0321800Y0099300D01*
X0321800Y0104300D01*
X0331800Y0104300D01*
X0331800Y0108300D01*
X0339300Y0114300D02*
X0341800Y0111800D01*
X0341800Y0108040D01*
X0339300Y0114300D02*
X0336800Y0114300D01*
X0332800Y0114300D01*
X0332800Y0119300D02*
X0339300Y0119300D01*
X0341800Y0116800D01*
X0341800Y0121800D02*
X0336800Y0121800D01*
X0334300Y0124300D01*
X0332800Y0124300D01*
X0336800Y0129300D02*
X0324300Y0129300D01*
X0324300Y0149300D01*
X0329300Y0154300D02*
X0331800Y0151800D01*
X0331800Y0150300D01*
X0332800Y0149300D01*
X0341800Y0149300D01*
X0344300Y0146800D01*
X0344300Y0144300D01*
X0339300Y0144300D02*
X0332800Y0144300D01*
X0332800Y0139300D02*
X0336800Y0139300D01*
X0332800Y0134300D02*
X0341800Y0134300D01*
X0349300Y0134300D01*
X0356800Y0133060D02*
X0358060Y0131800D01*
X0366800Y0131800D01*
X0366800Y0144300D02*
X0369300Y0146800D01*
X0369300Y0149300D01*
X0371800Y0151800D01*
X0376800Y0151800D01*
X0379300Y0154300D01*
X0379300Y0184300D01*
X0365300Y0184300D01*
X0364300Y0181650D02*
X0364300Y0169300D01*
X0359300Y0169300D01*
X0359300Y0154300D01*
X0346800Y0154300D01*
X0346800Y0171800D01*
X0337460Y0181140D01*
X0338597Y0181611D01*
X0339085Y0182100D01*
X0339770Y0182100D01*
X0340220Y0181650D01*
X0346380Y0181650D01*
X0347200Y0182470D01*
X0347200Y0186130D01*
X0346380Y0186950D01*
X0340220Y0186950D01*
X0339770Y0186500D01*
X0339085Y0186500D01*
X0338597Y0186989D01*
X0337431Y0187472D01*
X0336819Y0187472D01*
X0337137Y0188238D01*
X0337137Y0190362D01*
X0336800Y0191175D01*
X0336800Y0191800D01*
X0340070Y0191800D01*
X0340220Y0191650D01*
X0346380Y0191650D01*
X0346530Y0191800D01*
X0346800Y0191800D01*
X0356800Y0181800D01*
X0362070Y0181800D01*
X0362220Y0181650D01*
X0364300Y0181650D01*
X0364300Y0181233D02*
X0337684Y0181233D01*
X0338966Y0179634D02*
X0364300Y0179634D01*
X0365300Y0179300D02*
X0365300Y0179300D01*
X0369600Y0179300D01*
X0369600Y0180787D01*
X0369477Y0181245D01*
X0369240Y0181655D01*
X0369096Y0181800D01*
X0376800Y0181800D01*
X0376800Y0169300D01*
X0376117Y0169300D01*
X0376193Y0169376D01*
X0376430Y0169786D01*
X0376553Y0170244D01*
X0376553Y0172561D01*
X0372280Y0172561D01*
X0372280Y0173520D01*
X0376553Y0173520D01*
X0376553Y0175836D01*
X0376430Y0176294D01*
X0376193Y0176704D01*
X0375858Y0177040D01*
X0375448Y0177277D01*
X0374990Y0177399D01*
X0372280Y0177399D01*
X0372280Y0173520D01*
X0371320Y0173520D01*
X0371320Y0177399D01*
X0369489Y0177399D01*
X0369600Y0177813D01*
X0369600Y0179300D01*
X0365300Y0179300D01*
X0365300Y0179300D01*
X0365300Y0176250D01*
X0367158Y0176250D01*
X0367047Y0175836D01*
X0367047Y0174747D01*
X0366995Y0174777D01*
X0366537Y0174900D01*
X0363800Y0174900D01*
X0363800Y0171800D01*
X0363800Y0171800D01*
X0363800Y0174900D01*
X0361800Y0174900D01*
X0361800Y0176549D01*
X0362105Y0176373D01*
X0362563Y0176250D01*
X0365300Y0176250D01*
X0365300Y0179300D01*
X0365300Y0178036D02*
X0365300Y0178036D01*
X0364300Y0178036D02*
X0340564Y0178036D01*
X0339051Y0176437D02*
X0311800Y0176437D01*
X0311800Y0174839D02*
X0340650Y0174839D01*
X0342163Y0176437D02*
X0364300Y0176437D01*
X0365300Y0176437D02*
X0365300Y0176437D01*
X0364300Y0174839D02*
X0343761Y0174839D01*
X0342248Y0173240D02*
X0311800Y0173240D01*
X0311800Y0171642D02*
X0343300Y0171642D01*
X0343300Y0172189D02*
X0343300Y0159300D01*
X0343080Y0159300D01*
X0342880Y0159500D01*
X0336720Y0159500D01*
X0336520Y0159300D01*
X0331800Y0159300D01*
X0331800Y0164300D01*
X0311800Y0164300D01*
X0311800Y0184300D01*
X0312425Y0184300D01*
X0313238Y0183963D01*
X0315362Y0183963D01*
X0316175Y0184300D01*
X0333628Y0184300D01*
X0333628Y0183669D01*
X0334111Y0182503D01*
X0334600Y0182015D01*
X0334600Y0180889D01*
X0343300Y0172189D01*
X0343300Y0170043D02*
X0311800Y0170043D01*
X0311800Y0168445D02*
X0343300Y0168445D01*
X0343300Y0166846D02*
X0311800Y0166846D01*
X0311800Y0165248D02*
X0343300Y0165248D01*
X0343300Y0163649D02*
X0331800Y0163649D01*
X0331800Y0162051D02*
X0343300Y0162051D01*
X0343300Y0160452D02*
X0331800Y0160452D01*
X0334300Y0156800D02*
X0334300Y0154300D01*
X0334300Y0156800D02*
X0338800Y0156800D01*
X0339800Y0156800D01*
X0339300Y0156300D01*
X0338800Y0156800D01*
X0346800Y0157255D02*
X0359300Y0157255D01*
X0346800Y0157255D01*
X0346800Y0155657D02*
X0359300Y0155657D01*
X0346800Y0155657D01*
X0346800Y0154300D02*
X0359300Y0154300D01*
X0359300Y0171800D01*
X0346800Y0171800D01*
X0346800Y0154300D01*
X0346800Y0158854D02*
X0359300Y0158854D01*
X0346800Y0158854D01*
X0346800Y0160452D02*
X0359300Y0160452D01*
X0346800Y0160452D01*
X0346800Y0162051D02*
X0359300Y0162051D01*
X0346800Y0162051D01*
X0346800Y0163649D02*
X0359300Y0163649D01*
X0346800Y0163649D01*
X0346800Y0165248D02*
X0359300Y0165248D01*
X0346800Y0165248D01*
X0346800Y0166846D02*
X0359300Y0166846D01*
X0346800Y0166846D01*
X0346800Y0168445D02*
X0359300Y0168445D01*
X0346800Y0168445D01*
X0346800Y0170043D02*
X0364300Y0170043D01*
X0364300Y0171642D02*
X0346800Y0171642D01*
X0359300Y0171642D01*
X0359300Y0170043D02*
X0346800Y0170043D01*
X0345360Y0173240D02*
X0364300Y0173240D01*
X0363800Y0173240D02*
X0363800Y0173240D01*
X0363800Y0174839D02*
X0363800Y0174839D01*
X0361993Y0176437D02*
X0361800Y0176437D01*
X0366765Y0174839D02*
X0367047Y0174839D01*
X0369600Y0178036D02*
X0376800Y0178036D01*
X0376800Y0179634D02*
X0369600Y0179634D01*
X0369480Y0181233D02*
X0376800Y0181233D01*
X0376800Y0176437D02*
X0376347Y0176437D01*
X0376553Y0174839D02*
X0376800Y0174839D01*
X0376800Y0173240D02*
X0372280Y0173240D01*
X0372280Y0174839D02*
X0371320Y0174839D01*
X0371320Y0176437D02*
X0372280Y0176437D01*
X0376553Y0171642D02*
X0376800Y0171642D01*
X0376800Y0170043D02*
X0376499Y0170043D01*
X0371800Y0165560D02*
X0371800Y0161800D01*
X0374300Y0159300D01*
X0371800Y0151800D02*
X0361800Y0151800D01*
X0356800Y0146800D02*
X0356800Y0140540D01*
X0339300Y0126800D02*
X0336800Y0129300D01*
X0339300Y0126800D02*
X0346800Y0126800D01*
X0324300Y0129300D02*
X0311800Y0129300D01*
X0311800Y0134300D01*
X0310800Y0134300D01*
X0310800Y0139300D02*
X0304300Y0139300D01*
X0299300Y0139300D02*
X0299300Y0136800D01*
X0291800Y0129300D01*
X0301800Y0119300D01*
X0310800Y0119300D01*
X0310800Y0114300D02*
X0304300Y0114300D01*
X0299300Y0111800D02*
X0296800Y0114300D01*
X0291800Y0114300D01*
X0286800Y0119300D01*
X0283800Y0119300D01*
X0284300Y0128800D02*
X0283800Y0129300D01*
X0279300Y0128482D02*
X0278067Y0128482D01*
X0276800Y0128482D02*
X0276800Y0128482D01*
X0275533Y0128482D02*
X0273067Y0128482D01*
X0271800Y0128482D02*
X0271800Y0128482D01*
X0270533Y0128482D02*
X0268067Y0128482D01*
X0266800Y0130081D02*
X0266800Y0130081D01*
X0244300Y0130081D01*
X0244300Y0131679D02*
X0266800Y0131679D01*
X0266800Y0131679D01*
X0266800Y0133278D02*
X0266800Y0133278D01*
X0244300Y0133278D01*
X0244300Y0134876D02*
X0266800Y0134876D01*
X0266800Y0134876D01*
X0266800Y0136475D02*
X0266800Y0136475D01*
X0244300Y0136475D01*
X0244300Y0138073D02*
X0266800Y0138073D01*
X0266800Y0138073D01*
X0266800Y0139672D02*
X0266800Y0139672D01*
X0244300Y0139672D01*
X0244300Y0141270D02*
X0266800Y0141270D01*
X0266800Y0141270D01*
X0266800Y0142869D02*
X0266800Y0142869D01*
X0244300Y0142869D01*
X0244300Y0144467D02*
X0266800Y0144467D01*
X0266800Y0144467D01*
X0266800Y0146066D02*
X0244300Y0146066D01*
X0244300Y0147664D02*
X0266800Y0147664D01*
X0266800Y0149263D02*
X0244300Y0149263D01*
X0244300Y0150861D02*
X0266800Y0150861D01*
X0266800Y0152460D02*
X0244300Y0152460D01*
X0244300Y0154058D02*
X0266800Y0154058D01*
X0266800Y0154058D01*
X0266800Y0155657D02*
X0266800Y0155657D01*
X0244300Y0155657D01*
X0244300Y0157255D02*
X0266800Y0157255D01*
X0266800Y0157255D01*
X0266800Y0158854D02*
X0266800Y0158854D01*
X0244300Y0158854D01*
X0244300Y0160452D02*
X0266800Y0160452D01*
X0266800Y0160452D01*
X0266800Y0162051D02*
X0266800Y0162051D01*
X0244300Y0162051D01*
X0244300Y0163649D02*
X0266800Y0163649D01*
X0266800Y0163649D01*
X0266800Y0165248D02*
X0266800Y0165248D01*
X0244300Y0165248D01*
X0244300Y0166846D02*
X0266800Y0166846D01*
X0266800Y0166846D01*
X0266800Y0168445D02*
X0266800Y0168445D01*
X0244300Y0168445D01*
X0244300Y0170043D02*
X0266800Y0170043D01*
X0266800Y0170043D01*
X0268246Y0170043D02*
X0270354Y0170043D01*
X0271800Y0170043D02*
X0271800Y0170043D01*
X0273246Y0170043D02*
X0275354Y0170043D01*
X0276800Y0170043D02*
X0276800Y0170043D01*
X0278246Y0170043D02*
X0279300Y0170043D01*
X0279300Y0171642D02*
X0263777Y0171642D01*
X0264100Y0170043D02*
X0265354Y0170043D01*
X0266800Y0171642D02*
X0256127Y0171642D01*
X0257294Y0173240D02*
X0266800Y0173240D01*
X0266800Y0174839D02*
X0257950Y0174839D01*
X0259500Y0176437D02*
X0266800Y0176437D01*
X0271800Y0176800D02*
X0271800Y0196800D01*
X0286800Y0196800D01*
X0296800Y0186800D01*
X0299815Y0186800D01*
X0300003Y0186611D01*
X0301169Y0186128D01*
X0302431Y0186128D01*
X0303597Y0186611D01*
X0303785Y0186800D01*
X0306800Y0186800D01*
X0306800Y0169500D01*
X0301720Y0169500D01*
X0301660Y0169440D01*
X0294300Y0176800D01*
X0271800Y0176800D01*
X0271800Y0178036D02*
X0306800Y0178036D01*
X0306800Y0179634D02*
X0271800Y0179634D01*
X0271800Y0181233D02*
X0306800Y0181233D01*
X0306800Y0182832D02*
X0271800Y0182832D01*
X0271800Y0184430D02*
X0306800Y0184430D01*
X0306800Y0184300D02*
X0311800Y0189300D01*
X0314300Y0189300D01*
X0306800Y0186029D02*
X0271800Y0186029D01*
X0271800Y0187627D02*
X0295973Y0187627D01*
X0294374Y0189226D02*
X0271800Y0189226D01*
X0271800Y0190824D02*
X0292776Y0190824D01*
X0291177Y0192423D02*
X0271800Y0192423D01*
X0271800Y0194021D02*
X0289579Y0194021D01*
X0287980Y0195620D02*
X0271800Y0195620D01*
X0274300Y0201800D02*
X0274300Y0209300D01*
X0271800Y0211800D01*
X0268060Y0211800D01*
X0266800Y0210540D01*
X0266800Y0216800D01*
X0261800Y0219300D02*
X0261800Y0204300D01*
X0264300Y0201800D01*
X0265540Y0201800D01*
X0266800Y0203060D01*
X0260800Y0195620D02*
X0246500Y0195620D01*
X0246500Y0194021D02*
X0260800Y0194021D01*
X0260800Y0192423D02*
X0246500Y0192423D01*
X0246500Y0190824D02*
X0260800Y0190824D01*
X0260800Y0189226D02*
X0246500Y0189226D01*
X0246500Y0187627D02*
X0260800Y0187627D01*
X0260800Y0186029D02*
X0246500Y0186029D01*
X0246500Y0184430D02*
X0260800Y0184430D01*
X0260800Y0182832D02*
X0246500Y0182832D01*
X0246500Y0181233D02*
X0253453Y0181233D01*
X0253400Y0179634D02*
X0245246Y0179634D01*
X0244300Y0178036D02*
X0253400Y0178036D01*
X0251952Y0176437D02*
X0244300Y0176437D01*
X0244300Y0174839D02*
X0251128Y0174839D01*
X0251306Y0173240D02*
X0244300Y0173240D01*
X0244300Y0171642D02*
X0252473Y0171642D01*
X0254300Y0174300D02*
X0257300Y0177300D01*
X0257300Y0179300D01*
X0259800Y0168445D02*
X0259800Y0168445D01*
X0259800Y0166846D02*
X0259800Y0166846D01*
X0259800Y0165248D02*
X0259800Y0165248D01*
X0259800Y0163649D02*
X0259800Y0163649D01*
X0259800Y0162051D02*
X0259800Y0162051D01*
X0259800Y0160452D02*
X0259800Y0160452D01*
X0259800Y0158854D02*
X0259800Y0158854D01*
X0259800Y0157255D02*
X0259800Y0157255D01*
X0259800Y0155657D02*
X0259800Y0155657D01*
X0259800Y0154058D02*
X0259800Y0154058D01*
X0259800Y0152460D02*
X0259800Y0152460D01*
X0256800Y0150861D02*
X0279300Y0150861D01*
X0279300Y0149263D02*
X0256800Y0149263D01*
X0256800Y0147664D02*
X0279300Y0147664D01*
X0279300Y0146066D02*
X0264039Y0146066D01*
X0264100Y0144467D02*
X0264447Y0144467D01*
X0259800Y0144467D02*
X0259800Y0144467D01*
X0259800Y0142869D02*
X0259800Y0142869D01*
X0259800Y0141270D02*
X0259800Y0141270D01*
X0259800Y0139672D02*
X0259800Y0139672D01*
X0259800Y0138073D02*
X0259800Y0138073D01*
X0259800Y0136475D02*
X0259800Y0136475D01*
X0259800Y0134876D02*
X0259800Y0134876D01*
X0259800Y0133278D02*
X0259800Y0133278D01*
X0259800Y0131679D02*
X0259800Y0131679D01*
X0259800Y0130081D02*
X0259800Y0130081D01*
X0259800Y0128482D02*
X0259800Y0128482D01*
X0259800Y0126884D02*
X0259800Y0126884D01*
X0259800Y0122088D02*
X0259800Y0122088D01*
X0259800Y0120490D02*
X0259800Y0120490D01*
X0259800Y0118891D02*
X0259800Y0118891D01*
X0259800Y0117293D02*
X0259800Y0117293D01*
X0259800Y0115694D02*
X0259800Y0115694D01*
X0259800Y0114096D02*
X0259800Y0114096D01*
X0259800Y0112497D02*
X0259800Y0112497D01*
X0259800Y0110899D02*
X0259800Y0110899D01*
X0259800Y0109300D02*
X0264100Y0109300D01*
X0259800Y0107701D02*
X0259800Y0107701D01*
X0259800Y0106103D02*
X0259800Y0106103D01*
X0259800Y0104504D02*
X0259800Y0104504D01*
X0271800Y0104504D02*
X0271800Y0104504D01*
X0271800Y0106103D02*
X0271800Y0106103D01*
X0271800Y0107701D02*
X0271800Y0107701D01*
X0271800Y0109300D02*
X0271800Y0109300D01*
X0271800Y0110899D02*
X0271800Y0110899D01*
X0271800Y0112497D02*
X0271800Y0112497D01*
X0271800Y0114096D02*
X0271800Y0114096D01*
X0271800Y0115694D02*
X0271800Y0115694D01*
X0271800Y0117293D02*
X0271800Y0117293D01*
X0271800Y0118891D02*
X0271800Y0118891D01*
X0271800Y0130081D02*
X0271800Y0130081D01*
X0271800Y0131679D02*
X0271800Y0131679D01*
X0271800Y0133278D02*
X0271800Y0133278D01*
X0271800Y0134876D02*
X0271800Y0134876D01*
X0271800Y0136475D02*
X0271800Y0136475D01*
X0271800Y0138073D02*
X0271800Y0138073D01*
X0271800Y0139672D02*
X0271800Y0139672D01*
X0271800Y0141270D02*
X0271800Y0141270D01*
X0271800Y0142869D02*
X0271800Y0142869D01*
X0271800Y0144467D02*
X0271800Y0144467D01*
X0274153Y0144467D02*
X0274447Y0144467D01*
X0276800Y0144467D02*
X0276800Y0144467D01*
X0276800Y0142869D02*
X0276800Y0142869D01*
X0276800Y0141270D02*
X0276800Y0141270D01*
X0276800Y0139672D02*
X0276800Y0139672D01*
X0276800Y0138073D02*
X0276800Y0138073D01*
X0276800Y0136475D02*
X0276800Y0136475D01*
X0276800Y0134876D02*
X0276800Y0134876D01*
X0276800Y0133278D02*
X0276800Y0133278D01*
X0276800Y0131679D02*
X0276800Y0131679D01*
X0276800Y0130081D02*
X0276800Y0130081D01*
X0279153Y0144467D02*
X0279300Y0144467D01*
X0283800Y0144300D02*
X0291800Y0144300D01*
X0310800Y0144300D01*
X0310800Y0149300D02*
X0311800Y0149300D01*
X0316800Y0154300D01*
X0329300Y0154300D01*
X0316800Y0159300D02*
X0314300Y0156800D01*
X0309300Y0156800D01*
X0304300Y0161800D01*
X0304300Y0166300D01*
X0304800Y0166800D01*
X0306800Y0170043D02*
X0301057Y0170043D01*
X0299458Y0171642D02*
X0306800Y0171642D01*
X0306800Y0173240D02*
X0297860Y0173240D01*
X0296261Y0174839D02*
X0306800Y0174839D01*
X0306800Y0176437D02*
X0294663Y0176437D01*
X0291800Y0169300D02*
X0291800Y0161800D01*
X0296800Y0156800D01*
X0291800Y0156800D02*
X0289300Y0154300D01*
X0283800Y0154300D01*
X0279300Y0154058D02*
X0279079Y0154058D01*
X0279300Y0152460D02*
X0264019Y0152460D01*
X0264100Y0154058D02*
X0264521Y0154058D01*
X0269079Y0154058D02*
X0269521Y0154058D01*
X0271800Y0154058D02*
X0271800Y0154058D01*
X0271800Y0155657D02*
X0271800Y0155657D01*
X0271800Y0157255D02*
X0271800Y0157255D01*
X0271800Y0158854D02*
X0271800Y0158854D01*
X0271800Y0160452D02*
X0271800Y0160452D01*
X0271800Y0162051D02*
X0271800Y0162051D01*
X0271800Y0163649D02*
X0271800Y0163649D01*
X0271800Y0165248D02*
X0271800Y0165248D01*
X0271800Y0166846D02*
X0271800Y0166846D01*
X0271800Y0168445D02*
X0271800Y0168445D01*
X0276800Y0168445D02*
X0276800Y0168445D01*
X0276800Y0166846D02*
X0276800Y0166846D01*
X0276800Y0165248D02*
X0276800Y0165248D01*
X0276800Y0163649D02*
X0276800Y0163649D01*
X0276800Y0162051D02*
X0276800Y0162051D01*
X0276800Y0160452D02*
X0276800Y0160452D01*
X0276800Y0158854D02*
X0276800Y0158854D01*
X0276800Y0157255D02*
X0276800Y0157255D01*
X0276800Y0155657D02*
X0276800Y0155657D01*
X0276800Y0154058D02*
X0276800Y0154058D01*
X0274521Y0154058D02*
X0274079Y0154058D01*
X0259800Y0146066D02*
X0259800Y0146066D01*
X0269153Y0144467D02*
X0269447Y0144467D01*
X0246800Y0151800D02*
X0239300Y0151800D01*
X0229300Y0136800D02*
X0229300Y0126800D01*
X0229300Y0126300D01*
X0221800Y0116800D02*
X0221800Y0111800D01*
X0219300Y0109300D01*
X0141800Y0109300D01*
X0134300Y0116800D01*
X0106800Y0116800D01*
X0101800Y0111800D01*
X0101800Y0109300D01*
X0096800Y0104300D01*
X0074300Y0104300D01*
X0070300Y0100300D01*
X0070300Y0084300D01*
X0064394Y0084300D02*
X0064300Y0084394D01*
X0064300Y0104300D01*
X0066800Y0106800D01*
X0094300Y0106800D01*
X0098394Y0110894D01*
X0098394Y0113394D01*
X0104300Y0119300D01*
X0136800Y0119300D01*
X0144300Y0111800D01*
X0216800Y0111800D01*
X0216800Y0121800D01*
X0213910Y0120490D02*
X0204702Y0120490D01*
X0204702Y0122088D02*
X0213628Y0122088D01*
X0214201Y0123687D02*
X0204702Y0123687D01*
X0204560Y0125285D02*
X0214300Y0125285D01*
X0214300Y0118891D02*
X0204702Y0118891D01*
X0203320Y0117293D02*
X0214300Y0117293D01*
X0193126Y0133278D02*
X0192167Y0133278D01*
X0192167Y0134876D02*
X0193126Y0134876D01*
X0193126Y0136475D02*
X0192167Y0136475D01*
X0192167Y0138073D02*
X0193126Y0138073D01*
X0193126Y0139672D02*
X0192167Y0139672D01*
X0192167Y0141270D02*
X0193126Y0141270D01*
X0193126Y0142869D02*
X0192167Y0142869D01*
X0192167Y0144467D02*
X0193126Y0144467D01*
X0193126Y0146066D02*
X0192167Y0146066D01*
X0192167Y0147664D02*
X0193126Y0147664D01*
X0193126Y0149263D02*
X0192167Y0149263D01*
X0192167Y0150861D02*
X0193126Y0150861D01*
X0193126Y0152460D02*
X0192167Y0152460D01*
X0192167Y0154058D02*
X0193126Y0154058D01*
X0193126Y0155657D02*
X0192167Y0155657D01*
X0182162Y0146066D02*
X0174300Y0146066D01*
X0174300Y0144467D02*
X0181594Y0144467D01*
X0181594Y0142869D02*
X0174300Y0142869D01*
X0174300Y0141270D02*
X0181594Y0141270D01*
X0181594Y0139672D02*
X0174300Y0139672D01*
X0174300Y0138073D02*
X0181763Y0138073D01*
X0182866Y0136475D02*
X0174300Y0136475D01*
X0174300Y0134876D02*
X0181594Y0134876D01*
X0181594Y0133278D02*
X0146800Y0133278D01*
X0146800Y0138073D02*
X0171800Y0138073D01*
X0171800Y0139672D02*
X0146800Y0139672D01*
X0146800Y0141270D02*
X0171800Y0141270D01*
X0176800Y0131800D02*
X0171800Y0126800D01*
X0171800Y0124300D01*
X0171406Y0123906D01*
X0159300Y0123906D01*
X0160100Y0123687D02*
X0173504Y0123687D01*
X0177285Y0120490D02*
X0178047Y0120490D01*
X0178047Y0118891D02*
X0177285Y0118891D01*
X0181745Y0118891D02*
X0181800Y0118891D01*
X0160100Y0125285D02*
X0158500Y0125285D01*
X0158500Y0126884D02*
X0160100Y0126884D01*
X0160100Y0128482D02*
X0158500Y0128482D01*
X0158500Y0130081D02*
X0160100Y0130081D01*
X0151276Y0142869D02*
X0146800Y0142869D01*
X0146800Y0144467D02*
X0150807Y0144467D01*
X0150807Y0146066D02*
X0146800Y0146066D01*
X0146800Y0147664D02*
X0150807Y0147664D01*
X0150807Y0150861D02*
X0146800Y0150861D01*
X0146800Y0149263D02*
X0158500Y0149263D01*
X0158500Y0150861D02*
X0160100Y0150861D01*
X0160100Y0152460D02*
X0158500Y0152460D01*
X0158500Y0154058D02*
X0160100Y0154058D01*
X0160100Y0155657D02*
X0158500Y0155657D01*
X0150838Y0155657D02*
X0146800Y0155657D01*
X0146800Y0154058D02*
X0150807Y0154058D01*
X0150807Y0152460D02*
X0146800Y0152460D01*
X0141800Y0152460D02*
X0107924Y0152460D01*
X0107924Y0152067D02*
X0107924Y0155424D01*
X0109300Y0156800D01*
X0109300Y0161800D01*
X0116201Y0161800D01*
X0115849Y0161706D01*
X0115439Y0161469D01*
X0115104Y0161134D01*
X0114867Y0160723D01*
X0114744Y0160265D01*
X0114744Y0158146D01*
X0119017Y0158146D01*
X0119017Y0157580D01*
X0114744Y0157580D01*
X0114744Y0155461D01*
X0114867Y0155003D01*
X0115104Y0154592D01*
X0115439Y0154257D01*
X0115849Y0154020D01*
X0116307Y0153898D01*
X0119017Y0153898D01*
X0119017Y0157580D01*
X0119583Y0157580D01*
X0119583Y0158146D01*
X0123856Y0158146D01*
X0123856Y0160265D01*
X0123733Y0160723D01*
X0123496Y0161134D01*
X0123161Y0161469D01*
X0122751Y0161706D01*
X0122399Y0161800D01*
X0141800Y0161800D01*
X0141800Y0121800D01*
X0126800Y0121800D01*
X0126800Y0122047D01*
X0127167Y0122047D01*
X0127167Y0126320D01*
X0128126Y0126320D01*
X0128126Y0122047D01*
X0130442Y0122047D01*
X0130900Y0122170D01*
X0131311Y0122407D01*
X0131646Y0122742D01*
X0131883Y0123152D01*
X0132005Y0123610D01*
X0132005Y0126320D01*
X0128126Y0126320D01*
X0128126Y0127280D01*
X0127167Y0127280D01*
X0127167Y0131553D01*
X0126800Y0131553D01*
X0126800Y0132047D01*
X0127167Y0132047D01*
X0127167Y0136320D01*
X0128126Y0136320D01*
X0128126Y0132047D01*
X0130442Y0132047D01*
X0130900Y0132170D01*
X0131311Y0132407D01*
X0131646Y0132742D01*
X0131883Y0133152D01*
X0132005Y0133610D01*
X0132005Y0136320D01*
X0128126Y0136320D01*
X0128126Y0137280D01*
X0127167Y0137280D01*
X0127167Y0141553D01*
X0126800Y0141553D01*
X0126800Y0142047D01*
X0127167Y0142047D01*
X0127167Y0146320D01*
X0128126Y0146320D01*
X0128126Y0142047D01*
X0130442Y0142047D01*
X0130900Y0142170D01*
X0131311Y0142407D01*
X0131646Y0142742D01*
X0131883Y0143152D01*
X0132005Y0143610D01*
X0132005Y0146320D01*
X0128126Y0146320D01*
X0128126Y0147280D01*
X0127167Y0147280D01*
X0127167Y0151553D01*
X0126800Y0151553D01*
X0126800Y0151800D01*
X0114300Y0151800D01*
X0106800Y0144300D01*
X0104300Y0144300D01*
X0104300Y0151246D01*
X0107104Y0151246D01*
X0107924Y0152067D01*
X0107924Y0154058D02*
X0115783Y0154058D01*
X0114744Y0155657D02*
X0108157Y0155657D01*
X0109300Y0157255D02*
X0114744Y0157255D01*
X0114744Y0158854D02*
X0109300Y0158854D01*
X0109300Y0160452D02*
X0114794Y0160452D01*
X0119017Y0157255D02*
X0119583Y0157255D01*
X0119583Y0157580D02*
X0119583Y0153898D01*
X0122293Y0153898D01*
X0122751Y0154020D01*
X0123161Y0154257D01*
X0123496Y0154592D01*
X0123733Y0155003D01*
X0123856Y0155461D01*
X0123856Y0157580D01*
X0119583Y0157580D01*
X0119583Y0155657D02*
X0119017Y0155657D01*
X0119017Y0154058D02*
X0119583Y0154058D01*
X0122817Y0154058D02*
X0141800Y0154058D01*
X0141800Y0155657D02*
X0123856Y0155657D01*
X0123856Y0157255D02*
X0141800Y0157255D01*
X0141800Y0158854D02*
X0123856Y0158854D01*
X0123806Y0160452D02*
X0141800Y0160452D01*
X0141800Y0150861D02*
X0131643Y0150861D01*
X0131646Y0150858D02*
X0131311Y0151193D01*
X0130900Y0151430D01*
X0130442Y0151553D01*
X0128126Y0151553D01*
X0128126Y0147280D01*
X0132005Y0147280D01*
X0132005Y0149990D01*
X0131883Y0150448D01*
X0131646Y0150858D01*
X0132005Y0149263D02*
X0141800Y0149263D01*
X0141800Y0147664D02*
X0132005Y0147664D01*
X0132005Y0146066D02*
X0141800Y0146066D01*
X0141800Y0144467D02*
X0132005Y0144467D01*
X0131719Y0142869D02*
X0141800Y0142869D01*
X0141800Y0141270D02*
X0131177Y0141270D01*
X0131311Y0141193D02*
X0130900Y0141430D01*
X0130442Y0141553D01*
X0128126Y0141553D01*
X0128126Y0137280D01*
X0132005Y0137280D01*
X0132005Y0139990D01*
X0131883Y0140448D01*
X0131646Y0140858D01*
X0131311Y0141193D01*
X0132005Y0139672D02*
X0141800Y0139672D01*
X0141800Y0138073D02*
X0132005Y0138073D01*
X0132005Y0134876D02*
X0141800Y0134876D01*
X0141800Y0133278D02*
X0131916Y0133278D01*
X0130900Y0131430D02*
X0130442Y0131553D01*
X0128126Y0131553D01*
X0128126Y0127280D01*
X0132005Y0127280D01*
X0132005Y0129990D01*
X0131883Y0130448D01*
X0131646Y0130858D01*
X0131311Y0131193D01*
X0130900Y0131430D01*
X0131981Y0130081D02*
X0141800Y0130081D01*
X0141800Y0131679D02*
X0126800Y0131679D01*
X0127167Y0130081D02*
X0128126Y0130081D01*
X0128126Y0128482D02*
X0127167Y0128482D01*
X0128126Y0126884D02*
X0141800Y0126884D01*
X0141800Y0128482D02*
X0132005Y0128482D01*
X0132005Y0125285D02*
X0141800Y0125285D01*
X0141800Y0123687D02*
X0132005Y0123687D01*
X0130595Y0122088D02*
X0141800Y0122088D01*
X0128126Y0122088D02*
X0127167Y0122088D01*
X0127167Y0123687D02*
X0128126Y0123687D01*
X0128126Y0125285D02*
X0127167Y0125285D01*
X0124300Y0122223D02*
X0124300Y0121800D01*
X0104972Y0121800D01*
X0104972Y0122431D01*
X0104489Y0123597D01*
X0103597Y0124489D01*
X0102431Y0124972D01*
X0101169Y0124972D01*
X0100003Y0124489D01*
X0099300Y0123785D01*
X0098597Y0124489D01*
X0097431Y0124972D01*
X0096169Y0124972D01*
X0095003Y0124489D01*
X0094111Y0123597D01*
X0093628Y0122431D01*
X0093628Y0121800D01*
X0011800Y0121800D01*
X0011800Y0139300D01*
X0016201Y0139300D01*
X0015849Y0139206D01*
X0015439Y0138969D01*
X0015104Y0138634D01*
X0014867Y0138223D01*
X0014744Y0137765D01*
X0014744Y0135646D01*
X0019017Y0135646D01*
X0019017Y0135080D01*
X0014744Y0135080D01*
X0014744Y0132961D01*
X0014867Y0132503D01*
X0015104Y0132092D01*
X0015439Y0131757D01*
X0015849Y0131520D01*
X0016307Y0131398D01*
X0019017Y0131398D01*
X0019017Y0135080D01*
X0019583Y0135080D01*
X0019583Y0135646D01*
X0023856Y0135646D01*
X0023856Y0137765D01*
X0023733Y0138223D01*
X0023496Y0138634D01*
X0023161Y0138969D01*
X0022751Y0139206D01*
X0022399Y0139300D01*
X0024300Y0139300D01*
X0024300Y0144300D01*
X0024547Y0144300D01*
X0024547Y0143933D01*
X0028820Y0143933D01*
X0028820Y0142974D01*
X0024547Y0142974D01*
X0024547Y0140658D01*
X0024670Y0140200D01*
X0024907Y0139789D01*
X0025242Y0139454D01*
X0025652Y0139217D01*
X0026110Y0139094D01*
X0028820Y0139094D01*
X0028820Y0142974D01*
X0029780Y0142974D01*
X0029780Y0143933D01*
X0034053Y0143933D01*
X0034053Y0144300D01*
X0034547Y0144300D01*
X0034547Y0143933D01*
X0038820Y0143933D01*
X0038820Y0142974D01*
X0034547Y0142974D01*
X0034547Y0140658D01*
X0034670Y0140200D01*
X0034907Y0139789D01*
X0035242Y0139454D01*
X0035652Y0139217D01*
X0036110Y0139094D01*
X0038820Y0139094D01*
X0038820Y0142974D01*
X0039780Y0142974D01*
X0039780Y0143933D01*
X0044053Y0143933D01*
X0044053Y0144300D01*
X0044547Y0144300D01*
X0044547Y0143933D01*
X0048820Y0143933D01*
X0048820Y0142974D01*
X0044547Y0142974D01*
X0044547Y0140658D01*
X0044670Y0140200D01*
X0044907Y0139789D01*
X0045242Y0139454D01*
X0045652Y0139217D01*
X0046110Y0139094D01*
X0048820Y0139094D01*
X0048820Y0142974D01*
X0049780Y0142974D01*
X0049780Y0143933D01*
X0054053Y0143933D01*
X0054053Y0144300D01*
X0054300Y0144300D01*
X0054300Y0161800D01*
X0076800Y0161800D01*
X0076800Y0164300D01*
X0094300Y0164300D01*
X0094300Y0154300D01*
X0086300Y0154300D01*
X0086300Y0141800D01*
X0109300Y0141800D01*
X0116594Y0149094D01*
X0116594Y0147280D01*
X0120474Y0147280D01*
X0120474Y0146320D01*
X0121433Y0146320D01*
X0121433Y0142047D01*
X0123750Y0142047D01*
X0124207Y0142170D01*
X0124300Y0142223D01*
X0124300Y0141377D01*
X0124207Y0141430D01*
X0123750Y0141553D01*
X0121433Y0141553D01*
X0121433Y0137280D01*
X0120474Y0137280D01*
X0120474Y0141553D01*
X0118158Y0141553D01*
X0117700Y0141430D01*
X0117289Y0141193D01*
X0116954Y0140858D01*
X0116717Y0140448D01*
X0116594Y0139990D01*
X0116594Y0137280D01*
X0120474Y0137280D01*
X0120474Y0136320D01*
X0121433Y0136320D01*
X0121433Y0132047D01*
X0123750Y0132047D01*
X0124207Y0132170D01*
X0124300Y0132223D01*
X0124300Y0131377D01*
X0124207Y0131430D01*
X0123750Y0131553D01*
X0121433Y0131553D01*
X0121433Y0127280D01*
X0120474Y0127280D01*
X0120474Y0131553D01*
X0118158Y0131553D01*
X0117700Y0131430D01*
X0117289Y0131193D01*
X0116954Y0130858D01*
X0116717Y0130448D01*
X0116594Y0129990D01*
X0116594Y0127280D01*
X0120474Y0127280D01*
X0120474Y0126320D01*
X0121433Y0126320D01*
X0121433Y0122047D01*
X0123750Y0122047D01*
X0124207Y0122170D01*
X0124300Y0122223D01*
X0124300Y0122088D02*
X0123902Y0122088D01*
X0121433Y0122088D02*
X0120474Y0122088D01*
X0120474Y0122047D02*
X0120474Y0126320D01*
X0116594Y0126320D01*
X0116594Y0123610D01*
X0116717Y0123152D01*
X0116954Y0122742D01*
X0117289Y0122407D01*
X0117700Y0122170D01*
X0118158Y0122047D01*
X0120474Y0122047D01*
X0120474Y0123687D02*
X0121433Y0123687D01*
X0121433Y0125285D02*
X0120474Y0125285D01*
X0120474Y0126884D02*
X0011800Y0126884D01*
X0011800Y0128482D02*
X0116594Y0128482D01*
X0116619Y0130081D02*
X0011800Y0130081D01*
X0011800Y0131679D02*
X0015574Y0131679D01*
X0014744Y0133278D02*
X0011800Y0133278D01*
X0011800Y0134876D02*
X0014744Y0134876D01*
X0014744Y0136475D02*
X0011800Y0136475D01*
X0011800Y0138073D02*
X0014827Y0138073D01*
X0019017Y0134876D02*
X0019583Y0134876D01*
X0019583Y0135080D02*
X0019583Y0131398D01*
X0022293Y0131398D01*
X0022751Y0131520D01*
X0023161Y0131757D01*
X0023496Y0132092D01*
X0023733Y0132503D01*
X0023856Y0132961D01*
X0023856Y0135080D01*
X0019583Y0135080D01*
X0019583Y0133278D02*
X0019017Y0133278D01*
X0019017Y0131679D02*
X0019583Y0131679D01*
X0023026Y0131679D02*
X0124300Y0131679D01*
X0121433Y0130081D02*
X0120474Y0130081D01*
X0120474Y0128482D02*
X0121433Y0128482D01*
X0120474Y0132047D02*
X0120474Y0136320D01*
X0116594Y0136320D01*
X0116594Y0133610D01*
X0116717Y0133152D01*
X0116954Y0132742D01*
X0117289Y0132407D01*
X0117700Y0132170D01*
X0118158Y0132047D01*
X0120474Y0132047D01*
X0120474Y0133278D02*
X0121433Y0133278D01*
X0121433Y0134876D02*
X0120474Y0134876D01*
X0120474Y0136475D02*
X0023856Y0136475D01*
X0023856Y0134876D02*
X0116594Y0134876D01*
X0116684Y0133278D02*
X0023856Y0133278D01*
X0023773Y0138073D02*
X0116594Y0138073D01*
X0116594Y0139672D02*
X0053576Y0139672D01*
X0053693Y0139789D02*
X0053930Y0140200D01*
X0054053Y0140658D01*
X0054053Y0142974D01*
X0049780Y0142974D01*
X0049780Y0139094D01*
X0052490Y0139094D01*
X0052948Y0139217D01*
X0053358Y0139454D01*
X0053693Y0139789D01*
X0054053Y0141270D02*
X0117423Y0141270D01*
X0117700Y0142170D02*
X0118158Y0142047D01*
X0120474Y0142047D01*
X0120474Y0146320D01*
X0116594Y0146320D01*
X0116594Y0143610D01*
X0116717Y0143152D01*
X0116954Y0142742D01*
X0117289Y0142407D01*
X0117700Y0142170D01*
X0116881Y0142869D02*
X0110369Y0142869D01*
X0111967Y0144467D02*
X0116594Y0144467D01*
X0116594Y0146066D02*
X0113566Y0146066D01*
X0115164Y0147664D02*
X0116594Y0147664D01*
X0120474Y0146066D02*
X0121433Y0146066D01*
X0121433Y0144467D02*
X0120474Y0144467D01*
X0120474Y0142869D02*
X0121433Y0142869D01*
X0121433Y0141270D02*
X0120474Y0141270D01*
X0120474Y0139672D02*
X0121433Y0139672D01*
X0121433Y0138073D02*
X0120474Y0138073D01*
X0127167Y0138073D02*
X0128126Y0138073D01*
X0128126Y0136475D02*
X0141800Y0136475D01*
X0128126Y0134876D02*
X0127167Y0134876D01*
X0127167Y0133278D02*
X0128126Y0133278D01*
X0128126Y0139672D02*
X0127167Y0139672D01*
X0127167Y0141270D02*
X0128126Y0141270D01*
X0128126Y0142869D02*
X0127167Y0142869D01*
X0127167Y0144467D02*
X0128126Y0144467D01*
X0128126Y0146066D02*
X0127167Y0146066D01*
X0127167Y0147664D02*
X0128126Y0147664D01*
X0128126Y0149263D02*
X0127167Y0149263D01*
X0127167Y0150861D02*
X0128126Y0150861D01*
X0113361Y0150861D02*
X0104300Y0150861D01*
X0103080Y0150520D02*
X0104300Y0149300D01*
X0106800Y0149300D01*
X0104300Y0149263D02*
X0111763Y0149263D01*
X0110164Y0147664D02*
X0104300Y0147664D01*
X0104300Y0146066D02*
X0108566Y0146066D01*
X0106967Y0144467D02*
X0104300Y0144467D01*
X0101800Y0144467D02*
X0089300Y0144467D01*
X0089300Y0144300D02*
X0089300Y0151800D01*
X0095942Y0151800D01*
X0096496Y0151246D01*
X0099427Y0151246D01*
X0099981Y0151800D01*
X0100880Y0151800D01*
X0100880Y0149609D01*
X0101800Y0148689D01*
X0101800Y0144300D01*
X0089300Y0144300D01*
X0089300Y0146066D02*
X0101800Y0146066D01*
X0101800Y0147664D02*
X0089300Y0147664D01*
X0089300Y0149263D02*
X0101226Y0149263D01*
X0100520Y0148020D02*
X0099300Y0145550D01*
X0100520Y0148020D02*
X0100520Y0155698D01*
X0097961Y0155698D02*
X0092902Y0155698D01*
X0091800Y0156800D01*
X0094300Y0157255D02*
X0054300Y0157255D01*
X0054300Y0155657D02*
X0094300Y0155657D01*
X0094300Y0158854D02*
X0054300Y0158854D01*
X0054300Y0160452D02*
X0094300Y0160452D01*
X0094300Y0162051D02*
X0076800Y0162051D01*
X0076800Y0163649D02*
X0094300Y0163649D01*
X0096859Y0166800D02*
X0097961Y0167902D01*
X0096859Y0166800D02*
X0079300Y0166800D01*
X0077646Y0168454D01*
X0077646Y0176800D01*
X0074300Y0181377D02*
X0074207Y0181430D01*
X0073750Y0181553D01*
X0071433Y0181553D01*
X0071433Y0177280D01*
X0070474Y0177280D01*
X0070474Y0181553D01*
X0068158Y0181553D01*
X0067700Y0181430D01*
X0067289Y0181193D01*
X0066954Y0180858D01*
X0066717Y0180448D01*
X0066594Y0179990D01*
X0066594Y0177280D01*
X0070474Y0177280D01*
X0070474Y0176320D01*
X0071433Y0176320D01*
X0071433Y0172047D01*
X0073750Y0172047D01*
X0074207Y0172170D01*
X0074300Y0172223D01*
X0074300Y0164300D01*
X0034300Y0164300D01*
X0034300Y0189300D01*
X0074300Y0189300D01*
X0074300Y0181377D01*
X0074300Y0182832D02*
X0054604Y0182832D01*
X0054604Y0183730D02*
X0054481Y0184188D01*
X0054244Y0184598D01*
X0053909Y0184933D01*
X0053499Y0185170D01*
X0053041Y0185293D01*
X0047994Y0185293D01*
X0047994Y0177600D01*
X0054604Y0177600D01*
X0054604Y0183730D01*
X0054341Y0184430D02*
X0074300Y0184430D01*
X0074300Y0186029D02*
X0034300Y0186029D01*
X0034300Y0187627D02*
X0074300Y0187627D01*
X0074300Y0189226D02*
X0034300Y0189226D01*
X0031800Y0189226D02*
X0011800Y0189226D01*
X0011800Y0189300D02*
X0031800Y0189300D01*
X0031800Y0161800D01*
X0051800Y0161800D01*
X0051800Y0154505D01*
X0049780Y0154505D01*
X0049780Y0150626D01*
X0048820Y0150626D01*
X0048820Y0149667D01*
X0044547Y0149667D01*
X0044547Y0149300D01*
X0044053Y0149300D01*
X0044053Y0149667D01*
X0039780Y0149667D01*
X0039780Y0150626D01*
X0044053Y0150626D01*
X0044053Y0152942D01*
X0043930Y0153400D01*
X0043693Y0153811D01*
X0043358Y0154146D01*
X0042948Y0154383D01*
X0042490Y0154505D01*
X0039780Y0154505D01*
X0039780Y0150626D01*
X0038820Y0150626D01*
X0038820Y0149667D01*
X0034547Y0149667D01*
X0034547Y0149300D01*
X0034053Y0149300D01*
X0034053Y0149667D01*
X0029780Y0149667D01*
X0029780Y0150626D01*
X0034053Y0150626D01*
X0034053Y0152942D01*
X0033930Y0153400D01*
X0033693Y0153811D01*
X0033358Y0154146D01*
X0032948Y0154383D01*
X0032490Y0154505D01*
X0029780Y0154505D01*
X0029780Y0150626D01*
X0028820Y0150626D01*
X0028820Y0149667D01*
X0024547Y0149667D01*
X0024547Y0149300D01*
X0024300Y0149300D01*
X0024300Y0154300D01*
X0022005Y0154300D01*
X0022357Y0154394D01*
X0022767Y0154631D01*
X0023103Y0154966D01*
X0023340Y0155377D01*
X0023462Y0155835D01*
X0023462Y0158053D01*
X0019681Y0158053D01*
X0019681Y0158815D01*
X0018919Y0158815D01*
X0018919Y0162596D01*
X0016701Y0162596D01*
X0016243Y0162473D01*
X0015833Y0162236D01*
X0015497Y0161901D01*
X0015260Y0161491D01*
X0015138Y0161033D01*
X0015138Y0158815D01*
X0018919Y0158815D01*
X0018919Y0158053D01*
X0015138Y0158053D01*
X0015138Y0155835D01*
X0015260Y0155377D01*
X0015497Y0154966D01*
X0015833Y0154631D01*
X0016243Y0154394D01*
X0016595Y0154300D01*
X0011800Y0154300D01*
X0011800Y0189300D01*
X0011800Y0187627D02*
X0031800Y0187627D01*
X0031800Y0186029D02*
X0011800Y0186029D01*
X0011800Y0184430D02*
X0014259Y0184430D01*
X0014356Y0184598D02*
X0014119Y0184188D01*
X0013996Y0183730D01*
X0013996Y0177600D01*
X0020606Y0177600D01*
X0020606Y0176000D01*
X0013996Y0176000D01*
X0013996Y0169870D01*
X0014119Y0169412D01*
X0014356Y0169002D01*
X0014691Y0168667D01*
X0015101Y0168430D01*
X0015559Y0168307D01*
X0020606Y0168307D01*
X0020606Y0176000D01*
X0022206Y0176000D01*
X0022206Y0168307D01*
X0027254Y0168307D01*
X0027711Y0168430D01*
X0028122Y0168667D01*
X0028457Y0169002D01*
X0028694Y0169412D01*
X0028817Y0169870D01*
X0028817Y0176000D01*
X0022206Y0176000D01*
X0022206Y0177600D01*
X0020606Y0177600D01*
X0020606Y0185293D01*
X0015559Y0185293D01*
X0015101Y0185170D01*
X0014691Y0184933D01*
X0014356Y0184598D01*
X0013996Y0182832D02*
X0011800Y0182832D01*
X0011800Y0181233D02*
X0013996Y0181233D01*
X0013996Y0179634D02*
X0011800Y0179634D01*
X0011800Y0178036D02*
X0013996Y0178036D01*
X0011800Y0176437D02*
X0020606Y0176437D01*
X0020606Y0174839D02*
X0022206Y0174839D01*
X0022206Y0176437D02*
X0031800Y0176437D01*
X0031800Y0174839D02*
X0028817Y0174839D01*
X0028817Y0173240D02*
X0031800Y0173240D01*
X0031800Y0171642D02*
X0028817Y0171642D01*
X0028817Y0170043D02*
X0031800Y0170043D01*
X0031800Y0168445D02*
X0027738Y0168445D01*
X0031800Y0166846D02*
X0011800Y0166846D01*
X0011800Y0165248D02*
X0031800Y0165248D01*
X0031800Y0163649D02*
X0011800Y0163649D01*
X0011800Y0162051D02*
X0015647Y0162051D01*
X0015138Y0160452D02*
X0011800Y0160452D01*
X0011800Y0158854D02*
X0015138Y0158854D01*
X0015138Y0157255D02*
X0011800Y0157255D01*
X0011800Y0155657D02*
X0015185Y0155657D01*
X0018919Y0158854D02*
X0019681Y0158854D01*
X0019681Y0158815D02*
X0019681Y0162596D01*
X0021899Y0162596D01*
X0022357Y0162473D01*
X0022767Y0162236D01*
X0023103Y0161901D01*
X0023340Y0161491D01*
X0023462Y0161033D01*
X0023462Y0158815D01*
X0019681Y0158815D01*
X0019681Y0160452D02*
X0018919Y0160452D01*
X0018919Y0162051D02*
X0019681Y0162051D01*
X0022953Y0162051D02*
X0031800Y0162051D01*
X0034300Y0165248D02*
X0074300Y0165248D01*
X0074300Y0166846D02*
X0034300Y0166846D01*
X0034300Y0168445D02*
X0040862Y0168445D01*
X0040889Y0168430D02*
X0041346Y0168307D01*
X0046394Y0168307D01*
X0046394Y0176000D01*
X0047994Y0176000D01*
X0047994Y0177600D01*
X0046394Y0177600D01*
X0046394Y0185293D01*
X0041346Y0185293D01*
X0040889Y0185170D01*
X0040478Y0184933D01*
X0040143Y0184598D01*
X0039906Y0184188D01*
X0039783Y0183730D01*
X0039783Y0177600D01*
X0046394Y0177600D01*
X0046394Y0176000D01*
X0039783Y0176000D01*
X0039783Y0169870D01*
X0039906Y0169412D01*
X0040143Y0169002D01*
X0040478Y0168667D01*
X0040889Y0168430D01*
X0039783Y0170043D02*
X0034300Y0170043D01*
X0034300Y0171642D02*
X0039783Y0171642D01*
X0039783Y0173240D02*
X0034300Y0173240D01*
X0034300Y0174839D02*
X0039783Y0174839D01*
X0039783Y0178036D02*
X0034300Y0178036D01*
X0034300Y0179634D02*
X0039783Y0179634D01*
X0039783Y0181233D02*
X0034300Y0181233D01*
X0034300Y0182832D02*
X0039783Y0182832D01*
X0040046Y0184430D02*
X0034300Y0184430D01*
X0031800Y0184430D02*
X0028554Y0184430D01*
X0028457Y0184598D02*
X0028122Y0184933D01*
X0027711Y0185170D01*
X0027254Y0185293D01*
X0022206Y0185293D01*
X0022206Y0177600D01*
X0028817Y0177600D01*
X0028817Y0183730D01*
X0028694Y0184188D01*
X0028457Y0184598D01*
X0028817Y0182832D02*
X0031800Y0182832D01*
X0031800Y0181233D02*
X0028817Y0181233D01*
X0028817Y0179634D02*
X0031800Y0179634D01*
X0031800Y0178036D02*
X0028817Y0178036D01*
X0034300Y0176437D02*
X0046394Y0176437D01*
X0046394Y0174839D02*
X0047994Y0174839D01*
X0047994Y0176000D02*
X0047994Y0168307D01*
X0053041Y0168307D01*
X0053499Y0168430D01*
X0053909Y0168667D01*
X0054244Y0169002D01*
X0054481Y0169412D01*
X0054604Y0169870D01*
X0054604Y0176000D01*
X0047994Y0176000D01*
X0047994Y0176437D02*
X0070474Y0176437D01*
X0070474Y0176320D02*
X0066594Y0176320D01*
X0066594Y0173610D01*
X0066717Y0173152D01*
X0066954Y0172742D01*
X0067289Y0172407D01*
X0067700Y0172170D01*
X0068158Y0172047D01*
X0070474Y0172047D01*
X0070474Y0176320D01*
X0070474Y0174839D02*
X0071433Y0174839D01*
X0071433Y0173240D02*
X0070474Y0173240D01*
X0066694Y0173240D02*
X0054604Y0173240D01*
X0054604Y0171642D02*
X0074300Y0171642D01*
X0074300Y0170043D02*
X0054604Y0170043D01*
X0053525Y0168445D02*
X0074300Y0168445D01*
X0071433Y0178036D02*
X0070474Y0178036D01*
X0070474Y0179634D02*
X0071433Y0179634D01*
X0071433Y0181233D02*
X0070474Y0181233D01*
X0067358Y0181233D02*
X0054604Y0181233D01*
X0054604Y0179634D02*
X0066594Y0179634D01*
X0066594Y0178036D02*
X0054604Y0178036D01*
X0054604Y0174839D02*
X0066594Y0174839D01*
X0084300Y0179300D02*
X0086800Y0179300D01*
X0086800Y0180363D01*
X0087863Y0179300D01*
X0086800Y0178237D01*
X0086800Y0179300D01*
X0095737Y0179300D02*
X0100580Y0179300D01*
X0103080Y0176800D01*
X0103080Y0182017D01*
X0105363Y0184300D01*
X0113237Y0184300D02*
X0134300Y0184300D01*
X0146800Y0190363D02*
X0150363Y0189300D01*
X0154300Y0189300D01*
X0156800Y0191800D01*
X0164300Y0214300D02*
X0164300Y0220737D01*
X0165363Y0221800D01*
X0169300Y0217999D02*
X0169597Y0217999D01*
X0172954Y0217999D02*
X0173520Y0217999D01*
X0173520Y0219597D02*
X0172954Y0219597D01*
X0172954Y0221196D02*
X0173520Y0221196D01*
X0173520Y0222794D02*
X0172954Y0222794D01*
X0172954Y0224393D02*
X0173520Y0224393D01*
X0173520Y0225991D02*
X0172954Y0225991D01*
X0169961Y0225991D02*
X0169300Y0225991D01*
X0149300Y0239300D02*
X0146800Y0236800D01*
X0146800Y0215737D01*
X0144300Y0239300D02*
X0151800Y0246800D01*
X0149300Y0251800D02*
X0146800Y0254300D01*
X0146800Y0264300D01*
X0149300Y0266800D01*
X0154300Y0274300D02*
X0154300Y0296800D01*
X0161800Y0303060D02*
X0163040Y0301800D01*
X0161800Y0310540D02*
X0161800Y0316800D01*
X0164300Y0311800D02*
X0169300Y0316800D01*
X0171500Y0316800D01*
X0171800Y0316500D01*
X0171800Y0325560D01*
X0180560Y0325560D01*
X0181800Y0326800D01*
X0173060Y0334300D02*
X0171800Y0333040D01*
X0170560Y0333040D01*
X0173060Y0334300D02*
X0181800Y0334300D01*
X0184300Y0339300D02*
X0181800Y0341800D01*
X0181800Y0343060D01*
X0180560Y0344300D01*
X0179300Y0345560D01*
X0171524Y0345560D01*
X0175265Y0349300D02*
X0186800Y0349300D01*
X0188040Y0348060D01*
X0188040Y0344300D01*
X0194300Y0344300D01*
X0199300Y0344300D02*
X0199300Y0341800D01*
X0194300Y0336800D01*
X0194300Y0321800D01*
X0201800Y0319300D02*
X0209300Y0311800D01*
X0209300Y0319300D02*
X0209300Y0324300D01*
X0209300Y0319300D02*
X0215973Y0319300D01*
X0201800Y0319300D02*
X0201800Y0325560D01*
X0201800Y0324300D01*
X0201800Y0333040D02*
X0205540Y0333040D01*
X0206800Y0334300D01*
X0211800Y0334300D01*
X0206800Y0339300D01*
X0204300Y0339300D01*
X0209300Y0341800D02*
X0209300Y0349300D01*
X0229300Y0349300D01*
X0229300Y0342902D01*
X0235702Y0342902D01*
X0235702Y0340343D02*
X0231583Y0340343D01*
X0225540Y0334300D01*
X0226800Y0334300D01*
X0231800Y0329300D01*
X0244300Y0329300D01*
X0246800Y0326800D01*
X0246800Y0319300D01*
X0237627Y0319300D01*
X0234300Y0306800D02*
X0226100Y0306800D01*
X0226100Y0296800D02*
X0229300Y0296800D01*
X0226100Y0291800D02*
X0226800Y0291100D01*
X0226800Y0289300D01*
X0229300Y0286800D01*
X0234800Y0292863D02*
X0234800Y0293300D01*
X0246800Y0289300D02*
X0251800Y0284300D01*
X0251800Y0293237D01*
X0252863Y0294300D01*
X0252863Y0304300D01*
X0251800Y0305363D01*
X0261800Y0305363D01*
X0265737Y0305363D01*
X0266800Y0304300D01*
X0266800Y0296800D01*
X0264300Y0291800D02*
X0269300Y0291800D01*
X0271800Y0294300D01*
X0271800Y0306800D01*
X0266800Y0311800D01*
X0266800Y0314300D01*
X0269300Y0316800D01*
X0269300Y0331800D01*
X0266800Y0334300D01*
X0266800Y0341800D01*
X0265698Y0342902D01*
X0257898Y0342902D01*
X0257898Y0340343D02*
X0263257Y0340343D01*
X0264300Y0339300D01*
X0264300Y0330934D01*
X0261800Y0328434D01*
X0257898Y0335398D02*
X0251800Y0329300D01*
X0251800Y0328434D01*
X0251800Y0320166D02*
X0251800Y0313237D01*
X0261800Y0313237D02*
X0261800Y0320166D01*
X0271800Y0321800D02*
X0276800Y0316800D01*
X0279300Y0316800D01*
X0284300Y0314300D02*
X0284300Y0311800D01*
X0281800Y0309300D01*
X0281800Y0306800D01*
X0284300Y0304300D01*
X0279300Y0304300D02*
X0278040Y0304300D01*
X0276800Y0305540D01*
X0276800Y0309300D01*
X0271800Y0314300D01*
X0271800Y0321800D02*
X0271800Y0324300D01*
X0276800Y0324300D01*
X0271800Y0324300D02*
X0271800Y0334300D01*
X0269300Y0336800D01*
X0269300Y0344300D01*
X0268139Y0345461D01*
X0257898Y0345461D01*
X0257898Y0350580D02*
X0268520Y0350580D01*
X0273800Y0345300D01*
X0273800Y0336300D01*
X0283800Y0326300D01*
X0283800Y0324800D01*
X0284300Y0324300D01*
X0286800Y0324300D01*
X0289300Y0326800D01*
X0289300Y0329300D01*
X0294300Y0329300D02*
X0304600Y0329300D01*
X0304600Y0334300D02*
X0294300Y0334300D01*
X0291800Y0336800D01*
X0291800Y0346800D01*
X0301800Y0356800D01*
X0301800Y0359300D01*
X0299300Y0361800D01*
X0299300Y0364300D01*
X0304300Y0361800D02*
X0304300Y0349600D01*
X0304600Y0349300D01*
X0304600Y0344300D02*
X0296800Y0344300D01*
X0296800Y0339300D02*
X0304600Y0339300D01*
X0289300Y0346800D02*
X0286800Y0344300D01*
X0277961Y0353139D01*
X0257898Y0353139D01*
X0257898Y0355698D02*
X0270698Y0355698D01*
X0274300Y0359300D01*
X0276800Y0356800D01*
X0274300Y0359300D02*
X0274300Y0364300D01*
X0269300Y0369300D01*
X0259300Y0369300D01*
X0254300Y0366800D02*
X0256800Y0364300D01*
X0257898Y0363202D01*
X0257898Y0360816D01*
X0257898Y0363202D02*
X0265398Y0363202D01*
X0269300Y0359300D01*
X0264300Y0359300D02*
X0263257Y0358257D01*
X0257898Y0358257D01*
X0254300Y0366800D02*
X0250540Y0366800D01*
X0243060Y0366800D02*
X0239300Y0366800D01*
X0235702Y0360816D02*
X0228316Y0360816D01*
X0226800Y0359300D01*
X0226800Y0356800D01*
X0221800Y0351800D01*
X0206800Y0351800D01*
X0199300Y0344300D01*
X0199300Y0351800D02*
X0201800Y0354300D01*
X0214300Y0354300D01*
X0226800Y0366800D01*
X0226800Y0371800D02*
X0231800Y0371800D01*
X0234300Y0374300D01*
X0271800Y0374300D01*
X0284300Y0361800D01*
X0284300Y0351800D01*
X0289300Y0346800D02*
X0289300Y0366800D01*
X0284300Y0366800D01*
X0274300Y0376800D01*
X0231800Y0376800D01*
X0229300Y0374300D01*
X0224300Y0374300D01*
X0209300Y0359300D01*
X0171800Y0359300D01*
X0161800Y0369300D01*
X0161800Y0416800D01*
X0164300Y0419300D01*
X0269300Y0419300D01*
X0271800Y0416800D01*
X0271800Y0401800D01*
X0271800Y0391800D02*
X0271800Y0386800D01*
X0274300Y0384300D01*
X0289300Y0384300D01*
X0311800Y0361800D01*
X0316800Y0361800D01*
X0324300Y0369300D01*
X0329300Y0369300D01*
X0334300Y0364300D01*
X0334300Y0369300D02*
X0339300Y0364300D01*
X0339300Y0346800D01*
X0334300Y0341800D01*
X0334300Y0326800D01*
X0336800Y0324300D01*
X0336800Y0319300D01*
X0351800Y0304300D01*
X0359300Y0304300D01*
X0369300Y0294300D01*
X0369300Y0281800D01*
X0364300Y0276800D01*
X0364300Y0259300D01*
X0359300Y0254300D01*
X0359300Y0249300D01*
X0356800Y0246800D01*
X0356800Y0234300D01*
X0359300Y0231800D01*
X0359300Y0211800D01*
X0361800Y0209300D01*
X0366800Y0209300D02*
X0360550Y0203050D01*
X0356800Y0206800D01*
X0356800Y0229300D01*
X0354300Y0231800D01*
X0354300Y0249300D01*
X0356800Y0251800D01*
X0356800Y0256800D01*
X0361800Y0261800D01*
X0361800Y0279300D01*
X0366800Y0284300D01*
X0366800Y0291800D01*
X0361800Y0296800D01*
X0356800Y0301800D01*
X0349300Y0301800D01*
X0334300Y0316800D01*
X0329300Y0311800D01*
X0299300Y0311800D01*
X0296800Y0309300D01*
X0296800Y0306800D01*
X0297902Y0305698D01*
X0303000Y0305698D01*
X0303000Y0303139D02*
X0295461Y0303139D01*
X0289300Y0309300D01*
X0286800Y0309300D01*
X0284300Y0314300D02*
X0289300Y0319300D01*
X0304600Y0319300D01*
X0304600Y0324300D02*
X0294300Y0324300D01*
X0289300Y0314300D02*
X0324300Y0314300D01*
X0324300Y0319000D01*
X0324000Y0319300D01*
X0324000Y0324300D02*
X0331800Y0324300D01*
X0341800Y0319300D02*
X0351800Y0309300D01*
X0356800Y0311800D02*
X0351800Y0316800D01*
X0351800Y0330560D01*
X0356800Y0325560D02*
X0361800Y0330560D01*
X0356800Y0325560D02*
X0356800Y0319300D01*
X0361800Y0314300D01*
X0361800Y0306800D01*
X0356800Y0296800D02*
X0356800Y0292902D01*
X0358198Y0292902D01*
X0361800Y0289300D01*
X0361800Y0286800D01*
X0359300Y0284300D01*
X0359300Y0264300D01*
X0354300Y0259300D01*
X0354300Y0254300D01*
X0351800Y0251800D01*
X0351800Y0229300D01*
X0354300Y0226800D01*
X0354300Y0214300D01*
X0349300Y0209300D01*
X0344300Y0211800D02*
X0344300Y0201800D01*
X0344300Y0195300D01*
X0343300Y0194300D01*
X0347776Y0190824D02*
X0336945Y0190824D01*
X0337137Y0189226D02*
X0349374Y0189226D01*
X0350973Y0187627D02*
X0336884Y0187627D01*
X0336800Y0184300D02*
X0343300Y0184300D01*
X0347200Y0184430D02*
X0354170Y0184430D01*
X0355768Y0182832D02*
X0347200Y0182832D01*
X0347200Y0186029D02*
X0352571Y0186029D01*
X0365300Y0189300D02*
X0369300Y0189300D01*
X0369300Y0199300D01*
X0366800Y0201800D01*
X0364300Y0199300D02*
X0360550Y0203050D01*
X0364300Y0199300D02*
X0364300Y0195300D01*
X0365300Y0194300D01*
X0366800Y0209300D02*
X0366800Y0216800D01*
X0351800Y0219300D02*
X0351800Y0224300D01*
X0349300Y0226800D01*
X0349300Y0254300D01*
X0351800Y0256800D01*
X0351800Y0261800D01*
X0356800Y0266800D01*
X0356800Y0289300D01*
X0355757Y0290343D01*
X0325600Y0290343D01*
X0325600Y0292902D02*
X0356800Y0292902D01*
X0344300Y0284300D02*
X0341800Y0286800D01*
X0331800Y0286800D01*
X0324000Y0282100D02*
X0321800Y0284300D01*
X0301800Y0284300D01*
X0301800Y0289143D01*
X0303000Y0290343D01*
X0292843Y0290343D01*
X0291800Y0289300D01*
X0290402Y0292902D02*
X0286800Y0289300D01*
X0296800Y0279300D01*
X0304600Y0279300D01*
X0304600Y0274300D02*
X0296800Y0274300D01*
X0296800Y0269300D02*
X0304600Y0269300D01*
X0296800Y0251800D02*
X0294300Y0249300D01*
X0294300Y0239300D01*
X0296800Y0236800D01*
X0294300Y0234300D01*
X0294300Y0231800D01*
X0296800Y0229300D02*
X0296800Y0224300D01*
X0294300Y0224300D01*
X0296800Y0224300D02*
X0296800Y0199300D01*
X0301800Y0194300D01*
X0304300Y0196800D02*
X0306800Y0196800D01*
X0309300Y0199300D01*
X0313060Y0199300D01*
X0320540Y0199300D02*
X0324300Y0199300D01*
X0326800Y0196800D02*
X0326800Y0191800D01*
X0324300Y0189300D01*
X0328800Y0188800D02*
X0328800Y0181800D01*
X0333975Y0182832D02*
X0311800Y0182832D01*
X0311800Y0181233D02*
X0334600Y0181233D01*
X0335854Y0179634D02*
X0311800Y0179634D01*
X0311800Y0178036D02*
X0337453Y0178036D01*
X0331800Y0189300D02*
X0328800Y0188800D01*
X0326800Y0196800D02*
X0336800Y0206800D01*
X0336800Y0214300D01*
X0334300Y0216800D01*
X0336800Y0219300D01*
X0334300Y0216800D02*
X0324930Y0216800D01*
X0324930Y0211800D02*
X0331800Y0211800D01*
X0331800Y0206800D02*
X0324930Y0206800D01*
X0324930Y0221800D02*
X0329300Y0221800D01*
X0331800Y0224300D01*
X0329300Y0226800D02*
X0331800Y0229300D01*
X0336800Y0229300D01*
X0346800Y0219300D01*
X0346800Y0224300D02*
X0346800Y0256800D01*
X0349300Y0259300D01*
X0349300Y0264300D01*
X0351800Y0266800D01*
X0344300Y0269300D02*
X0331800Y0269300D01*
X0324000Y0269300D01*
X0324000Y0264300D02*
X0344300Y0264300D01*
X0344300Y0259300D02*
X0339300Y0254300D01*
X0324000Y0254300D01*
X0324000Y0249300D02*
X0331800Y0249300D01*
X0333060Y0241800D02*
X0326800Y0241800D01*
X0321800Y0246800D01*
X0306800Y0246800D01*
X0304600Y0249000D01*
X0304600Y0249300D01*
X0304300Y0249300D01*
X0299300Y0244300D01*
X0301800Y0241800D02*
X0301800Y0236800D01*
X0303670Y0236800D01*
X0303670Y0231800D02*
X0299300Y0231800D01*
X0296800Y0229300D01*
X0291800Y0236800D02*
X0291800Y0251800D01*
X0286800Y0254300D02*
X0286800Y0246800D01*
X0281800Y0246800D02*
X0281800Y0254300D01*
X0276800Y0254300D02*
X0276800Y0239300D01*
X0279300Y0236800D01*
X0284024Y0236800D01*
X0284300Y0236524D01*
X0280560Y0227076D02*
X0280560Y0223060D01*
X0279300Y0221800D01*
X0284300Y0221800D01*
X0279300Y0221800D02*
X0276800Y0219300D01*
X0276800Y0204300D01*
X0278040Y0203060D01*
X0281800Y0203060D01*
X0288060Y0203060D01*
X0289300Y0204300D01*
X0294300Y0204300D02*
X0289300Y0209300D01*
X0286800Y0211800D01*
X0283060Y0211800D01*
X0281800Y0210540D01*
X0286800Y0211800D02*
X0288040Y0213040D01*
X0288040Y0227076D01*
X0273040Y0224576D02*
X0273040Y0213040D01*
X0271800Y0211800D01*
X0269300Y0221800D02*
X0264300Y0221800D01*
X0263060Y0223040D01*
X0263060Y0227076D01*
X0259300Y0224300D02*
X0256800Y0226800D01*
X0255816Y0226800D01*
X0255540Y0227076D01*
X0259300Y0224300D02*
X0259300Y0214300D01*
X0256800Y0211800D01*
X0253060Y0211800D01*
X0251800Y0210540D01*
X0251800Y0216800D01*
X0249300Y0221800D02*
X0248060Y0223040D01*
X0248060Y0227076D01*
X0249300Y0221800D02*
X0254300Y0221800D01*
X0249300Y0221800D02*
X0246800Y0219300D01*
X0246800Y0204300D01*
X0248040Y0203060D01*
X0251800Y0203060D01*
X0261800Y0219300D02*
X0264300Y0221800D01*
X0270540Y0227076D02*
X0273040Y0224576D01*
X0266800Y0236524D02*
X0266800Y0254300D01*
X0261800Y0254300D02*
X0261800Y0246800D01*
X0256800Y0241524D02*
X0251800Y0236524D01*
X0249300Y0241800D02*
X0251800Y0244300D01*
X0251800Y0249300D01*
X0249300Y0249300D01*
X0246800Y0251800D01*
X0246800Y0254300D01*
X0251800Y0254300D02*
X0251800Y0249300D01*
X0256800Y0254300D02*
X0256800Y0241524D01*
X0249300Y0241800D02*
X0238040Y0241800D01*
X0230560Y0241800D02*
X0229300Y0241800D01*
X0226800Y0239300D01*
X0238040Y0231800D02*
X0239300Y0231800D01*
X0249300Y0241800D01*
X0238040Y0251800D02*
X0238040Y0255540D01*
X0241800Y0259300D01*
X0239300Y0261800D01*
X0239300Y0265560D01*
X0234300Y0259300D02*
X0230560Y0259300D01*
X0230560Y0264300D01*
X0229300Y0265560D01*
X0230560Y0259300D02*
X0230560Y0251800D01*
X0214300Y0250855D02*
X0214300Y0246800D01*
X0211800Y0246800D01*
X0214300Y0250855D02*
X0212213Y0252942D01*
X0224300Y0271800D02*
X0225540Y0273040D01*
X0229300Y0273040D01*
X0239300Y0273040D02*
X0240540Y0273040D01*
X0246800Y0279300D01*
X0251800Y0284300D02*
X0252863Y0284300D01*
X0260737Y0284300D02*
X0263237Y0281800D01*
X0269300Y0281800D01*
X0274300Y0286800D02*
X0276800Y0289300D01*
X0276800Y0298060D01*
X0279300Y0304300D02*
X0285580Y0298020D01*
X0303000Y0298020D01*
X0303000Y0295461D02*
X0287961Y0295461D01*
X0286800Y0294300D01*
X0290402Y0292902D02*
X0303000Y0292902D01*
X0303000Y0300580D02*
X0293020Y0300580D01*
X0291800Y0301800D01*
X0276800Y0305540D02*
X0275560Y0305540D01*
X0264300Y0291800D02*
X0261800Y0294300D01*
X0260737Y0294300D01*
X0257898Y0335398D02*
X0257898Y0337784D01*
X0276800Y0341800D02*
X0279300Y0341800D01*
X0276800Y0341800D02*
X0276800Y0349300D01*
X0286800Y0344300D02*
X0286800Y0339300D01*
X0284300Y0336800D01*
X0284300Y0334300D01*
X0296800Y0356800D02*
X0294300Y0359300D01*
X0294300Y0371800D01*
X0284300Y0381800D01*
X0226800Y0381800D01*
X0224300Y0379300D01*
X0214300Y0379300D01*
X0204300Y0369300D01*
X0204300Y0366800D01*
X0199300Y0361800D01*
X0174300Y0361800D01*
X0164300Y0371800D01*
X0164300Y0414300D01*
X0166800Y0416800D01*
X0259300Y0416800D01*
X0261800Y0414300D01*
X0261800Y0401800D01*
X0261800Y0391800D02*
X0261800Y0386800D01*
X0259300Y0384300D01*
X0224300Y0384300D01*
X0221800Y0381800D01*
X0211800Y0381800D01*
X0199300Y0369300D01*
X0199300Y0366800D01*
X0191800Y0366800D02*
X0209300Y0384300D01*
X0219300Y0384300D01*
X0221800Y0386800D01*
X0221800Y0391800D01*
X0211800Y0401800D02*
X0211800Y0411800D01*
X0209300Y0414300D01*
X0169300Y0414300D01*
X0166800Y0411800D01*
X0166800Y0374300D01*
X0169300Y0371800D01*
X0174300Y0374300D02*
X0169300Y0379300D01*
X0169300Y0409300D01*
X0171800Y0411800D01*
X0199300Y0411800D01*
X0201800Y0409300D01*
X0201800Y0401800D01*
X0191800Y0401800D02*
X0191800Y0406800D01*
X0189300Y0409300D01*
X0174300Y0409300D01*
X0171800Y0406800D01*
X0171800Y0381800D01*
X0179300Y0374300D01*
X0179300Y0371800D01*
X0181800Y0374300D02*
X0181800Y0391800D01*
X0181800Y0374300D02*
X0186800Y0369300D01*
X0169300Y0356800D02*
X0211800Y0356800D01*
X0226800Y0371800D01*
X0226800Y0376800D02*
X0229300Y0379300D01*
X0277800Y0379300D01*
X0285800Y0371300D01*
X0288800Y0371300D01*
X0289300Y0371800D01*
X0294300Y0384300D02*
X0296800Y0384300D01*
X0294300Y0384300D02*
X0291800Y0386800D01*
X0291800Y0391800D01*
X0281800Y0401800D02*
X0281800Y0419300D01*
X0279300Y0421800D01*
X0161800Y0421800D01*
X0159300Y0419300D01*
X0159300Y0366800D01*
X0169300Y0356800D01*
X0171524Y0353040D02*
X0175265Y0349300D01*
X0162076Y0349300D02*
X0161800Y0346524D01*
X0161800Y0344300D01*
X0156800Y0349300D02*
X0156800Y0364300D01*
X0151800Y0369300D01*
X0151800Y0391800D01*
X0156800Y0396800D01*
X0156800Y0416800D01*
X0154300Y0419300D01*
X0146800Y0414300D02*
X0144300Y0416800D01*
X0140107Y0416800D01*
X0146800Y0406800D02*
X0151800Y0411800D01*
X0151800Y0406800D02*
X0146800Y0401800D01*
X0140107Y0401800D01*
X0140107Y0396800D02*
X0146800Y0396800D01*
X0151800Y0401800D01*
X0151800Y0396800D02*
X0146800Y0391800D01*
X0140107Y0391800D01*
X0140107Y0386800D02*
X0144300Y0386800D01*
X0146800Y0384300D01*
X0141800Y0381800D02*
X0144300Y0379300D01*
X0141800Y0381800D02*
X0140107Y0381800D01*
X0142607Y0371800D02*
X0140107Y0369300D01*
X0142607Y0371800D02*
X0144300Y0371800D01*
X0146800Y0364300D02*
X0140107Y0364300D01*
X0103493Y0364300D02*
X0099300Y0364300D01*
X0096800Y0366800D01*
X0098050Y0371800D02*
X0100993Y0371800D01*
X0103493Y0369300D01*
X0103493Y0359300D02*
X0099300Y0359300D01*
X0077253Y0381347D01*
X0042800Y0381347D01*
X0042800Y0375442D02*
X0078158Y0375442D01*
X0099300Y0354300D01*
X0103493Y0354300D01*
X0103493Y0349300D02*
X0099300Y0349300D01*
X0079064Y0369536D01*
X0042800Y0369536D01*
X0046800Y0364300D02*
X0079300Y0364300D01*
X0099300Y0344300D01*
X0103493Y0344300D01*
X0103493Y0334300D02*
X0103493Y0327607D01*
X0106800Y0324300D01*
X0110383Y0324300D01*
X0110383Y0319300D02*
X0104300Y0319300D01*
X0104300Y0314300D02*
X0110383Y0314300D01*
X0110383Y0309300D02*
X0104300Y0309300D01*
X0095737Y0321800D02*
X0098237Y0324300D01*
X0099300Y0324300D01*
X0095737Y0322863D02*
X0095737Y0321800D01*
X0087863Y0321800D02*
X0085363Y0324300D01*
X0084300Y0324300D01*
X0080540Y0325540D02*
X0080540Y0333591D01*
X0076800Y0333591D02*
X0076800Y0326800D01*
X0074300Y0324300D01*
X0070560Y0325560D02*
X0069300Y0324300D01*
X0073060Y0328060D01*
X0073060Y0333591D01*
X0064300Y0335363D02*
X0064300Y0326800D01*
X0059300Y0326800D02*
X0055540Y0330560D01*
X0055540Y0333591D01*
X0051800Y0333591D02*
X0051800Y0329300D01*
X0054300Y0326800D01*
X0059300Y0326800D02*
X0059300Y0319300D01*
X0057469Y0317469D01*
X0042800Y0317469D01*
X0042800Y0311564D02*
X0056564Y0311564D01*
X0061800Y0316800D01*
X0071800Y0316800D01*
X0080540Y0325540D01*
X0089300Y0329300D02*
X0089300Y0333060D01*
X0089300Y0340540D02*
X0089300Y0344300D01*
X0086800Y0346800D01*
X0081800Y0346800D01*
X0080540Y0345540D01*
X0080540Y0345009D01*
X0080540Y0353060D01*
X0079300Y0354300D01*
X0076800Y0351800D02*
X0074300Y0354300D01*
X0074300Y0356800D01*
X0075550Y0358050D01*
X0071800Y0359300D02*
X0071800Y0351800D01*
X0073060Y0350540D01*
X0073060Y0345009D01*
X0076800Y0345009D02*
X0076800Y0351800D01*
X0069300Y0349300D02*
X0065540Y0353060D01*
X0065540Y0354300D01*
X0063060Y0348040D02*
X0056800Y0348040D01*
X0058060Y0349300D01*
X0058060Y0354300D01*
X0051800Y0354300D02*
X0051800Y0345009D01*
X0048060Y0345009D02*
X0048060Y0350560D01*
X0048060Y0358060D01*
X0049300Y0359300D01*
X0071800Y0359300D01*
X0063060Y0348040D02*
X0064300Y0346800D01*
X0064300Y0343237D01*
X0056800Y0348040D02*
X0055540Y0348040D01*
X0055540Y0345009D01*
X0048060Y0350560D02*
X0046820Y0351800D01*
X0044300Y0351800D01*
X0044300Y0346800D01*
X0043237Y0345737D01*
X0011800Y0345737D01*
X0011800Y0337863D02*
X0020737Y0337863D01*
X0021800Y0336800D01*
X0027863Y0336800D01*
X0035737Y0336800D02*
X0041800Y0336800D01*
X0044300Y0334300D01*
X0044300Y0329300D01*
X0048060Y0329300D01*
X0048060Y0323040D01*
X0049300Y0321800D01*
X0048060Y0329300D02*
X0048060Y0333591D01*
X0046131Y0363631D02*
X0042800Y0363631D01*
X0046131Y0363631D02*
X0046800Y0364300D01*
X0049300Y0386800D02*
X0048847Y0387253D01*
X0042800Y0387253D01*
X0042800Y0393158D02*
X0050442Y0393158D01*
X0054300Y0389300D01*
X0089300Y0389300D01*
X0096800Y0396800D01*
X0103493Y0396800D01*
X0103493Y0391800D02*
X0096800Y0391800D01*
X0091800Y0386800D01*
X0049300Y0386800D01*
X0059300Y0391800D02*
X0086800Y0391800D01*
X0096800Y0401800D01*
X0103493Y0401800D01*
X0103493Y0406800D02*
X0096800Y0406800D01*
X0084300Y0394300D01*
X0064300Y0394300D01*
X0053631Y0404969D01*
X0042800Y0404969D01*
X0043469Y0404300D01*
X0046800Y0404300D01*
X0046800Y0399300D02*
X0043036Y0399300D01*
X0042800Y0399064D01*
X0052036Y0399064D01*
X0059300Y0391800D01*
X0098050Y0386800D02*
X0103493Y0386800D01*
X0103493Y0381800D02*
X0098050Y0381800D01*
X0140107Y0406800D02*
X0146800Y0406800D01*
X0103493Y0416800D02*
X0098050Y0416800D01*
X0184300Y0339300D02*
X0186800Y0339300D01*
X0189300Y0336800D01*
X0211800Y0334300D02*
X0214300Y0334300D01*
X0218060Y0334300D01*
X0214300Y0334300D02*
X0214300Y0343040D01*
X0215560Y0344300D01*
X0223040Y0344300D02*
X0224438Y0342902D01*
X0229300Y0342902D01*
X0235702Y0337784D02*
X0234300Y0336383D01*
X0234300Y0334300D01*
X0229300Y0354300D02*
X0229300Y0356800D01*
X0230757Y0358257D01*
X0235702Y0358257D01*
X0226800Y0376800D02*
X0216800Y0376800D01*
X0211800Y0371800D01*
X0176800Y0316500D02*
X0171800Y0316500D01*
X0164300Y0311800D02*
X0161800Y0310540D01*
X0186800Y0297100D02*
X0186800Y0291800D01*
X0174300Y0279300D02*
X0174300Y0272745D01*
X0176387Y0270658D01*
X0174664Y0268936D02*
X0174182Y0268454D01*
X0119300Y0271800D02*
X0091800Y0271800D01*
X0091800Y0251800D01*
X0079300Y0251800D01*
X0079300Y0252047D01*
X0079667Y0252047D01*
X0079667Y0256320D01*
X0080626Y0256320D01*
X0080626Y0252047D01*
X0082942Y0252047D01*
X0083400Y0252170D01*
X0083811Y0252407D01*
X0084146Y0252742D01*
X0084383Y0253152D01*
X0084505Y0253610D01*
X0084505Y0256320D01*
X0080626Y0256320D01*
X0080626Y0257280D01*
X0079667Y0257280D01*
X0079667Y0261553D01*
X0079300Y0261553D01*
X0079300Y0262047D01*
X0079667Y0262047D01*
X0079667Y0266320D01*
X0080626Y0266320D01*
X0080626Y0262047D01*
X0082942Y0262047D01*
X0083400Y0262170D01*
X0083811Y0262407D01*
X0084146Y0262742D01*
X0084383Y0263152D01*
X0084505Y0263610D01*
X0084505Y0266320D01*
X0080626Y0266320D01*
X0080626Y0267280D01*
X0079667Y0267280D01*
X0079667Y0271553D01*
X0079300Y0271553D01*
X0079300Y0272047D01*
X0079667Y0272047D01*
X0079667Y0276320D01*
X0080626Y0276320D01*
X0080626Y0272047D01*
X0082942Y0272047D01*
X0083400Y0272170D01*
X0083811Y0272407D01*
X0084146Y0272742D01*
X0084383Y0273152D01*
X0084505Y0273610D01*
X0084505Y0276320D01*
X0080626Y0276320D01*
X0080626Y0277280D01*
X0079667Y0277280D01*
X0079667Y0281553D01*
X0079300Y0281553D01*
X0079300Y0281800D01*
X0084300Y0281800D01*
X0084300Y0284095D01*
X0084394Y0283743D01*
X0084631Y0283333D01*
X0084966Y0282997D01*
X0085377Y0282760D01*
X0085835Y0282638D01*
X0088053Y0282638D01*
X0088053Y0286419D01*
X0088815Y0286419D01*
X0088815Y0287181D01*
X0092596Y0287181D01*
X0092596Y0289399D01*
X0092473Y0289857D01*
X0092236Y0290267D01*
X0091901Y0290603D01*
X0091491Y0290840D01*
X0091033Y0290962D01*
X0088815Y0290962D01*
X0088815Y0287181D01*
X0088053Y0287181D01*
X0088053Y0290962D01*
X0085835Y0290962D01*
X0085377Y0290840D01*
X0084966Y0290603D01*
X0084631Y0290267D01*
X0084394Y0289857D01*
X0084300Y0289505D01*
X0084300Y0291800D01*
X0119300Y0291800D01*
X0119300Y0271800D01*
X0119300Y0272348D02*
X0083709Y0272348D01*
X0083400Y0271430D02*
X0082942Y0271553D01*
X0080626Y0271553D01*
X0080626Y0267280D01*
X0084505Y0267280D01*
X0084505Y0269990D01*
X0084383Y0270448D01*
X0084146Y0270858D01*
X0083811Y0271193D01*
X0083400Y0271430D01*
X0084208Y0270750D02*
X0091800Y0270750D01*
X0091800Y0269151D02*
X0084505Y0269151D01*
X0084505Y0267553D02*
X0091800Y0267553D01*
X0091800Y0265954D02*
X0084505Y0265954D01*
X0084505Y0264356D02*
X0091800Y0264356D01*
X0091800Y0262757D02*
X0084155Y0262757D01*
X0083400Y0261430D02*
X0082942Y0261553D01*
X0080626Y0261553D01*
X0080626Y0257280D01*
X0084505Y0257280D01*
X0084505Y0259990D01*
X0084383Y0260448D01*
X0084146Y0260858D01*
X0083811Y0261193D01*
X0083400Y0261430D01*
X0083845Y0261159D02*
X0091800Y0261159D01*
X0091800Y0259560D02*
X0084505Y0259560D01*
X0084505Y0257962D02*
X0091800Y0257962D01*
X0091800Y0256363D02*
X0080626Y0256363D01*
X0080626Y0254765D02*
X0079667Y0254765D01*
X0079667Y0253166D02*
X0080626Y0253166D01*
X0084386Y0253166D02*
X0091800Y0253166D01*
X0091800Y0254765D02*
X0084505Y0254765D01*
X0080626Y0257962D02*
X0079667Y0257962D01*
X0079667Y0259560D02*
X0080626Y0259560D01*
X0080626Y0261159D02*
X0079667Y0261159D01*
X0079667Y0262757D02*
X0080626Y0262757D01*
X0080626Y0264356D02*
X0079667Y0264356D01*
X0079667Y0265954D02*
X0080626Y0265954D01*
X0080626Y0267553D02*
X0079667Y0267553D01*
X0079667Y0269151D02*
X0080626Y0269151D01*
X0080626Y0270750D02*
X0079667Y0270750D01*
X0079667Y0272348D02*
X0080626Y0272348D01*
X0080626Y0273947D02*
X0079667Y0273947D01*
X0079667Y0275545D02*
X0080626Y0275545D01*
X0080626Y0277144D02*
X0098307Y0277144D01*
X0098307Y0276346D02*
X0098430Y0275889D01*
X0098667Y0275478D01*
X0099002Y0275143D01*
X0099412Y0274906D01*
X0099870Y0274783D01*
X0106000Y0274783D01*
X0106000Y0281394D01*
X0098307Y0281394D01*
X0098307Y0276346D01*
X0098628Y0275545D02*
X0084505Y0275545D01*
X0084505Y0273947D02*
X0119300Y0273947D01*
X0119300Y0275545D02*
X0114972Y0275545D01*
X0114933Y0275478D02*
X0115170Y0275889D01*
X0115293Y0276346D01*
X0115293Y0281394D01*
X0107600Y0281394D01*
X0107600Y0282994D01*
X0106000Y0282994D01*
X0106000Y0289604D01*
X0099870Y0289604D01*
X0099412Y0289481D01*
X0099002Y0289244D01*
X0098667Y0288909D01*
X0098430Y0288499D01*
X0098307Y0288041D01*
X0098307Y0282994D01*
X0106000Y0282994D01*
X0106000Y0281394D01*
X0107600Y0281394D01*
X0107600Y0274783D01*
X0113730Y0274783D01*
X0114188Y0274906D01*
X0114598Y0275143D01*
X0114933Y0275478D01*
X0115293Y0277144D02*
X0119300Y0277144D01*
X0119300Y0278742D02*
X0115293Y0278742D01*
X0115293Y0280341D02*
X0119300Y0280341D01*
X0119300Y0281939D02*
X0107600Y0281939D01*
X0107194Y0281800D02*
X0106800Y0282194D01*
X0106000Y0281939D02*
X0084300Y0281939D01*
X0083811Y0281193D02*
X0083400Y0281430D01*
X0082942Y0281553D01*
X0080626Y0281553D01*
X0080626Y0277280D01*
X0084505Y0277280D01*
X0084505Y0279990D01*
X0084383Y0280448D01*
X0084146Y0280858D01*
X0083811Y0281193D01*
X0084411Y0280341D02*
X0098307Y0280341D01*
X0098307Y0278742D02*
X0084505Y0278742D01*
X0080626Y0278742D02*
X0079667Y0278742D01*
X0079667Y0280341D02*
X0080626Y0280341D01*
X0076800Y0281377D02*
X0076707Y0281430D01*
X0076250Y0281553D01*
X0073933Y0281553D01*
X0073933Y0277280D01*
X0072974Y0277280D01*
X0072974Y0281553D01*
X0070658Y0281553D01*
X0070200Y0281430D01*
X0069789Y0281193D01*
X0069454Y0280858D01*
X0069217Y0280448D01*
X0069094Y0279990D01*
X0069094Y0277280D01*
X0072974Y0277280D01*
X0072974Y0276320D01*
X0073933Y0276320D01*
X0073933Y0272047D01*
X0076250Y0272047D01*
X0076707Y0272170D01*
X0076800Y0272223D01*
X0076800Y0271377D01*
X0076707Y0271430D01*
X0076250Y0271553D01*
X0073933Y0271553D01*
X0073933Y0267280D01*
X0072974Y0267280D01*
X0072974Y0271553D01*
X0070658Y0271553D01*
X0070200Y0271430D01*
X0069789Y0271193D01*
X0069454Y0270858D01*
X0069217Y0270448D01*
X0069094Y0269990D01*
X0069094Y0267280D01*
X0072974Y0267280D01*
X0072974Y0266320D01*
X0073933Y0266320D01*
X0073933Y0262047D01*
X0076250Y0262047D01*
X0076707Y0262170D01*
X0076800Y0262223D01*
X0076800Y0261377D01*
X0076707Y0261430D01*
X0076250Y0261553D01*
X0073933Y0261553D01*
X0073933Y0257280D01*
X0072974Y0257280D01*
X0072974Y0261553D01*
X0070658Y0261553D01*
X0070200Y0261430D01*
X0069789Y0261193D01*
X0069454Y0260858D01*
X0069217Y0260448D01*
X0069094Y0259990D01*
X0069094Y0257280D01*
X0072974Y0257280D01*
X0072974Y0256320D01*
X0073933Y0256320D01*
X0073933Y0252047D01*
X0076250Y0252047D01*
X0076707Y0252170D01*
X0076800Y0252223D01*
X0076800Y0249300D01*
X0091800Y0249300D01*
X0091800Y0239300D01*
X0092100Y0239300D01*
X0092100Y0235889D01*
X0092447Y0235541D01*
X0092447Y0234507D01*
X0092655Y0234300D01*
X0089300Y0234300D01*
X0089300Y0224300D01*
X0079300Y0224300D01*
X0079300Y0231800D01*
X0066800Y0231800D01*
X0066800Y0221800D01*
X0066377Y0221800D01*
X0066430Y0221893D01*
X0066553Y0222350D01*
X0066553Y0224667D01*
X0062280Y0224667D01*
X0062280Y0225626D01*
X0066553Y0225626D01*
X0066553Y0227942D01*
X0066430Y0228400D01*
X0066193Y0228811D01*
X0065858Y0229146D01*
X0065448Y0229383D01*
X0064990Y0229505D01*
X0062280Y0229505D01*
X0062280Y0225626D01*
X0061320Y0225626D01*
X0061320Y0224667D01*
X0057047Y0224667D01*
X0057047Y0222350D01*
X0057170Y0221893D01*
X0057223Y0221800D01*
X0056377Y0221800D01*
X0056430Y0221893D01*
X0056553Y0222350D01*
X0056553Y0224667D01*
X0052280Y0224667D01*
X0052280Y0225626D01*
X0056553Y0225626D01*
X0056553Y0227942D01*
X0056430Y0228400D01*
X0056193Y0228811D01*
X0055858Y0229146D01*
X0055448Y0229383D01*
X0054990Y0229505D01*
X0052280Y0229505D01*
X0052280Y0225626D01*
X0051320Y0225626D01*
X0051320Y0224667D01*
X0047047Y0224667D01*
X0047047Y0222350D01*
X0047170Y0221893D01*
X0047223Y0221800D01*
X0046377Y0221800D01*
X0046430Y0221893D01*
X0046553Y0222350D01*
X0046553Y0224667D01*
X0042280Y0224667D01*
X0042280Y0225626D01*
X0046553Y0225626D01*
X0046553Y0227942D01*
X0046430Y0228400D01*
X0046193Y0228811D01*
X0045858Y0229146D01*
X0045448Y0229383D01*
X0044990Y0229505D01*
X0042280Y0229505D01*
X0042280Y0225626D01*
X0041320Y0225626D01*
X0041320Y0224667D01*
X0037047Y0224667D01*
X0037047Y0222350D01*
X0037170Y0221893D01*
X0037223Y0221800D01*
X0036800Y0221800D01*
X0036800Y0234300D01*
X0049300Y0234300D01*
X0049300Y0286039D01*
X0049324Y0286130D01*
X0049324Y0287942D01*
X0049324Y0289754D01*
X0049300Y0289845D01*
X0049300Y0291944D01*
X0049324Y0292035D01*
X0049324Y0293847D01*
X0049300Y0293847D01*
X0049300Y0293847D01*
X0049324Y0293847D01*
X0049324Y0295659D01*
X0049300Y0295750D01*
X0049300Y0296800D01*
X0069300Y0296800D01*
X0069300Y0289899D01*
X0069206Y0290251D01*
X0068969Y0290661D01*
X0068634Y0290996D01*
X0068223Y0291233D01*
X0067765Y0291356D01*
X0065646Y0291356D01*
X0065646Y0287083D01*
X0065080Y0287083D01*
X0065080Y0291356D01*
X0062961Y0291356D01*
X0062503Y0291233D01*
X0062092Y0290996D01*
X0061757Y0290661D01*
X0061520Y0290251D01*
X0061398Y0289793D01*
X0061398Y0287083D01*
X0065080Y0287083D01*
X0065080Y0286517D01*
X0065646Y0286517D01*
X0065646Y0282244D01*
X0067765Y0282244D01*
X0068223Y0282367D01*
X0068634Y0282604D01*
X0068969Y0282939D01*
X0069206Y0283349D01*
X0069300Y0283701D01*
X0069300Y0281800D01*
X0076800Y0281800D01*
X0076800Y0281377D01*
X0073933Y0280341D02*
X0072974Y0280341D01*
X0072974Y0278742D02*
X0073933Y0278742D01*
X0072974Y0277144D02*
X0049300Y0277144D01*
X0049300Y0278742D02*
X0069094Y0278742D01*
X0069189Y0280341D02*
X0049300Y0280341D01*
X0049300Y0281939D02*
X0069300Y0281939D01*
X0069256Y0283538D02*
X0069300Y0283538D01*
X0065646Y0283538D02*
X0065080Y0283538D01*
X0065080Y0282244D02*
X0065080Y0286517D01*
X0061398Y0286517D01*
X0061398Y0283807D01*
X0061520Y0283349D01*
X0061757Y0282939D01*
X0062092Y0282604D01*
X0062503Y0282367D01*
X0062961Y0282244D01*
X0065080Y0282244D01*
X0065080Y0285136D02*
X0065646Y0285136D01*
X0065080Y0286735D02*
X0049324Y0286735D01*
X0049324Y0287942D02*
X0049300Y0287942D01*
X0049324Y0287942D01*
X0049300Y0287942D02*
X0049300Y0287942D01*
X0049324Y0288333D02*
X0061398Y0288333D01*
X0061435Y0289932D02*
X0049300Y0289932D01*
X0049300Y0291530D02*
X0069300Y0291530D01*
X0069291Y0289932D02*
X0069300Y0289932D01*
X0069300Y0293129D02*
X0049324Y0293129D01*
X0049324Y0294727D02*
X0069300Y0294727D01*
X0069300Y0296326D02*
X0049300Y0296326D01*
X0048126Y0296800D02*
X0059300Y0296800D01*
X0059300Y0286800D01*
X0031800Y0286800D01*
X0031800Y0296800D01*
X0037474Y0296800D01*
X0037496Y0296778D01*
X0048104Y0296778D01*
X0048126Y0296800D01*
X0042800Y0293847D02*
X0038253Y0294300D01*
X0042800Y0293847D02*
X0042800Y0287942D01*
X0046800Y0284300D02*
X0031800Y0284300D01*
X0031800Y0259300D01*
X0046800Y0259300D01*
X0046800Y0284300D01*
X0046800Y0283538D02*
X0031800Y0283538D01*
X0031800Y0281939D02*
X0046800Y0281939D01*
X0046800Y0280341D02*
X0031800Y0280341D01*
X0031800Y0278742D02*
X0046800Y0278742D01*
X0046800Y0277144D02*
X0031800Y0277144D01*
X0031800Y0275545D02*
X0046800Y0275545D01*
X0046800Y0273947D02*
X0031800Y0273947D01*
X0031800Y0272348D02*
X0046800Y0272348D01*
X0021800Y0272348D01*
X0021800Y0270838D02*
X0021800Y0284300D01*
X0036397Y0284300D01*
X0036276Y0283848D01*
X0036276Y0282036D01*
X0036276Y0280224D01*
X0036398Y0279767D01*
X0036635Y0279356D01*
X0036908Y0279083D01*
X0036635Y0278811D01*
X0036398Y0278400D01*
X0036276Y0277942D01*
X0036276Y0276131D01*
X0042800Y0276131D01*
X0042800Y0276131D01*
X0042800Y0278661D01*
X0042800Y0282036D01*
X0042800Y0282036D01*
X0042800Y0276131D01*
X0042800Y0276131D01*
X0042800Y0282036D01*
X0036276Y0282036D01*
X0042800Y0282036D01*
X0042800Y0282036D01*
X0042800Y0281939D02*
X0042800Y0281939D01*
X0042800Y0280341D02*
X0042800Y0280341D01*
X0042800Y0278742D02*
X0042800Y0278742D01*
X0042800Y0277144D02*
X0042800Y0277144D01*
X0042800Y0276131D02*
X0036276Y0276131D01*
X0036276Y0274319D01*
X0036398Y0273861D01*
X0036635Y0273451D01*
X0036970Y0273116D01*
X0037381Y0272879D01*
X0037839Y0272756D01*
X0042800Y0272756D01*
X0046800Y0272756D01*
X0046800Y0236800D01*
X0034300Y0236800D01*
X0034300Y0219300D01*
X0037047Y0219300D01*
X0037047Y0218933D01*
X0041320Y0218933D01*
X0041320Y0217974D01*
X0037047Y0217974D01*
X0037047Y0215658D01*
X0037170Y0215200D01*
X0037407Y0214789D01*
X0037742Y0214454D01*
X0038152Y0214217D01*
X0038610Y0214094D01*
X0041320Y0214094D01*
X0041320Y0217974D01*
X0042280Y0217974D01*
X0042280Y0218933D01*
X0046553Y0218933D01*
X0046553Y0219300D01*
X0047047Y0219300D01*
X0047047Y0218933D01*
X0051320Y0218933D01*
X0051320Y0217974D01*
X0047047Y0217974D01*
X0047047Y0215658D01*
X0047170Y0215200D01*
X0047407Y0214789D01*
X0047742Y0214454D01*
X0048152Y0214217D01*
X0048610Y0214094D01*
X0051320Y0214094D01*
X0051320Y0217974D01*
X0052280Y0217974D01*
X0052280Y0218933D01*
X0056553Y0218933D01*
X0056553Y0219300D01*
X0057047Y0219300D01*
X0057047Y0218933D01*
X0061320Y0218933D01*
X0061320Y0217974D01*
X0057047Y0217974D01*
X0057047Y0215658D01*
X0057170Y0215200D01*
X0057407Y0214789D01*
X0057742Y0214454D01*
X0058152Y0214217D01*
X0058610Y0214094D01*
X0061320Y0214094D01*
X0061320Y0217974D01*
X0062280Y0217974D01*
X0062280Y0218933D01*
X0066553Y0218933D01*
X0066553Y0219300D01*
X0066800Y0219300D01*
X0066800Y0214300D01*
X0074300Y0214300D01*
X0075520Y0215520D01*
X0080698Y0215520D01*
X0080698Y0218080D02*
X0071800Y0218080D01*
X0073689Y0216800D02*
X0069300Y0216800D01*
X0069300Y0229300D01*
X0076800Y0229300D01*
X0076800Y0222658D01*
X0076246Y0222104D01*
X0076246Y0219173D01*
X0076800Y0218619D01*
X0076800Y0217720D01*
X0074609Y0217720D01*
X0073689Y0216800D01*
X0074300Y0214300D02*
X0074300Y0209300D01*
X0086800Y0209300D01*
X0086800Y0204899D01*
X0086706Y0205251D01*
X0086469Y0205661D01*
X0086134Y0205996D01*
X0085723Y0206233D01*
X0085265Y0206356D01*
X0083146Y0206356D01*
X0083146Y0202083D01*
X0082580Y0202083D01*
X0082580Y0206356D01*
X0080461Y0206356D01*
X0080003Y0206233D01*
X0079592Y0205996D01*
X0079257Y0205661D01*
X0079020Y0205251D01*
X0078898Y0204793D01*
X0078898Y0202083D01*
X0082580Y0202083D01*
X0082580Y0201517D01*
X0078898Y0201517D01*
X0078898Y0199300D01*
X0021800Y0199300D01*
X0021800Y0260951D01*
X0029994Y0260951D01*
X0030814Y0261771D01*
X0030814Y0270018D01*
X0029994Y0270838D01*
X0021800Y0270838D01*
X0021800Y0273947D02*
X0036375Y0273947D01*
X0036276Y0275545D02*
X0021800Y0275545D01*
X0021800Y0277144D02*
X0036276Y0277144D01*
X0036596Y0278742D02*
X0021800Y0278742D01*
X0021800Y0280341D02*
X0036276Y0280341D01*
X0036276Y0281939D02*
X0021800Y0281939D01*
X0021800Y0283538D02*
X0036276Y0283538D01*
X0031800Y0288333D02*
X0059300Y0288333D01*
X0059300Y0289932D02*
X0031800Y0289932D01*
X0031800Y0291530D02*
X0059300Y0291530D01*
X0059300Y0293129D02*
X0031800Y0293129D01*
X0031800Y0294727D02*
X0059300Y0294727D01*
X0059300Y0296326D02*
X0031800Y0296326D01*
X0049300Y0285136D02*
X0061398Y0285136D01*
X0061470Y0283538D02*
X0049300Y0283538D01*
X0049300Y0275545D02*
X0069094Y0275545D01*
X0069094Y0276320D02*
X0069094Y0273610D01*
X0069217Y0273152D01*
X0069454Y0272742D01*
X0069789Y0272407D01*
X0070200Y0272170D01*
X0070658Y0272047D01*
X0072974Y0272047D01*
X0072974Y0276320D01*
X0069094Y0276320D01*
X0069094Y0273947D02*
X0049300Y0273947D01*
X0049300Y0272348D02*
X0069891Y0272348D01*
X0069392Y0270750D02*
X0049300Y0270750D01*
X0049300Y0269151D02*
X0069094Y0269151D01*
X0069094Y0267553D02*
X0049300Y0267553D01*
X0049300Y0265954D02*
X0069094Y0265954D01*
X0069094Y0266320D02*
X0069094Y0263610D01*
X0069217Y0263152D01*
X0069454Y0262742D01*
X0069789Y0262407D01*
X0070200Y0262170D01*
X0070658Y0262047D01*
X0072974Y0262047D01*
X0072974Y0266320D01*
X0069094Y0266320D01*
X0069094Y0264356D02*
X0049300Y0264356D01*
X0049300Y0262757D02*
X0069445Y0262757D01*
X0069755Y0261159D02*
X0049300Y0261159D01*
X0049300Y0259560D02*
X0069094Y0259560D01*
X0069094Y0257962D02*
X0049300Y0257962D01*
X0049300Y0256363D02*
X0072974Y0256363D01*
X0072974Y0256320D02*
X0069094Y0256320D01*
X0069094Y0253610D01*
X0069217Y0253152D01*
X0069454Y0252742D01*
X0069789Y0252407D01*
X0070200Y0252170D01*
X0070658Y0252047D01*
X0072974Y0252047D01*
X0072974Y0256320D01*
X0072974Y0254765D02*
X0073933Y0254765D01*
X0073933Y0253166D02*
X0072974Y0253166D01*
X0069214Y0253166D02*
X0049300Y0253166D01*
X0049300Y0251568D02*
X0076800Y0251568D01*
X0076800Y0249969D02*
X0049300Y0249969D01*
X0049300Y0248370D02*
X0091800Y0248370D01*
X0091800Y0246772D02*
X0049300Y0246772D01*
X0049300Y0245173D02*
X0091800Y0245173D01*
X0091800Y0243575D02*
X0049300Y0243575D01*
X0049300Y0241976D02*
X0091800Y0241976D01*
X0091800Y0240378D02*
X0049300Y0240378D01*
X0049300Y0238779D02*
X0092100Y0238779D01*
X0092100Y0237181D02*
X0049300Y0237181D01*
X0049300Y0235582D02*
X0092406Y0235582D01*
X0089300Y0233984D02*
X0036800Y0233984D01*
X0036800Y0232385D02*
X0089300Y0232385D01*
X0089300Y0230787D02*
X0079300Y0230787D01*
X0079300Y0229188D02*
X0089300Y0229188D01*
X0089300Y0227590D02*
X0079300Y0227590D01*
X0079300Y0225991D02*
X0089300Y0225991D01*
X0089300Y0224393D02*
X0079300Y0224393D01*
X0080698Y0223198D02*
X0081800Y0224300D01*
X0080698Y0223198D02*
X0080698Y0220639D01*
X0076800Y0222794D02*
X0069300Y0222794D01*
X0069300Y0221196D02*
X0076246Y0221196D01*
X0076246Y0219597D02*
X0069300Y0219597D01*
X0069300Y0217999D02*
X0076800Y0217999D01*
X0074300Y0213203D02*
X0021800Y0213203D01*
X0021800Y0211605D02*
X0074300Y0211605D01*
X0074300Y0210006D02*
X0021800Y0210006D01*
X0021800Y0208408D02*
X0086800Y0208408D01*
X0086800Y0206809D02*
X0021800Y0206809D01*
X0021800Y0205211D02*
X0079010Y0205211D01*
X0078898Y0203612D02*
X0021800Y0203612D01*
X0021800Y0202014D02*
X0082580Y0202014D01*
X0082580Y0203612D02*
X0083146Y0203612D01*
X0083146Y0205211D02*
X0082580Y0205211D01*
X0086716Y0205211D02*
X0086800Y0205211D01*
X0090737Y0201800D02*
X0099300Y0201800D01*
X0105954Y0201800D02*
X0094792Y0212961D01*
X0092902Y0212961D01*
X0092902Y0215520D02*
X0098080Y0215520D01*
X0099300Y0214300D01*
X0099300Y0211800D01*
X0105363Y0211800D01*
X0106800Y0213237D01*
X0106800Y0220363D01*
X0099300Y0219300D02*
X0098080Y0218080D01*
X0092902Y0218080D01*
X0092902Y0220639D02*
X0092902Y0222902D01*
X0096800Y0226800D01*
X0096800Y0230954D01*
X0101553Y0236800D02*
X0101553Y0237167D01*
X0097280Y0237167D01*
X0097280Y0238126D01*
X0101553Y0238126D01*
X0101553Y0240442D01*
X0101430Y0240900D01*
X0101193Y0241311D01*
X0100858Y0241646D01*
X0100448Y0241883D01*
X0099990Y0242005D01*
X0097280Y0242005D01*
X0097280Y0238126D01*
X0096320Y0238126D01*
X0096320Y0242005D01*
X0094300Y0242005D01*
X0094300Y0269300D01*
X0116800Y0269300D01*
X0116800Y0236800D01*
X0101553Y0236800D01*
X0101553Y0238779D02*
X0116800Y0238779D01*
X0116800Y0237181D02*
X0097280Y0237181D01*
X0097280Y0238779D02*
X0096320Y0238779D01*
X0096320Y0240378D02*
X0097280Y0240378D01*
X0097280Y0241976D02*
X0096320Y0241976D01*
X0094300Y0243575D02*
X0116800Y0243575D01*
X0116800Y0245173D02*
X0094300Y0245173D01*
X0094300Y0246772D02*
X0116800Y0246772D01*
X0116800Y0248370D02*
X0094300Y0248370D01*
X0094300Y0249969D02*
X0098506Y0249969D01*
X0098430Y0250101D02*
X0098667Y0249691D01*
X0099002Y0249356D01*
X0099412Y0249119D01*
X0099870Y0248996D01*
X0106000Y0248996D01*
X0106000Y0255606D01*
X0107600Y0255606D01*
X0107600Y0248996D01*
X0113730Y0248996D01*
X0114188Y0249119D01*
X0114598Y0249356D01*
X0114933Y0249691D01*
X0115170Y0250101D01*
X0115293Y0250559D01*
X0115293Y0255606D01*
X0107600Y0255606D01*
X0107600Y0257206D01*
X0115293Y0257206D01*
X0115293Y0262254D01*
X0115170Y0262711D01*
X0114933Y0263122D01*
X0114598Y0263457D01*
X0114188Y0263694D01*
X0113730Y0263817D01*
X0107600Y0263817D01*
X0107600Y0257206D01*
X0106000Y0257206D01*
X0106000Y0255606D01*
X0098307Y0255606D01*
X0098307Y0250559D01*
X0098430Y0250101D01*
X0098307Y0251568D02*
X0094300Y0251568D01*
X0094300Y0253166D02*
X0098307Y0253166D01*
X0098307Y0254765D02*
X0094300Y0254765D01*
X0094300Y0256363D02*
X0106000Y0256363D01*
X0106000Y0257206D02*
X0098307Y0257206D01*
X0098307Y0262254D01*
X0098430Y0262711D01*
X0098667Y0263122D01*
X0099002Y0263457D01*
X0099412Y0263694D01*
X0099870Y0263817D01*
X0106000Y0263817D01*
X0106000Y0257206D01*
X0106000Y0257962D02*
X0107600Y0257962D01*
X0107600Y0259560D02*
X0106000Y0259560D01*
X0106000Y0261159D02*
X0107600Y0261159D01*
X0107600Y0262757D02*
X0106000Y0262757D01*
X0107600Y0256363D02*
X0116800Y0256363D01*
X0116800Y0254765D02*
X0115293Y0254765D01*
X0115293Y0253166D02*
X0116800Y0253166D01*
X0116800Y0251568D02*
X0115293Y0251568D01*
X0115094Y0249969D02*
X0116800Y0249969D01*
X0116800Y0241976D02*
X0100098Y0241976D01*
X0101553Y0240378D02*
X0116800Y0240378D01*
X0106800Y0231800D02*
X0106800Y0229300D01*
X0107863Y0229300D01*
X0106800Y0228237D01*
X0108237Y0228237D01*
X0114300Y0219300D02*
X0114300Y0212863D01*
X0113237Y0211800D01*
X0112646Y0201800D02*
X0116800Y0201800D01*
X0103080Y0176800D02*
X0103080Y0167902D01*
X0105639Y0167902D02*
X0112036Y0174300D01*
X0113454Y0174300D01*
X0120146Y0174300D02*
X0124300Y0174300D01*
X0118237Y0166800D02*
X0119300Y0165737D01*
X0118237Y0166800D02*
X0111800Y0166800D01*
X0100520Y0167902D02*
X0100520Y0173080D01*
X0099300Y0174300D01*
X0096800Y0174300D01*
X0094300Y0171800D01*
X0103080Y0155698D02*
X0103080Y0150520D01*
X0100880Y0150861D02*
X0089300Y0150861D01*
X0086300Y0150861D02*
X0054300Y0150861D01*
X0054300Y0149263D02*
X0086300Y0149263D01*
X0086300Y0147664D02*
X0054300Y0147664D01*
X0054300Y0146066D02*
X0086300Y0146066D01*
X0086300Y0144467D02*
X0054300Y0144467D01*
X0054053Y0142869D02*
X0086300Y0142869D01*
X0086300Y0152460D02*
X0054300Y0152460D01*
X0054300Y0154058D02*
X0086300Y0154058D01*
X0051800Y0155657D02*
X0023415Y0155657D01*
X0023462Y0157255D02*
X0051800Y0157255D01*
X0051800Y0158854D02*
X0023462Y0158854D01*
X0023462Y0160452D02*
X0051800Y0160452D01*
X0048820Y0154505D02*
X0046110Y0154505D01*
X0045652Y0154383D01*
X0045242Y0154146D01*
X0044907Y0153811D01*
X0044670Y0153400D01*
X0044547Y0152942D01*
X0044547Y0150626D01*
X0048820Y0150626D01*
X0048820Y0154505D01*
X0048820Y0154058D02*
X0049780Y0154058D01*
X0049780Y0152460D02*
X0048820Y0152460D01*
X0048820Y0150861D02*
X0049780Y0150861D01*
X0044547Y0150861D02*
X0044053Y0150861D01*
X0044053Y0152460D02*
X0044547Y0152460D01*
X0045154Y0154058D02*
X0043446Y0154058D01*
X0039780Y0154058D02*
X0038820Y0154058D01*
X0038820Y0154505D02*
X0036110Y0154505D01*
X0035652Y0154383D01*
X0035242Y0154146D01*
X0034907Y0153811D01*
X0034670Y0153400D01*
X0034547Y0152942D01*
X0034547Y0150626D01*
X0038820Y0150626D01*
X0038820Y0154505D01*
X0038820Y0152460D02*
X0039780Y0152460D01*
X0039780Y0150861D02*
X0038820Y0150861D01*
X0034547Y0150861D02*
X0034053Y0150861D01*
X0034053Y0152460D02*
X0034547Y0152460D01*
X0035154Y0154058D02*
X0033446Y0154058D01*
X0029780Y0154058D02*
X0028820Y0154058D01*
X0028820Y0154505D02*
X0026110Y0154505D01*
X0025652Y0154383D01*
X0025242Y0154146D01*
X0024907Y0153811D01*
X0024670Y0153400D01*
X0024547Y0152942D01*
X0024547Y0150626D01*
X0028820Y0150626D01*
X0028820Y0154505D01*
X0028820Y0152460D02*
X0029780Y0152460D01*
X0029780Y0150861D02*
X0028820Y0150861D01*
X0024547Y0150861D02*
X0024300Y0150861D01*
X0024300Y0152460D02*
X0024547Y0152460D01*
X0024300Y0154058D02*
X0025154Y0154058D01*
X0019300Y0150166D02*
X0019300Y0143237D01*
X0024300Y0142869D02*
X0024547Y0142869D01*
X0024547Y0141270D02*
X0024300Y0141270D01*
X0024300Y0139672D02*
X0025024Y0139672D01*
X0028820Y0139672D02*
X0029780Y0139672D01*
X0029780Y0139094D02*
X0032490Y0139094D01*
X0032948Y0139217D01*
X0033358Y0139454D01*
X0033693Y0139789D01*
X0033930Y0140200D01*
X0034053Y0140658D01*
X0034053Y0142974D01*
X0029780Y0142974D01*
X0029780Y0139094D01*
X0029780Y0141270D02*
X0028820Y0141270D01*
X0028820Y0142869D02*
X0029780Y0142869D01*
X0034053Y0142869D02*
X0034547Y0142869D01*
X0034547Y0141270D02*
X0034053Y0141270D01*
X0033576Y0139672D02*
X0035024Y0139672D01*
X0038820Y0139672D02*
X0039780Y0139672D01*
X0039780Y0139094D02*
X0042490Y0139094D01*
X0042948Y0139217D01*
X0043358Y0139454D01*
X0043693Y0139789D01*
X0043930Y0140200D01*
X0044053Y0140658D01*
X0044053Y0142974D01*
X0039780Y0142974D01*
X0039780Y0139094D01*
X0039780Y0141270D02*
X0038820Y0141270D01*
X0038820Y0142869D02*
X0039780Y0142869D01*
X0044053Y0142869D02*
X0044547Y0142869D01*
X0044547Y0141270D02*
X0044053Y0141270D01*
X0043576Y0139672D02*
X0045024Y0139672D01*
X0048820Y0139672D02*
X0049780Y0139672D01*
X0049780Y0141270D02*
X0048820Y0141270D01*
X0048820Y0142869D02*
X0049780Y0142869D01*
X0047994Y0168445D02*
X0046394Y0168445D01*
X0046394Y0170043D02*
X0047994Y0170043D01*
X0047994Y0171642D02*
X0046394Y0171642D01*
X0046394Y0173240D02*
X0047994Y0173240D01*
X0047994Y0178036D02*
X0046394Y0178036D01*
X0046394Y0179634D02*
X0047994Y0179634D01*
X0047994Y0181233D02*
X0046394Y0181233D01*
X0046394Y0182832D02*
X0047994Y0182832D01*
X0047994Y0184430D02*
X0046394Y0184430D01*
X0022206Y0184430D02*
X0020606Y0184430D01*
X0020606Y0182832D02*
X0022206Y0182832D01*
X0022206Y0181233D02*
X0020606Y0181233D01*
X0020606Y0179634D02*
X0022206Y0179634D01*
X0022206Y0178036D02*
X0020606Y0178036D01*
X0020606Y0173240D02*
X0022206Y0173240D01*
X0022206Y0171642D02*
X0020606Y0171642D01*
X0020606Y0170043D02*
X0022206Y0170043D01*
X0022206Y0168445D02*
X0020606Y0168445D01*
X0015075Y0168445D02*
X0011800Y0168445D01*
X0011800Y0170043D02*
X0013996Y0170043D01*
X0013996Y0171642D02*
X0011800Y0171642D01*
X0011800Y0173240D02*
X0013996Y0173240D01*
X0013996Y0174839D02*
X0011800Y0174839D01*
X0021800Y0200415D02*
X0078898Y0200415D01*
X0066800Y0214802D02*
X0066200Y0214802D01*
X0066193Y0214789D02*
X0066430Y0215200D01*
X0066553Y0215658D01*
X0066553Y0217974D01*
X0062280Y0217974D01*
X0062280Y0214094D01*
X0064990Y0214094D01*
X0065448Y0214217D01*
X0065858Y0214454D01*
X0066193Y0214789D01*
X0066553Y0216400D02*
X0066800Y0216400D01*
X0066800Y0217999D02*
X0062280Y0217999D01*
X0061320Y0217999D02*
X0052280Y0217999D01*
X0052280Y0217974D02*
X0056553Y0217974D01*
X0056553Y0215658D01*
X0056430Y0215200D01*
X0056193Y0214789D01*
X0055858Y0214454D01*
X0055448Y0214217D01*
X0054990Y0214094D01*
X0052280Y0214094D01*
X0052280Y0217974D01*
X0051320Y0217999D02*
X0042280Y0217999D01*
X0042280Y0217974D02*
X0046553Y0217974D01*
X0046553Y0215658D01*
X0046430Y0215200D01*
X0046193Y0214789D01*
X0045858Y0214454D01*
X0045448Y0214217D01*
X0044990Y0214094D01*
X0042280Y0214094D01*
X0042280Y0217974D01*
X0041320Y0217999D02*
X0021800Y0217999D01*
X0021800Y0219597D02*
X0034300Y0219597D01*
X0034300Y0221196D02*
X0021800Y0221196D01*
X0021800Y0222794D02*
X0034300Y0222794D01*
X0034300Y0224393D02*
X0021800Y0224393D01*
X0021800Y0225991D02*
X0034300Y0225991D01*
X0034300Y0227590D02*
X0021800Y0227590D01*
X0021800Y0229188D02*
X0034300Y0229188D01*
X0034300Y0230787D02*
X0021800Y0230787D01*
X0021800Y0232385D02*
X0034300Y0232385D01*
X0034300Y0233984D02*
X0021800Y0233984D01*
X0021800Y0235582D02*
X0034300Y0235582D01*
X0036800Y0230787D02*
X0066800Y0230787D01*
X0066800Y0229188D02*
X0065784Y0229188D01*
X0066553Y0227590D02*
X0066800Y0227590D01*
X0066800Y0225991D02*
X0066553Y0225991D01*
X0066553Y0224393D02*
X0066800Y0224393D01*
X0066800Y0222794D02*
X0066553Y0222794D01*
X0069300Y0224393D02*
X0076800Y0224393D01*
X0076800Y0225991D02*
X0069300Y0225991D01*
X0069300Y0227590D02*
X0076800Y0227590D01*
X0076800Y0229188D02*
X0069300Y0229188D01*
X0062280Y0229188D02*
X0061320Y0229188D01*
X0061320Y0229505D02*
X0058610Y0229505D01*
X0058152Y0229383D01*
X0057742Y0229146D01*
X0057407Y0228811D01*
X0057170Y0228400D01*
X0057047Y0227942D01*
X0057047Y0225626D01*
X0061320Y0225626D01*
X0061320Y0229505D01*
X0061320Y0227590D02*
X0062280Y0227590D01*
X0062280Y0225991D02*
X0061320Y0225991D01*
X0057047Y0225991D02*
X0056553Y0225991D01*
X0056553Y0224393D02*
X0057047Y0224393D01*
X0057047Y0222794D02*
X0056553Y0222794D01*
X0056553Y0227590D02*
X0057047Y0227590D01*
X0057816Y0229188D02*
X0055784Y0229188D01*
X0052280Y0229188D02*
X0051320Y0229188D01*
X0051320Y0229505D02*
X0048610Y0229505D01*
X0048152Y0229383D01*
X0047742Y0229146D01*
X0047407Y0228811D01*
X0047170Y0228400D01*
X0047047Y0227942D01*
X0047047Y0225626D01*
X0051320Y0225626D01*
X0051320Y0229505D01*
X0051320Y0227590D02*
X0052280Y0227590D01*
X0052280Y0225991D02*
X0051320Y0225991D01*
X0047047Y0225991D02*
X0046553Y0225991D01*
X0046553Y0224393D02*
X0047047Y0224393D01*
X0047047Y0222794D02*
X0046553Y0222794D01*
X0046553Y0227590D02*
X0047047Y0227590D01*
X0047816Y0229188D02*
X0045784Y0229188D01*
X0042280Y0229188D02*
X0041320Y0229188D01*
X0041320Y0229505D02*
X0038610Y0229505D01*
X0038152Y0229383D01*
X0037742Y0229146D01*
X0037407Y0228811D01*
X0037170Y0228400D01*
X0037047Y0227942D01*
X0037047Y0225626D01*
X0041320Y0225626D01*
X0041320Y0229505D01*
X0041320Y0227590D02*
X0042280Y0227590D01*
X0042280Y0225991D02*
X0041320Y0225991D01*
X0037047Y0225991D02*
X0036800Y0225991D01*
X0036800Y0224393D02*
X0037047Y0224393D01*
X0037047Y0222794D02*
X0036800Y0222794D01*
X0036800Y0227590D02*
X0037047Y0227590D01*
X0036800Y0229188D02*
X0037816Y0229188D01*
X0046800Y0237181D02*
X0021800Y0237181D01*
X0021800Y0238779D02*
X0046800Y0238779D01*
X0046800Y0240378D02*
X0021800Y0240378D01*
X0021800Y0241976D02*
X0046800Y0241976D01*
X0046800Y0243575D02*
X0021800Y0243575D01*
X0021800Y0245173D02*
X0046800Y0245173D01*
X0046800Y0246772D02*
X0021800Y0246772D01*
X0021800Y0248370D02*
X0046800Y0248370D01*
X0046800Y0249969D02*
X0021800Y0249969D01*
X0021800Y0251568D02*
X0046800Y0251568D01*
X0046800Y0253166D02*
X0021800Y0253166D01*
X0021800Y0254765D02*
X0046800Y0254765D01*
X0046800Y0256363D02*
X0021800Y0256363D01*
X0021800Y0257962D02*
X0046800Y0257962D01*
X0046800Y0259560D02*
X0021800Y0259560D01*
X0030201Y0261159D02*
X0046800Y0261159D01*
X0031800Y0261159D01*
X0031800Y0262757D02*
X0046800Y0262757D01*
X0030814Y0262757D01*
X0030814Y0264356D02*
X0046800Y0264356D01*
X0031800Y0264356D01*
X0031800Y0265954D02*
X0046800Y0265954D01*
X0030814Y0265954D01*
X0030814Y0267553D02*
X0046800Y0267553D01*
X0031800Y0267553D01*
X0031800Y0269151D02*
X0046800Y0269151D01*
X0030814Y0269151D01*
X0030082Y0270750D02*
X0046800Y0270750D01*
X0031800Y0270750D01*
X0042800Y0272756D02*
X0042800Y0276131D01*
X0042800Y0272756D01*
X0042800Y0273947D02*
X0042800Y0273947D01*
X0042800Y0275545D02*
X0042800Y0275545D01*
X0042800Y0276131D02*
X0042800Y0276131D01*
X0046800Y0259560D02*
X0031800Y0259560D01*
X0049300Y0254765D02*
X0069094Y0254765D01*
X0072974Y0257962D02*
X0073933Y0257962D01*
X0073933Y0259560D02*
X0072974Y0259560D01*
X0072974Y0261159D02*
X0073933Y0261159D01*
X0073933Y0262757D02*
X0072974Y0262757D01*
X0072974Y0264356D02*
X0073933Y0264356D01*
X0073933Y0265954D02*
X0072974Y0265954D01*
X0072974Y0267553D02*
X0073933Y0267553D01*
X0073933Y0269151D02*
X0072974Y0269151D01*
X0072974Y0270750D02*
X0073933Y0270750D01*
X0073933Y0272348D02*
X0072974Y0272348D01*
X0072974Y0273947D02*
X0073933Y0273947D01*
X0073933Y0275545D02*
X0072974Y0275545D01*
X0084300Y0283538D02*
X0084513Y0283538D01*
X0088053Y0283538D02*
X0088815Y0283538D01*
X0088815Y0282638D02*
X0091033Y0282638D01*
X0091491Y0282760D01*
X0091901Y0282997D01*
X0092236Y0283333D01*
X0092473Y0283743D01*
X0092596Y0284201D01*
X0092596Y0286419D01*
X0088815Y0286419D01*
X0088815Y0282638D01*
X0088815Y0285136D02*
X0088053Y0285136D01*
X0088815Y0286735D02*
X0098307Y0286735D01*
X0098307Y0285136D02*
X0092596Y0285136D01*
X0092355Y0283538D02*
X0098307Y0283538D01*
X0098385Y0288333D02*
X0092596Y0288333D01*
X0092430Y0289932D02*
X0119300Y0289932D01*
X0119300Y0291530D02*
X0084300Y0291530D01*
X0084300Y0289932D02*
X0084438Y0289932D01*
X0088053Y0289932D02*
X0088815Y0289932D01*
X0088815Y0288333D02*
X0088053Y0288333D01*
X0080166Y0286800D02*
X0073237Y0286800D01*
X0065646Y0288333D02*
X0065080Y0288333D01*
X0065080Y0289932D02*
X0065646Y0289932D01*
X0094300Y0269151D02*
X0116800Y0269151D01*
X0116800Y0267553D02*
X0094300Y0267553D01*
X0094300Y0265954D02*
X0116800Y0265954D01*
X0116800Y0264356D02*
X0094300Y0264356D01*
X0094300Y0262757D02*
X0098456Y0262757D01*
X0098307Y0261159D02*
X0094300Y0261159D01*
X0094300Y0259560D02*
X0098307Y0259560D01*
X0098307Y0257962D02*
X0094300Y0257962D01*
X0106000Y0254765D02*
X0107600Y0254765D01*
X0107600Y0253166D02*
X0106000Y0253166D01*
X0106000Y0251568D02*
X0107600Y0251568D01*
X0107600Y0249969D02*
X0106000Y0249969D01*
X0115293Y0257962D02*
X0116800Y0257962D01*
X0116800Y0259560D02*
X0115293Y0259560D01*
X0115293Y0261159D02*
X0116800Y0261159D01*
X0116800Y0262757D02*
X0115144Y0262757D01*
X0107600Y0275545D02*
X0106000Y0275545D01*
X0106000Y0277144D02*
X0107600Y0277144D01*
X0107600Y0278742D02*
X0106000Y0278742D01*
X0106000Y0280341D02*
X0107600Y0280341D01*
X0107600Y0282994D02*
X0115293Y0282994D01*
X0115293Y0288041D01*
X0115170Y0288499D01*
X0114933Y0288909D01*
X0114598Y0289244D01*
X0114188Y0289481D01*
X0113730Y0289604D01*
X0107600Y0289604D01*
X0107600Y0282994D01*
X0107600Y0283538D02*
X0106000Y0283538D01*
X0106000Y0285136D02*
X0107600Y0285136D01*
X0107600Y0286735D02*
X0106000Y0286735D01*
X0106000Y0288333D02*
X0107600Y0288333D01*
X0115215Y0288333D02*
X0119300Y0288333D01*
X0119300Y0286735D02*
X0115293Y0286735D01*
X0115293Y0285136D02*
X0119300Y0285136D01*
X0119300Y0283538D02*
X0115293Y0283538D01*
X0103493Y0334300D02*
X0098050Y0334300D01*
X0062280Y0216400D02*
X0061320Y0216400D01*
X0061320Y0214802D02*
X0062280Y0214802D01*
X0057400Y0214802D02*
X0056200Y0214802D01*
X0056553Y0216400D02*
X0057047Y0216400D01*
X0052280Y0216400D02*
X0051320Y0216400D01*
X0051320Y0214802D02*
X0052280Y0214802D01*
X0047400Y0214802D02*
X0046200Y0214802D01*
X0046553Y0216400D02*
X0047047Y0216400D01*
X0042280Y0216400D02*
X0041320Y0216400D01*
X0041320Y0214802D02*
X0042280Y0214802D01*
X0037400Y0214802D02*
X0021800Y0214802D01*
X0021800Y0216400D02*
X0037047Y0216400D01*
X0011800Y0125285D02*
X0116594Y0125285D01*
X0116594Y0123687D02*
X0104399Y0123687D01*
X0104972Y0122088D02*
X0118005Y0122088D01*
X0101800Y0121800D02*
X0094300Y0114300D01*
X0094300Y0111800D01*
X0089300Y0111800D02*
X0089300Y0114300D01*
X0096800Y0121800D01*
X0093628Y0122088D02*
X0011800Y0122088D01*
X0011800Y0123687D02*
X0094201Y0123687D01*
X0061800Y0116800D02*
X0061800Y0091800D01*
X0059300Y0089300D01*
X0059300Y0085111D01*
X0058489Y0084300D01*
X0057800Y0084989D01*
X0052584Y0085322D02*
X0052583Y0085322D01*
X0052583Y0084300D02*
X0052583Y0090824D01*
X0050772Y0090824D01*
X0050314Y0090702D01*
X0049903Y0090465D01*
X0049631Y0090192D01*
X0049358Y0090465D01*
X0048948Y0090702D01*
X0048490Y0090824D01*
X0046678Y0090824D01*
X0046678Y0084300D01*
X0050053Y0084300D01*
X0052583Y0084300D01*
X0046678Y0084300D01*
X0046678Y0084300D01*
X0046678Y0084300D01*
X0046678Y0090824D01*
X0045000Y0090824D01*
X0045000Y0106711D01*
X0043711Y0108000D01*
X0042800Y0108000D01*
X0042800Y0114800D01*
X0057800Y0114800D01*
X0057800Y0091300D01*
X0055300Y0091300D01*
X0055300Y0090428D01*
X0055263Y0090465D01*
X0054853Y0090702D01*
X0054395Y0090824D01*
X0052584Y0090824D01*
X0052584Y0084300D01*
X0052583Y0084300D01*
X0052583Y0084300D01*
X0052583Y0086921D02*
X0052584Y0086921D01*
X0052583Y0088519D02*
X0052584Y0088519D01*
X0052583Y0090118D02*
X0052584Y0090118D01*
X0057800Y0091716D02*
X0045000Y0091716D01*
X0045000Y0093315D02*
X0057800Y0093315D01*
X0057800Y0094913D02*
X0045000Y0094913D01*
X0045000Y0096512D02*
X0057800Y0096512D01*
X0057800Y0098110D02*
X0045000Y0098110D01*
X0045000Y0099709D02*
X0057800Y0099709D01*
X0057800Y0101307D02*
X0045000Y0101307D01*
X0045000Y0102906D02*
X0057800Y0102906D01*
X0057800Y0104504D02*
X0045000Y0104504D01*
X0045000Y0106103D02*
X0057800Y0106103D01*
X0057800Y0107701D02*
X0044010Y0107701D01*
X0042800Y0109300D02*
X0057800Y0109300D01*
X0057800Y0110899D02*
X0042800Y0110899D01*
X0042800Y0112497D02*
X0057800Y0112497D01*
X0057800Y0114096D02*
X0042800Y0114096D01*
X0042800Y0105800D02*
X0032372Y0105800D01*
X0031108Y0102749D01*
X0028351Y0099992D01*
X0025300Y0098728D01*
X0025300Y0083300D01*
X0042800Y0083300D01*
X0042800Y0091755D01*
X0042628Y0092169D01*
X0042628Y0093431D01*
X0042800Y0093845D01*
X0042800Y0096755D01*
X0042628Y0097169D01*
X0042628Y0098431D01*
X0042800Y0098845D01*
X0042800Y0101755D01*
X0042628Y0102169D01*
X0042628Y0103431D01*
X0042800Y0103845D01*
X0042800Y0105800D01*
X0042800Y0104504D02*
X0031835Y0104504D01*
X0031173Y0102906D02*
X0042628Y0102906D01*
X0042800Y0101307D02*
X0029667Y0101307D01*
X0027668Y0099709D02*
X0042800Y0099709D01*
X0042628Y0098110D02*
X0025300Y0098110D01*
X0025300Y0096512D02*
X0042800Y0096512D01*
X0042800Y0094913D02*
X0025300Y0094913D01*
X0025300Y0093315D02*
X0042628Y0093315D01*
X0042800Y0091716D02*
X0025300Y0091716D01*
X0025300Y0090118D02*
X0042800Y0090118D01*
X0042800Y0088519D02*
X0025300Y0088519D01*
X0025300Y0086921D02*
X0042800Y0086921D01*
X0042800Y0085322D02*
X0025300Y0085322D01*
X0025300Y0083724D02*
X0042800Y0083724D01*
X0040772Y0084300D02*
X0039272Y0085800D01*
X0046678Y0085322D02*
X0046678Y0085322D01*
X0046678Y0086921D02*
X0046678Y0086921D01*
X0046678Y0088519D02*
X0046678Y0088519D01*
X0046678Y0090118D02*
X0046678Y0090118D01*
X0087800Y0084300D02*
X0088017Y0084300D01*
X0090991Y0083724D02*
X0111300Y0083724D01*
X0111800Y0084300D02*
X0115300Y0080800D01*
X0111300Y0080800D02*
X0111300Y0098700D01*
X0109877Y0098700D01*
X0105004Y0093827D01*
X0104273Y0093096D01*
X0103317Y0092700D01*
X0091377Y0092700D01*
X0090761Y0092084D01*
X0090672Y0089923D01*
X0090991Y0089604D01*
X0090991Y0080800D01*
X0111300Y0080800D01*
X0111300Y0082125D02*
X0090991Y0082125D01*
X0090991Y0085322D02*
X0111300Y0085322D01*
X0111800Y0084300D02*
X0099828Y0084300D01*
X0093922Y0084300D01*
X0097800Y0083724D02*
X0127365Y0083724D01*
X0127352Y0084628D02*
X0127528Y0072314D01*
X0122082Y0072314D01*
X0121262Y0071494D01*
X0121262Y0057342D01*
X0122082Y0056522D01*
X0127754Y0056522D01*
X0127789Y0054100D01*
X0097800Y0054100D01*
X0097800Y0088300D01*
X0127300Y0088300D01*
X0127320Y0086894D01*
X0127128Y0086431D01*
X0127128Y0085169D01*
X0127352Y0084628D01*
X0127128Y0085322D02*
X0097800Y0085322D01*
X0097800Y0086921D02*
X0127320Y0086921D01*
X0129520Y0086921D02*
X0133067Y0086921D01*
X0133067Y0088519D02*
X0129500Y0088519D01*
X0129500Y0088316D02*
X0129500Y0089211D01*
X0129487Y0089224D01*
X0129487Y0089243D01*
X0128845Y0089867D01*
X0128211Y0090500D01*
X0128193Y0090500D01*
X0128180Y0090513D01*
X0127284Y0090500D01*
X0124997Y0090500D01*
X0124800Y0096800D01*
X0144600Y0096800D01*
X0144600Y0090706D01*
X0144159Y0090824D01*
X0142347Y0090824D01*
X0140535Y0090824D01*
X0140078Y0090702D01*
X0139667Y0090465D01*
X0139394Y0090192D01*
X0139122Y0090465D01*
X0138711Y0090702D01*
X0138254Y0090824D01*
X0136442Y0090824D01*
X0136442Y0084300D01*
X0139817Y0084300D01*
X0142347Y0084300D01*
X0142347Y0084300D01*
X0136442Y0084300D01*
X0136442Y0084300D01*
X0136442Y0084300D01*
X0142347Y0084300D01*
X0142347Y0090824D01*
X0142347Y0084300D01*
X0142347Y0084300D01*
X0142347Y0085322D02*
X0142347Y0085322D01*
X0142347Y0086921D02*
X0142347Y0086921D01*
X0142347Y0088519D02*
X0142347Y0088519D01*
X0142347Y0090118D02*
X0142347Y0090118D01*
X0144600Y0091716D02*
X0124959Y0091716D01*
X0124909Y0093315D02*
X0144600Y0093315D01*
X0144600Y0094913D02*
X0124859Y0094913D01*
X0124809Y0096512D02*
X0144600Y0096512D01*
X0146800Y0093252D02*
X0147777Y0092276D01*
X0149738Y0091463D01*
X0151862Y0091463D01*
X0153108Y0091979D01*
X0153783Y0091700D01*
X0153743Y0091716D02*
X0152473Y0091716D01*
X0149127Y0091716D02*
X0146800Y0091716D01*
X0146800Y0090824D02*
X0146800Y0093252D01*
X0146800Y0090824D02*
X0148253Y0090824D01*
X0148253Y0084300D01*
X0148253Y0085322D02*
X0148253Y0085322D01*
X0148253Y0086921D02*
X0148253Y0086921D01*
X0148253Y0088519D02*
X0148253Y0088519D01*
X0148253Y0090118D02*
X0148253Y0090118D01*
X0136442Y0090118D02*
X0136442Y0090118D01*
X0136442Y0090824D02*
X0134630Y0090824D01*
X0134172Y0090702D01*
X0133762Y0090465D01*
X0133427Y0090130D01*
X0133190Y0089719D01*
X0133067Y0089261D01*
X0133067Y0084300D01*
X0136442Y0084300D01*
X0136442Y0090824D01*
X0136442Y0088519D02*
X0136442Y0088519D01*
X0136442Y0086921D02*
X0136442Y0086921D01*
X0136442Y0085322D02*
X0136442Y0085322D01*
X0136442Y0084300D02*
X0136442Y0084300D01*
X0133067Y0084300D01*
X0133067Y0080800D01*
X0129607Y0080800D01*
X0129500Y0088316D01*
X0128593Y0090118D02*
X0133420Y0090118D01*
X0133067Y0085322D02*
X0129543Y0085322D01*
X0129566Y0083724D02*
X0133067Y0083724D01*
X0133067Y0082125D02*
X0129588Y0082125D01*
X0127388Y0082125D02*
X0097800Y0082125D01*
X0097800Y0080527D02*
X0127411Y0080527D01*
X0127434Y0078928D02*
X0097800Y0078928D01*
X0097800Y0077330D02*
X0127457Y0077330D01*
X0127480Y0075731D02*
X0097800Y0075731D01*
X0097800Y0074133D02*
X0127502Y0074133D01*
X0127525Y0072534D02*
X0097800Y0072534D01*
X0097800Y0070936D02*
X0105120Y0070936D01*
X0105120Y0071494D02*
X0105120Y0057342D01*
X0105941Y0056522D01*
X0114187Y0056522D01*
X0115007Y0057342D01*
X0115007Y0071494D01*
X0114187Y0072314D01*
X0105941Y0072314D01*
X0105120Y0071494D01*
X0105120Y0069337D02*
X0097800Y0069337D01*
X0097800Y0067739D02*
X0105120Y0067739D01*
X0105120Y0066140D02*
X0097800Y0066140D01*
X0097800Y0064542D02*
X0105120Y0064542D01*
X0105120Y0062943D02*
X0097800Y0062943D01*
X0097800Y0061345D02*
X0105120Y0061345D01*
X0105120Y0059746D02*
X0097800Y0059746D01*
X0097800Y0058148D02*
X0105120Y0058148D01*
X0105913Y0056549D02*
X0097800Y0056549D01*
X0097800Y0054951D02*
X0127776Y0054951D01*
X0122055Y0056549D02*
X0114214Y0056549D01*
X0115007Y0058148D02*
X0121262Y0058148D01*
X0121262Y0059746D02*
X0115007Y0059746D01*
X0115007Y0061345D02*
X0121262Y0061345D01*
X0121262Y0062943D02*
X0115007Y0062943D01*
X0115007Y0064542D02*
X0121262Y0064542D01*
X0121262Y0066140D02*
X0115007Y0066140D01*
X0115007Y0067739D02*
X0121262Y0067739D01*
X0121262Y0069337D02*
X0115007Y0069337D01*
X0115007Y0070936D02*
X0121262Y0070936D01*
X0111300Y0086921D02*
X0090991Y0086921D01*
X0090991Y0088519D02*
X0111300Y0088519D01*
X0111300Y0090118D02*
X0090680Y0090118D01*
X0090746Y0091716D02*
X0111300Y0091716D01*
X0111300Y0093315D02*
X0104492Y0093315D01*
X0106090Y0094913D02*
X0111300Y0094913D01*
X0111300Y0096512D02*
X0107689Y0096512D01*
X0109287Y0098110D02*
X0111300Y0098110D01*
X0189300Y0136475D02*
X0189559Y0136475D01*
X0229300Y0168040D02*
X0229300Y0174300D01*
X0234300Y0174300D01*
X0229300Y0174300D02*
X0229300Y0180560D01*
X0214300Y0176437D02*
X0186800Y0176437D01*
X0186800Y0174839D02*
X0214300Y0174839D01*
X0283800Y0169300D02*
X0289300Y0169300D01*
X0291800Y0166800D01*
X0291800Y0169300D01*
X0299300Y0184300D02*
X0306800Y0184300D01*
X0301800Y0189300D02*
X0299300Y0189300D01*
X0294300Y0194300D01*
X0294300Y0204300D01*
X0301800Y0206800D02*
X0301800Y0199300D01*
X0304300Y0196800D01*
X0303670Y0206800D02*
X0301800Y0206800D01*
X0324930Y0226800D02*
X0329300Y0226800D01*
X0329300Y0231800D02*
X0331800Y0234300D01*
X0334300Y0234300D01*
X0336800Y0231800D01*
X0339300Y0231800D01*
X0341800Y0236800D02*
X0340540Y0240540D01*
X0340540Y0241800D01*
X0326800Y0236800D02*
X0324930Y0236800D01*
X0324300Y0237430D01*
X0324300Y0239300D01*
X0321800Y0241800D01*
X0319300Y0241800D01*
X0309300Y0241800D02*
X0301800Y0241800D01*
X0301800Y0249300D02*
X0304600Y0249300D01*
X0324000Y0259300D02*
X0331800Y0259300D01*
X0324000Y0274300D02*
X0344300Y0274300D01*
X0344300Y0284300D01*
X0339300Y0279300D02*
X0324000Y0279300D01*
X0324000Y0282100D01*
X0325600Y0295461D02*
X0337961Y0295461D01*
X0339300Y0296800D01*
X0334300Y0299300D02*
X0333020Y0298020D01*
X0325600Y0298020D01*
X0325600Y0308257D02*
X0330757Y0308257D01*
X0334300Y0311800D01*
X0341800Y0319300D02*
X0341800Y0330560D01*
X0331800Y0329300D02*
X0331800Y0344300D01*
X0336800Y0349300D01*
X0336800Y0356800D01*
X0329300Y0364300D01*
X0334300Y0369300D02*
X0334300Y0371800D01*
X0346800Y0371800D01*
X0354300Y0379300D01*
X0371800Y0379300D01*
X0379300Y0386800D01*
X0379300Y0406800D01*
X0376800Y0409300D01*
X0364300Y0409300D01*
X0361800Y0406800D01*
X0361800Y0401800D01*
X0341800Y0379300D02*
X0344300Y0376800D01*
X0345363Y0376800D01*
X0341800Y0379300D02*
X0309300Y0379300D01*
X0307863Y0377863D01*
X0307863Y0374300D01*
X0315737Y0374300D02*
X0316800Y0373237D01*
X0316800Y0369300D01*
X0314300Y0369300D01*
X0311800Y0366800D01*
X0309300Y0359300D02*
X0311800Y0356800D01*
X0318060Y0356800D01*
X0326800Y0356800D02*
X0331800Y0351800D01*
X0329300Y0349300D01*
X0324000Y0349300D01*
X0341800Y0339300D02*
X0346800Y0344300D01*
X0341800Y0339300D02*
X0341800Y0338040D01*
X0350540Y0338040D01*
X0351800Y0339300D01*
X0351800Y0338040D02*
X0341800Y0338040D01*
X0351800Y0338040D02*
X0361800Y0338040D01*
X0331800Y0329300D02*
X0324000Y0329300D01*
X0334300Y0371800D02*
X0334300Y0373237D01*
X0333237Y0374300D01*
X0325363Y0374300D02*
X0315737Y0374300D01*
X0271800Y0254300D02*
X0271800Y0246800D01*
X0324930Y0231800D02*
X0329300Y0231800D01*
X0344300Y0211800D02*
X0351800Y0219300D01*
X0301800Y0134300D02*
X0301800Y0124300D01*
X0306800Y0124300D02*
X0310800Y0124300D01*
X0310800Y0109300D02*
X0304300Y0109300D01*
X0299300Y0104300D01*
X0296800Y0104300D01*
X0289300Y0099300D02*
X0291800Y0096800D01*
X0284300Y0103800D02*
X0283800Y0104300D01*
X0295932Y0070936D02*
X0302168Y0070936D01*
X0295932Y0070936D01*
X0302168Y0070936D01*
X0302168Y0069337D02*
X0295932Y0069337D01*
X0302168Y0069337D01*
X0295932Y0069337D01*
X0312054Y0069337D02*
X0328546Y0069337D01*
X0316800Y0069337D01*
X0320300Y0069337D02*
X0312054Y0069337D01*
X0320300Y0069337D01*
X0320300Y0070936D02*
X0312054Y0070936D01*
X0328546Y0070936D01*
X0320300Y0070936D02*
X0312054Y0070936D01*
X0338432Y0070936D02*
X0341800Y0070936D01*
X0340300Y0070936D02*
X0338432Y0070936D01*
X0344668Y0070936D01*
X0344668Y0069337D02*
X0338432Y0069337D01*
X0341800Y0069337D01*
X0340300Y0069337D02*
X0338432Y0069337D01*
X0354554Y0069337D02*
X0360300Y0069337D01*
X0360300Y0070936D02*
X0354554Y0070936D01*
X0349300Y0099300D02*
X0343060Y0099300D01*
X0341800Y0100560D01*
X0340560Y0100560D01*
D44*
X0349300Y0099300D03*
X0341800Y0116800D03*
X0341800Y0121800D03*
X0339300Y0126800D03*
X0349300Y0134300D03*
X0344300Y0144300D03*
X0339300Y0144300D03*
X0336800Y0139300D03*
X0324300Y0149300D03*
X0334300Y0154300D03*
X0316800Y0159300D03*
X0296800Y0156800D03*
X0291800Y0156800D03*
X0299300Y0139300D03*
X0304300Y0139300D03*
X0301800Y0134300D03*
X0301800Y0124300D03*
X0306800Y0124300D03*
X0304300Y0114300D03*
X0299300Y0111800D03*
X0304300Y0109300D03*
X0289300Y0099300D03*
X0300300Y0080800D03*
X0300300Y0075800D03*
X0300300Y0070800D03*
X0295300Y0075800D03*
X0257800Y0075800D03*
X0257800Y0070800D03*
X0252800Y0075800D03*
X0257800Y0080800D03*
X0261800Y0096800D03*
X0224300Y0094300D03*
X0217800Y0078300D03*
X0217800Y0073300D03*
X0212800Y0073300D03*
X0184300Y0084300D03*
X0179300Y0084300D03*
X0179300Y0089300D03*
X0164300Y0089300D03*
X0164300Y0084300D03*
X0159300Y0084300D03*
X0161800Y0096800D03*
X0156800Y0099300D03*
X0130300Y0095800D03*
X0130300Y0090800D03*
X0130300Y0085800D03*
X0120300Y0080800D03*
X0120300Y0075800D03*
X0115300Y0075800D03*
X0115300Y0080800D03*
X0094300Y0111800D03*
X0089300Y0111800D03*
X0096800Y0121800D03*
X0101800Y0121800D03*
X0106800Y0129300D03*
X0106800Y0134300D03*
X0106800Y0139300D03*
X0111800Y0139300D03*
X0111800Y0134300D03*
X0111800Y0129300D03*
X0134300Y0126800D03*
X0134300Y0131800D03*
X0134300Y0136800D03*
X0134300Y0141800D03*
X0134300Y0146800D03*
X0134300Y0151800D03*
X0151800Y0161800D03*
X0151800Y0166800D03*
X0151800Y0171800D03*
X0166800Y0171800D03*
X0166800Y0166800D03*
X0166800Y0161800D03*
X0176800Y0151800D03*
X0176800Y0146800D03*
X0176800Y0141800D03*
X0176800Y0136800D03*
X0176800Y0131800D03*
X0201800Y0139300D03*
X0206800Y0139300D03*
X0206800Y0144300D03*
X0201800Y0144300D03*
X0211800Y0144300D03*
X0211800Y0139300D03*
X0225800Y0131800D03*
X0229300Y0126800D03*
X0221800Y0116800D03*
X0216800Y0121800D03*
X0231800Y0154300D03*
X0234300Y0174300D03*
X0254300Y0174300D03*
X0236800Y0194300D03*
X0236800Y0199300D03*
X0236800Y0206800D03*
X0251800Y0216800D03*
X0254300Y0221800D03*
X0266800Y0216800D03*
X0269300Y0221800D03*
X0284300Y0221800D03*
X0294300Y0224300D03*
X0294300Y0231800D03*
X0291800Y0236800D03*
X0299300Y0244300D03*
X0296800Y0251800D03*
X0291800Y0251800D03*
X0286800Y0246800D03*
X0281800Y0246800D03*
X0271800Y0246800D03*
X0261800Y0246800D03*
X0246800Y0254300D03*
X0241800Y0259300D03*
X0234300Y0259300D03*
X0246800Y0279300D03*
X0246800Y0289300D03*
X0229300Y0286800D03*
X0234300Y0306800D03*
X0209300Y0311800D03*
X0209300Y0324300D03*
X0204300Y0339300D03*
X0209300Y0341800D03*
X0199300Y0351800D03*
X0194300Y0344300D03*
X0189300Y0336800D03*
X0181800Y0326800D03*
X0164300Y0326800D03*
X0164300Y0331800D03*
X0161800Y0339300D03*
X0156800Y0339300D03*
X0146800Y0339300D03*
X0151800Y0351800D03*
X0151800Y0356800D03*
X0151800Y0361800D03*
X0146800Y0364300D03*
X0144300Y0371800D03*
X0144300Y0379300D03*
X0146800Y0384300D03*
X0151800Y0396800D03*
X0151800Y0401800D03*
X0151800Y0406800D03*
X0151800Y0411800D03*
X0146800Y0414300D03*
X0154300Y0419300D03*
X0098050Y0416800D03*
X0098050Y0386800D03*
X0098050Y0381800D03*
X0098050Y0371800D03*
X0096800Y0366800D03*
X0079300Y0354300D03*
X0075550Y0358050D03*
X0069300Y0349300D03*
X0064300Y0346800D03*
X0051800Y0354300D03*
X0044300Y0351800D03*
X0021800Y0336800D03*
X0049300Y0321800D03*
X0054300Y0326800D03*
X0064300Y0326800D03*
X0069300Y0324300D03*
X0074300Y0324300D03*
X0084300Y0324300D03*
X0089300Y0329300D03*
X0098050Y0334300D03*
X0099300Y0324300D03*
X0104300Y0319300D03*
X0104300Y0314300D03*
X0104300Y0309300D03*
X0144300Y0324300D03*
X0151800Y0319300D03*
X0146800Y0314300D03*
X0161800Y0316800D03*
X0159300Y0296800D03*
X0154300Y0296800D03*
X0166800Y0291800D03*
X0171800Y0289300D03*
X0164300Y0281800D03*
X0164300Y0274300D03*
X0159300Y0274300D03*
X0154300Y0274300D03*
X0149300Y0266800D03*
X0151800Y0259300D03*
X0149300Y0251800D03*
X0151800Y0246800D03*
X0149300Y0239300D03*
X0144300Y0239300D03*
X0151800Y0234300D03*
X0151800Y0229300D03*
X0164300Y0214300D03*
X0171800Y0214300D03*
X0181800Y0209300D03*
X0181800Y0199300D03*
X0181800Y0194300D03*
X0181800Y0189300D03*
X0181800Y0184300D03*
X0174300Y0189300D03*
X0174300Y0194300D03*
X0169300Y0194300D03*
X0169300Y0189300D03*
X0156800Y0191800D03*
X0156800Y0199300D03*
X0134300Y0184300D03*
X0124300Y0174300D03*
X0111800Y0166800D03*
X0111800Y0159300D03*
X0111800Y0154300D03*
X0106800Y0149300D03*
X0099300Y0145550D03*
X0096800Y0149300D03*
X0094300Y0145550D03*
X0091800Y0149300D03*
X0091800Y0156800D03*
X0091800Y0161800D03*
X0086800Y0161800D03*
X0086800Y0156800D03*
X0081800Y0156800D03*
X0081800Y0161800D03*
X0069300Y0169300D03*
X0064300Y0169300D03*
X0059300Y0169300D03*
X0049300Y0159300D03*
X0044300Y0159300D03*
X0039300Y0159300D03*
X0034300Y0159300D03*
X0029300Y0159300D03*
X0014300Y0164300D03*
X0026800Y0136800D03*
X0031800Y0136800D03*
X0036800Y0136800D03*
X0041800Y0136800D03*
X0046800Y0136800D03*
X0051800Y0136800D03*
X0061800Y0116800D03*
X0055800Y0102800D03*
X0055800Y0097800D03*
X0055800Y0092800D03*
X0050800Y0092800D03*
X0050800Y0097800D03*
X0050800Y0102800D03*
X0045800Y0102800D03*
X0045800Y0097800D03*
X0045800Y0092800D03*
X0040800Y0097300D03*
X0034800Y0097300D03*
X0034800Y0091300D03*
X0034800Y0085300D03*
X0028800Y0085300D03*
X0028800Y0091300D03*
X0094300Y0171800D03*
X0084300Y0179300D03*
X0069300Y0184300D03*
X0064300Y0184300D03*
X0059300Y0184300D03*
X0099300Y0201800D03*
X0116800Y0201800D03*
X0114300Y0219300D03*
X0106800Y0231800D03*
X0104300Y0239300D03*
X0109300Y0239300D03*
X0109300Y0246800D03*
X0104300Y0246800D03*
X0096800Y0244300D03*
X0096800Y0249300D03*
X0089300Y0254300D03*
X0089300Y0259300D03*
X0089300Y0264300D03*
X0089300Y0269300D03*
X0089300Y0274300D03*
X0089300Y0279300D03*
X0066800Y0279300D03*
X0066800Y0274300D03*
X0066800Y0269300D03*
X0066800Y0264300D03*
X0066800Y0259300D03*
X0066800Y0254300D03*
X0064300Y0231800D03*
X0059300Y0231800D03*
X0054300Y0231800D03*
X0049300Y0231800D03*
X0044300Y0231800D03*
X0039300Y0231800D03*
X0070550Y0224300D03*
X0074300Y0221800D03*
X0070550Y0219300D03*
X0074300Y0226800D03*
X0081800Y0226800D03*
X0086800Y0226800D03*
X0086800Y0231800D03*
X0099300Y0219300D03*
X0181800Y0244300D03*
X0196800Y0234300D03*
X0211800Y0246800D03*
X0226800Y0239300D03*
X0211800Y0216800D03*
X0206800Y0216800D03*
X0201800Y0216800D03*
X0196800Y0216800D03*
X0196800Y0194300D03*
X0191800Y0194300D03*
X0201800Y0194300D03*
X0206800Y0194300D03*
X0211800Y0194300D03*
X0181800Y0179300D03*
X0274300Y0201800D03*
X0289300Y0199300D03*
X0289300Y0204300D03*
X0289300Y0209300D03*
X0301800Y0194300D03*
X0301800Y0189300D03*
X0299300Y0184300D03*
X0299300Y0179300D03*
X0286800Y0179300D03*
X0286800Y0184300D03*
X0286800Y0189300D03*
X0306800Y0196800D03*
X0324300Y0199300D03*
X0324300Y0189300D03*
X0336800Y0184300D03*
X0349300Y0184300D03*
X0349300Y0179300D03*
X0354300Y0179300D03*
X0374300Y0159300D03*
X0361800Y0151800D03*
X0356800Y0146800D03*
X0366800Y0131800D03*
X0336800Y0114300D03*
X0342800Y0080800D03*
X0342800Y0075800D03*
X0342800Y0070800D03*
X0337800Y0075800D03*
X0366800Y0201800D03*
X0361800Y0209300D03*
X0349300Y0209300D03*
X0346800Y0219300D03*
X0346800Y0224300D03*
X0339300Y0231800D03*
X0341800Y0236800D03*
X0331800Y0224300D03*
X0336800Y0219300D03*
X0331800Y0211800D03*
X0331800Y0206800D03*
X0319300Y0241800D03*
X0309300Y0241800D03*
X0331800Y0249300D03*
X0331800Y0259300D03*
X0331800Y0269300D03*
X0339300Y0279300D03*
X0331800Y0286800D03*
X0339300Y0296800D03*
X0334300Y0299300D03*
X0334300Y0311800D03*
X0331800Y0324300D03*
X0351800Y0309300D03*
X0356800Y0311800D03*
X0361800Y0306800D03*
X0361800Y0296800D03*
X0356800Y0296800D03*
X0356800Y0289300D03*
X0344300Y0269300D03*
X0344300Y0264300D03*
X0344300Y0259300D03*
X0351800Y0266800D03*
X0296800Y0269300D03*
X0296800Y0274300D03*
X0291800Y0289300D03*
X0286800Y0294300D03*
X0291800Y0301800D03*
X0284300Y0304300D03*
X0286800Y0309300D03*
X0289300Y0314300D03*
X0294300Y0324300D03*
X0294300Y0329300D03*
X0289300Y0329300D03*
X0296800Y0339300D03*
X0296800Y0344300D03*
X0284300Y0351800D03*
X0276800Y0349300D03*
X0276800Y0356800D03*
X0269300Y0359300D03*
X0264300Y0359300D03*
X0269300Y0364300D03*
X0259300Y0369300D03*
X0256800Y0364300D03*
X0239300Y0366800D03*
X0229300Y0354300D03*
X0234300Y0334300D03*
X0271800Y0314300D03*
X0276800Y0324300D03*
X0266800Y0296800D03*
X0274300Y0286800D03*
X0269300Y0281800D03*
X0199300Y0299300D03*
X0196800Y0294300D03*
X0196800Y0304300D03*
X0191800Y0284300D03*
X0296800Y0356800D03*
X0304300Y0361800D03*
X0299300Y0364300D03*
X0289300Y0371800D03*
X0296800Y0384300D03*
X0311800Y0366800D03*
X0309300Y0359300D03*
X0329300Y0364300D03*
X0334300Y0364300D03*
X0344300Y0376800D03*
X0346800Y0344300D03*
X0211800Y0371800D03*
X0199300Y0366800D03*
X0191800Y0366800D03*
X0186800Y0369300D03*
X0179300Y0371800D03*
X0174300Y0374300D03*
X0169300Y0371800D03*
D45*
X0226800Y0366800D03*
D46*
X0226100Y0301800D02*
X0233737Y0301800D01*
X0234800Y0300737D01*
X0240237Y0295300D01*
X0242800Y0295300D01*
X0242800Y0285886D01*
X0236214Y0279300D01*
X0220800Y0279300D01*
X0220800Y0244886D01*
X0218800Y0242886D01*
X0218800Y0131214D01*
X0227800Y0122214D01*
X0227800Y0109886D01*
X0222214Y0104300D01*
X0162800Y0104300D01*
X0161800Y0104300D01*
X0158214Y0104300D01*
X0105214Y0104300D01*
X0099214Y0098300D01*
X0084714Y0098300D01*
X0080300Y0093886D01*
X0080300Y0086111D01*
X0082111Y0084300D01*
X0078300Y0086394D02*
X0078300Y0094714D01*
X0083886Y0100300D01*
X0098386Y0100300D01*
X0104386Y0106300D01*
X0221386Y0106300D01*
X0225800Y0110714D01*
X0225800Y0121386D01*
X0216800Y0130386D01*
X0216800Y0243714D01*
X0218800Y0245714D01*
X0218800Y0281300D01*
X0235386Y0281300D01*
X0240800Y0286714D01*
X0240800Y0293300D01*
X0234800Y0293300D01*
X0234800Y0292863D02*
X0230863Y0296800D01*
X0229300Y0296800D01*
X0331800Y0109300D02*
X0331800Y0108300D01*
X0331800Y0109300D02*
X0332800Y0109300D01*
X0238253Y0084300D02*
X0237800Y0084753D01*
X0078300Y0086394D02*
X0076206Y0084300D01*
D47*
X0088017Y0084300D02*
X0088017Y0093017D01*
X0090300Y0095300D01*
X0102800Y0095300D01*
X0108800Y0101300D01*
X0146300Y0101300D01*
X0150800Y0096800D01*
X0151800Y0096800D01*
X0154300Y0094300D01*
X0159300Y0094300D01*
X0161800Y0096800D01*
X0195753Y0085253D02*
X0201300Y0090800D01*
X0212800Y0090800D01*
X0217800Y0085800D01*
X0218300Y0085800D01*
X0221800Y0089300D01*
X0226800Y0089300D01*
X0229300Y0091800D01*
X0234300Y0091800D01*
X0237800Y0088300D01*
X0240800Y0091300D01*
X0271300Y0091300D01*
X0276800Y0096800D01*
X0279300Y0096800D01*
X0284300Y0103800D02*
X0284300Y0087847D01*
X0282253Y0085800D01*
X0290800Y0085800D01*
X0294300Y0089300D01*
X0306300Y0089300D01*
X0307800Y0090800D01*
X0310800Y0090800D01*
X0314300Y0094300D01*
X0319300Y0094300D01*
X0321800Y0091800D01*
X0324300Y0094300D01*
X0361800Y0094300D01*
X0365753Y0090347D01*
X0365753Y0084300D01*
X0323253Y0084300D02*
X0323253Y0090347D01*
X0321800Y0091800D01*
X0284300Y0103800D02*
X0284300Y0114300D01*
X0284300Y0124300D02*
X0283800Y0124800D01*
X0283800Y0139300D01*
X0282253Y0085800D02*
X0280753Y0084300D01*
X0195753Y0084300D02*
X0195753Y0085253D01*
X0088017Y0084300D02*
X0088017Y0086517D01*
X0325540Y0356800D02*
X0326800Y0356800D01*
D48*
X0331800Y0351800D03*
X0284300Y0124300D03*
X0279300Y0096800D03*
M02*
