%
M48
M72
T01C0.01500
T02C0.01969
T03C0.02362
T04C0.02756
T05C0.04000
T06C0.15000
%
T01
X266800Y106800
X266800Y111800
X266800Y116800
X271800Y116800
X271800Y111800
X271800Y106800
X276800Y106800
X276800Y111800
X276800Y116800
X276800Y131800
X276800Y136800
X276800Y141800
X271800Y141800
X271800Y136800
X271800Y131800
X266800Y131800
X266800Y136800
X266800Y141800
X266800Y156800
X266800Y161800
X271800Y161800
X271800Y156800
X276800Y156800
X276800Y161800
X276800Y166800
X271800Y166800
X266800Y166800
X264300Y181800
X264300Y186800
X264300Y191800
X269300Y191800
X274300Y191800
X274300Y186800
X269300Y186800
X269300Y181800
X274300Y181800
X311800Y179300
X316800Y179300
X316800Y174300
X311800Y174300
X311800Y169300
X316800Y169300
X321800Y169300
X321800Y174300
X321800Y179300
X346800Y169300
X346800Y164300
X346800Y159300
X351800Y159300
X351800Y164300
X351800Y169300
X356800Y169300
X356800Y164300
X356800Y159300
T02
X226800Y366800
T03
X115300Y75800
X115300Y80800
X120300Y80800
X120300Y75800
X130300Y85800
X130300Y90800
X130300Y95800
X156800Y99300
X161800Y96800
X164300Y89300
X164300Y84300
X159300Y84300
X179300Y84300
X179300Y89300
X184300Y84300
X212800Y73300
X217800Y73300
X217800Y78300
X224300Y94300
X221800Y116800
X216800Y121800
X229300Y126800
X225800Y131800
X211800Y139300
X211800Y144300
X206800Y144300
X201800Y144300
X201800Y139300
X206800Y139300
X231800Y154300
X234300Y174300
X254300Y174300
X236800Y194300
X236800Y199300
X236800Y206800
X251800Y216800
X254300Y221800
X266800Y216800
X269300Y221800
X284300Y221800
X294300Y224300
X294300Y231800
X291800Y236800
X299300Y244300
X296800Y251800
X291800Y251800
X286800Y246800
X281800Y246800
X271800Y246800
X261800Y246800
X246800Y254300
X241800Y259300
X234300Y259300
X246800Y279300
X246800Y289300
X229300Y286800
X234300Y306800
X209300Y311800
X209300Y324300
X204300Y339300
X209300Y341800
X199300Y351800
X194300Y344300
X189300Y336800
X181800Y326800
X164300Y326800
X164300Y331800
X161800Y339300
X156800Y339300
X146800Y339300
X151800Y351800
X151800Y356800
X151800Y361800
X146800Y364300
X144300Y371800
X144300Y379300
X146800Y384300
X151800Y396800
X151800Y401800
X151800Y406800
X151800Y411800
X146800Y414300
X154300Y419300
X98050Y416800
X98050Y386800
X98050Y381800
X98050Y371800
X96800Y366800
X79300Y354300
X75550Y358050
X69300Y349300
X64300Y346800
X51800Y354300
X44300Y351800
X21800Y336800
X49300Y321800
X54300Y326800
X64300Y326800
X69300Y324300
X74300Y324300
X84300Y324300
X89300Y329300
X98050Y334300
X99300Y324300
X104300Y319300
X104300Y314300
X104300Y309300
X144300Y324300
X151800Y319300
X146800Y314300
X161800Y316800
X159300Y296800
X154300Y296800
X166800Y291800
X171800Y289300
X164300Y281800
X164300Y274300
X159300Y274300
X154300Y274300
X149300Y266800
X151800Y259300
X149300Y251800
X151800Y246800
X149300Y239300
X144300Y239300
X151800Y234300
X151800Y229300
X164300Y214300
X171800Y214300
X181800Y209300
X181800Y199300
X181800Y194300
X181800Y189300
X181800Y184300
X174300Y189300
X174300Y194300
X169300Y194300
X169300Y189300
X156800Y191800
X156800Y199300
X134300Y184300
X124300Y174300
X111800Y166800
X111800Y159300
X111800Y154300
X106800Y149300
X99300Y145550
X96800Y149300
X94300Y145550
X91800Y149300
X91800Y156800
X91800Y161800
X86800Y161800
X86800Y156800
X81800Y156800
X81800Y161800
X69300Y169300
X64300Y169300
X59300Y169300
X49300Y159300
X44300Y159300
X39300Y159300
X34300Y159300
X29300Y159300
X14300Y164300
X26800Y136800
X31800Y136800
X36800Y136800
X41800Y136800
X46800Y136800
X51800Y136800
X61800Y116800
X55800Y102800
X55800Y97800
X55800Y92800
X50800Y92800
X50800Y97800
X50800Y102800
X45800Y102800
X45800Y97800
X45800Y92800
X40800Y97300
X34800Y97300
X34800Y91300
X34800Y85300
X28800Y85300
X28800Y91300
X89300Y111800
X94300Y111800
X96800Y121800
X101800Y121800
X106800Y129300
X106800Y134300
X106800Y139300
X111800Y139300
X111800Y134300
X111800Y129300
X134300Y126800
X134300Y131800
X134300Y136800
X134300Y141800
X134300Y146800
X134300Y151800
X151800Y161800
X151800Y166800
X151800Y171800
X166800Y171800
X166800Y166800
X166800Y161800
X176800Y151800
X176800Y146800
X176800Y141800
X176800Y136800
X176800Y131800
X181800Y179300
X191800Y194300
X196800Y194300
X201800Y194300
X206800Y194300
X211800Y194300
X211800Y216800
X206800Y216800
X201800Y216800
X196800Y216800
X196800Y234300
X181800Y244300
X211800Y246800
X226800Y239300
X274300Y201800
X289300Y199300
X289300Y204300
X289300Y209300
X301800Y194300
X301800Y189300
X299300Y184300
X299300Y179300
X286800Y179300
X286800Y184300
X286800Y189300
X306800Y196800
X324300Y199300
X324300Y189300
X336800Y184300
X349300Y184300
X349300Y179300
X354300Y179300
X374300Y159300
X361800Y151800
X356800Y146800
X344300Y144300
X339300Y144300
X336800Y139300
X349300Y134300
X339300Y126800
X341800Y121800
X341800Y116800
X336800Y114300
X349300Y99300
X342800Y80800
X342800Y75800
X342800Y70800
X337800Y75800
X300300Y75800
X300300Y70800
X295300Y75800
X300300Y80800
X289300Y99300
X304300Y109300
X299300Y111800
X304300Y114300
X301800Y124300
X306800Y124300
X301800Y134300
X299300Y139300
X304300Y139300
X296800Y156800
X291800Y156800
X316800Y159300
X324300Y149300
X334300Y154300
X366800Y131800
X366800Y201800
X361800Y209300
X349300Y209300
X346800Y219300
X346800Y224300
X339300Y231800
X341800Y236800
X331800Y224300
X336800Y219300
X331800Y211800
X331800Y206800
X319300Y241800
X309300Y241800
X331800Y249300
X331800Y259300
X331800Y269300
X339300Y279300
X331800Y286800
X339300Y296800
X334300Y299300
X334300Y311800
X331800Y324300
X351800Y309300
X356800Y311800
X361800Y306800
X361800Y296800
X356800Y296800
X356800Y289300
X344300Y269300
X344300Y264300
X344300Y259300
X351800Y266800
X296800Y269300
X296800Y274300
X291800Y289300
X286800Y294300
X291800Y301800
X284300Y304300
X286800Y309300
X289300Y314300
X294300Y324300
X294300Y329300
X289300Y329300
X296800Y339300
X296800Y344300
X284300Y351800
X276800Y349300
X276800Y356800
X269300Y359300
X264300Y359300
X269300Y364300
X259300Y369300
X256800Y364300
X239300Y366800
X229300Y354300
X234300Y334300
X271800Y314300
X276800Y324300
X266800Y296800
X274300Y286800
X269300Y281800
X199300Y299300
X196800Y294300
X196800Y304300
X191800Y284300
X109300Y246800
X104300Y246800
X104300Y239300
X109300Y239300
X106800Y231800
X99300Y219300
X86800Y226800
X86800Y231800
X81800Y226800
X74300Y226800
X70550Y224300
X74300Y221800
X70550Y219300
X64300Y231800
X59300Y231800
X54300Y231800
X49300Y231800
X44300Y231800
X39300Y231800
X66800Y254300
X66800Y259300
X66800Y264300
X66800Y269300
X66800Y274300
X66800Y279300
X89300Y279300
X89300Y274300
X89300Y269300
X89300Y264300
X89300Y259300
X89300Y254300
X96800Y249300
X96800Y244300
X114300Y219300
X116800Y201800
X99300Y201800
X69300Y184300
X64300Y184300
X59300Y184300
X84300Y179300
X94300Y171800
X252800Y75800
X257800Y75800
X257800Y70800
X257800Y80800
X261800Y96800
X346800Y344300
X334300Y364300
X329300Y364300
X311800Y366800
X309300Y359300
X304300Y361800
X299300Y364300
X289300Y371800
X296800Y384300
X296800Y356800
X344300Y376800
X211800Y371800
X199300Y366800
X191800Y366800
X186800Y369300
X179300Y371800
X174300Y374300
X169300Y371800
T04
X331800Y351800
X284300Y124300
X279300Y96800
T05
X281800Y391800
X291800Y391800
X291800Y401800
X281800Y401800
X271800Y401800
X271800Y391800
X261800Y391800
X251800Y391800
X251800Y401800
X261800Y401800
X241800Y401800
X241800Y391800
X231800Y391800
X221800Y391800
X221800Y401800
X231800Y401800
X211800Y401800
X201800Y401800
X201800Y391800
X211800Y391800
X191800Y391800
X191800Y401800
X181800Y401800
X181800Y391800
X301800Y391800
X301800Y401800
X311800Y401800
X321800Y401800
X321800Y391800
X311800Y391800
X331800Y391800
X341800Y391800
X341800Y401800
X331800Y401800
X351800Y401800
X351800Y391800
X361800Y391800
X371800Y391800
X371800Y401800
X361800Y401800
T06
X359300Y359300
X74300Y409300
X364300Y111800
X22800Y108300
M30
