G75*
%MOIN*%
%OFA0B0*%
%FSLAX25Y25*%
%IPPOS*%
%LPD*%
%AMOC8*
5,1,8,0,0,1.08239X$1,22.5*
%
%ADD10OC8,0.06000*%
%ADD11R,0.16800X0.17600*%
%ADD12C,0.03500*%
%ADD13C,0.03543*%
%ADD14C,0.01600*%
%ADD15C,0.02969*%
%ADD16C,0.04134*%
%ADD17C,0.02400*%
D10*
X0181800Y0391800D03*
X0181800Y0401800D03*
X0191800Y0401800D03*
X0191800Y0391800D03*
X0201800Y0391800D03*
X0211800Y0391800D03*
X0211800Y0401800D03*
X0201800Y0401800D03*
X0221800Y0401800D03*
X0231800Y0401800D03*
X0231800Y0391800D03*
X0221800Y0391800D03*
X0241800Y0391800D03*
X0241800Y0401800D03*
X0251800Y0401800D03*
X0261800Y0401800D03*
X0261800Y0391800D03*
X0251800Y0391800D03*
X0271800Y0391800D03*
X0271800Y0401800D03*
X0281800Y0401800D03*
X0291800Y0401800D03*
X0291800Y0391800D03*
X0281800Y0391800D03*
X0301800Y0391800D03*
X0301800Y0401800D03*
X0311800Y0401800D03*
X0321800Y0401800D03*
X0321800Y0391800D03*
X0311800Y0391800D03*
X0331800Y0391800D03*
X0341800Y0391800D03*
X0341800Y0401800D03*
X0331800Y0401800D03*
X0351800Y0401800D03*
X0351800Y0391800D03*
X0361800Y0391800D03*
X0371800Y0391800D03*
X0371800Y0401800D03*
X0361800Y0401800D03*
D11*
X0270600Y0186800D03*
X0270500Y0161800D03*
X0270500Y0136800D03*
X0270500Y0111800D03*
X0353100Y0164300D03*
X0318100Y0174300D03*
D12*
X0316800Y0174300D03*
X0311800Y0174300D03*
X0311800Y0169300D03*
X0316800Y0169300D03*
X0321800Y0169300D03*
X0321800Y0174300D03*
X0321800Y0179300D03*
X0316800Y0179300D03*
X0311800Y0179300D03*
X0346800Y0169300D03*
X0346800Y0164300D03*
X0346800Y0159300D03*
X0351800Y0159300D03*
X0351800Y0164300D03*
X0351800Y0169300D03*
X0356800Y0169300D03*
X0356800Y0164300D03*
X0356800Y0159300D03*
X0276800Y0156800D03*
X0276800Y0161800D03*
X0271800Y0161800D03*
X0271800Y0156800D03*
X0266800Y0156800D03*
X0266800Y0161800D03*
X0266800Y0166800D03*
X0271800Y0166800D03*
X0276800Y0166800D03*
X0274300Y0181800D03*
X0269300Y0181800D03*
X0269300Y0186800D03*
X0274300Y0186800D03*
X0274300Y0191800D03*
X0269300Y0191800D03*
X0264300Y0191800D03*
X0264300Y0186800D03*
X0264300Y0181800D03*
X0266800Y0141800D03*
X0266800Y0136800D03*
X0266800Y0131800D03*
X0271800Y0131800D03*
X0271800Y0136800D03*
X0271800Y0141800D03*
X0276800Y0141800D03*
X0276800Y0136800D03*
X0276800Y0131800D03*
X0276800Y0116800D03*
X0276800Y0111800D03*
X0276800Y0106800D03*
X0271800Y0106800D03*
X0271800Y0111800D03*
X0271800Y0116800D03*
X0266800Y0116800D03*
X0266800Y0111800D03*
X0266800Y0106800D03*
D13*
X0115300Y0075800D03*
X0115300Y0080800D03*
X0120300Y0080800D03*
X0120300Y0075800D03*
X0130300Y0085800D03*
X0130300Y0090800D03*
X0130300Y0095800D03*
X0156800Y0099300D03*
X0161800Y0096800D03*
X0164300Y0089300D03*
X0164300Y0084300D03*
X0159300Y0084300D03*
X0179300Y0084300D03*
X0179300Y0089300D03*
X0184300Y0084300D03*
X0212800Y0073300D03*
X0217800Y0073300D03*
X0217800Y0078300D03*
X0224300Y0094300D03*
X0221800Y0116800D03*
X0216800Y0121800D03*
X0229300Y0126800D03*
X0225800Y0131800D03*
X0211800Y0139300D03*
X0211800Y0144300D03*
X0206800Y0144300D03*
X0201800Y0144300D03*
X0201800Y0139300D03*
X0206800Y0139300D03*
X0231800Y0154300D03*
X0234300Y0174300D03*
X0254300Y0174300D03*
X0236800Y0194300D03*
X0236800Y0199300D03*
X0236800Y0206800D03*
X0251800Y0216800D03*
X0254300Y0221800D03*
X0266800Y0216800D03*
X0269300Y0221800D03*
X0284300Y0221800D03*
X0294300Y0224300D03*
X0294300Y0231800D03*
X0291800Y0236800D03*
X0299300Y0244300D03*
X0296800Y0251800D03*
X0291800Y0251800D03*
X0286800Y0246800D03*
X0281800Y0246800D03*
X0271800Y0246800D03*
X0261800Y0246800D03*
X0246800Y0254300D03*
X0241800Y0259300D03*
X0234300Y0259300D03*
X0246800Y0279300D03*
X0246800Y0289300D03*
X0229300Y0286800D03*
X0234300Y0306800D03*
X0209300Y0311800D03*
X0209300Y0324300D03*
X0204300Y0339300D03*
X0209300Y0341800D03*
X0199300Y0351800D03*
X0194300Y0344300D03*
X0189300Y0336800D03*
X0181800Y0326800D03*
X0164300Y0326800D03*
X0164300Y0331800D03*
X0161800Y0339300D03*
X0156800Y0339300D03*
X0146800Y0339300D03*
X0151800Y0351800D03*
X0151800Y0356800D03*
X0151800Y0361800D03*
X0146800Y0364300D03*
X0144300Y0371800D03*
X0144300Y0379300D03*
X0146800Y0384300D03*
X0151800Y0396800D03*
X0151800Y0401800D03*
X0151800Y0406800D03*
X0151800Y0411800D03*
X0146800Y0414300D03*
X0154300Y0419300D03*
X0098050Y0416800D03*
X0098050Y0386800D03*
X0098050Y0381800D03*
X0098050Y0371800D03*
X0096800Y0366800D03*
X0079300Y0354300D03*
X0075550Y0358050D03*
X0069300Y0349300D03*
X0064300Y0346800D03*
X0051800Y0354300D03*
X0044300Y0351800D03*
X0021800Y0336800D03*
X0049300Y0321800D03*
X0054300Y0326800D03*
X0064300Y0326800D03*
X0069300Y0324300D03*
X0074300Y0324300D03*
X0084300Y0324300D03*
X0089300Y0329300D03*
X0098050Y0334300D03*
X0099300Y0324300D03*
X0104300Y0319300D03*
X0104300Y0314300D03*
X0104300Y0309300D03*
X0144300Y0324300D03*
X0151800Y0319300D03*
X0146800Y0314300D03*
X0161800Y0316800D03*
X0159300Y0296800D03*
X0154300Y0296800D03*
X0166800Y0291800D03*
X0171800Y0289300D03*
X0164300Y0281800D03*
X0164300Y0274300D03*
X0159300Y0274300D03*
X0154300Y0274300D03*
X0149300Y0266800D03*
X0151800Y0259300D03*
X0149300Y0251800D03*
X0151800Y0246800D03*
X0149300Y0239300D03*
X0144300Y0239300D03*
X0151800Y0234300D03*
X0151800Y0229300D03*
X0164300Y0214300D03*
X0171800Y0214300D03*
X0181800Y0209300D03*
X0181800Y0199300D03*
X0181800Y0194300D03*
X0181800Y0189300D03*
X0181800Y0184300D03*
X0174300Y0189300D03*
X0174300Y0194300D03*
X0169300Y0194300D03*
X0169300Y0189300D03*
X0156800Y0191800D03*
X0156800Y0199300D03*
X0134300Y0184300D03*
X0124300Y0174300D03*
X0111800Y0166800D03*
X0111800Y0159300D03*
X0111800Y0154300D03*
X0106800Y0149300D03*
X0099300Y0145550D03*
X0096800Y0149300D03*
X0094300Y0145550D03*
X0091800Y0149300D03*
X0091800Y0156800D03*
X0091800Y0161800D03*
X0086800Y0161800D03*
X0086800Y0156800D03*
X0081800Y0156800D03*
X0081800Y0161800D03*
X0069300Y0169300D03*
X0064300Y0169300D03*
X0059300Y0169300D03*
X0049300Y0159300D03*
X0044300Y0159300D03*
X0039300Y0159300D03*
X0034300Y0159300D03*
X0029300Y0159300D03*
X0014300Y0164300D03*
X0026800Y0136800D03*
X0031800Y0136800D03*
X0036800Y0136800D03*
X0041800Y0136800D03*
X0046800Y0136800D03*
X0051800Y0136800D03*
X0061800Y0116800D03*
X0055800Y0102800D03*
X0055800Y0097800D03*
X0055800Y0092800D03*
X0050800Y0092800D03*
X0050800Y0097800D03*
X0050800Y0102800D03*
X0045800Y0102800D03*
X0045800Y0097800D03*
X0045800Y0092800D03*
X0040800Y0097300D03*
X0034800Y0097300D03*
X0034800Y0091300D03*
X0034800Y0085300D03*
X0028800Y0085300D03*
X0028800Y0091300D03*
X0089300Y0111800D03*
X0094300Y0111800D03*
X0096800Y0121800D03*
X0101800Y0121800D03*
X0106800Y0129300D03*
X0106800Y0134300D03*
X0106800Y0139300D03*
X0111800Y0139300D03*
X0111800Y0134300D03*
X0111800Y0129300D03*
X0134300Y0126800D03*
X0134300Y0131800D03*
X0134300Y0136800D03*
X0134300Y0141800D03*
X0134300Y0146800D03*
X0134300Y0151800D03*
X0151800Y0161800D03*
X0151800Y0166800D03*
X0151800Y0171800D03*
X0166800Y0171800D03*
X0166800Y0166800D03*
X0166800Y0161800D03*
X0176800Y0151800D03*
X0176800Y0146800D03*
X0176800Y0141800D03*
X0176800Y0136800D03*
X0176800Y0131800D03*
X0181800Y0179300D03*
X0191800Y0194300D03*
X0196800Y0194300D03*
X0201800Y0194300D03*
X0206800Y0194300D03*
X0211800Y0194300D03*
X0211800Y0216800D03*
X0206800Y0216800D03*
X0201800Y0216800D03*
X0196800Y0216800D03*
X0196800Y0234300D03*
X0181800Y0244300D03*
X0211800Y0246800D03*
X0226800Y0239300D03*
X0274300Y0201800D03*
X0289300Y0199300D03*
X0289300Y0204300D03*
X0289300Y0209300D03*
X0301800Y0194300D03*
X0301800Y0189300D03*
X0299300Y0184300D03*
X0299300Y0179300D03*
X0286800Y0179300D03*
X0286800Y0184300D03*
X0286800Y0189300D03*
X0306800Y0196800D03*
X0324300Y0199300D03*
X0324300Y0189300D03*
X0336800Y0184300D03*
X0349300Y0184300D03*
X0349300Y0179300D03*
X0354300Y0179300D03*
X0374300Y0159300D03*
X0361800Y0151800D03*
X0356800Y0146800D03*
X0344300Y0144300D03*
X0339300Y0144300D03*
X0336800Y0139300D03*
X0349300Y0134300D03*
X0339300Y0126800D03*
X0341800Y0121800D03*
X0341800Y0116800D03*
X0336800Y0114300D03*
X0349300Y0099300D03*
X0342800Y0080800D03*
X0342800Y0075800D03*
X0342800Y0070800D03*
X0337800Y0075800D03*
X0300300Y0075800D03*
X0300300Y0070800D03*
X0295300Y0075800D03*
X0300300Y0080800D03*
X0289300Y0099300D03*
X0304300Y0109300D03*
X0299300Y0111800D03*
X0304300Y0114300D03*
X0301800Y0124300D03*
X0306800Y0124300D03*
X0301800Y0134300D03*
X0299300Y0139300D03*
X0304300Y0139300D03*
X0296800Y0156800D03*
X0291800Y0156800D03*
X0316800Y0159300D03*
X0324300Y0149300D03*
X0334300Y0154300D03*
X0366800Y0131800D03*
X0366800Y0201800D03*
X0361800Y0209300D03*
X0349300Y0209300D03*
X0346800Y0219300D03*
X0346800Y0224300D03*
X0339300Y0231800D03*
X0341800Y0236800D03*
X0331800Y0224300D03*
X0336800Y0219300D03*
X0331800Y0211800D03*
X0331800Y0206800D03*
X0319300Y0241800D03*
X0309300Y0241800D03*
X0331800Y0249300D03*
X0331800Y0259300D03*
X0331800Y0269300D03*
X0339300Y0279300D03*
X0331800Y0286800D03*
X0339300Y0296800D03*
X0334300Y0299300D03*
X0334300Y0311800D03*
X0331800Y0324300D03*
X0351800Y0309300D03*
X0356800Y0311800D03*
X0361800Y0306800D03*
X0361800Y0296800D03*
X0356800Y0296800D03*
X0356800Y0289300D03*
X0344300Y0269300D03*
X0344300Y0264300D03*
X0344300Y0259300D03*
X0351800Y0266800D03*
X0296800Y0269300D03*
X0296800Y0274300D03*
X0291800Y0289300D03*
X0286800Y0294300D03*
X0291800Y0301800D03*
X0284300Y0304300D03*
X0286800Y0309300D03*
X0289300Y0314300D03*
X0294300Y0324300D03*
X0294300Y0329300D03*
X0289300Y0329300D03*
X0296800Y0339300D03*
X0296800Y0344300D03*
X0284300Y0351800D03*
X0276800Y0349300D03*
X0276800Y0356800D03*
X0269300Y0359300D03*
X0264300Y0359300D03*
X0269300Y0364300D03*
X0259300Y0369300D03*
X0256800Y0364300D03*
X0239300Y0366800D03*
X0229300Y0354300D03*
X0234300Y0334300D03*
X0271800Y0314300D03*
X0276800Y0324300D03*
X0266800Y0296800D03*
X0274300Y0286800D03*
X0269300Y0281800D03*
X0199300Y0299300D03*
X0196800Y0294300D03*
X0196800Y0304300D03*
X0191800Y0284300D03*
X0109300Y0246800D03*
X0104300Y0246800D03*
X0104300Y0239300D03*
X0109300Y0239300D03*
X0106800Y0231800D03*
X0099300Y0219300D03*
X0086800Y0226800D03*
X0086800Y0231800D03*
X0081800Y0226800D03*
X0074300Y0226800D03*
X0070550Y0224300D03*
X0074300Y0221800D03*
X0070550Y0219300D03*
X0064300Y0231800D03*
X0059300Y0231800D03*
X0054300Y0231800D03*
X0049300Y0231800D03*
X0044300Y0231800D03*
X0039300Y0231800D03*
X0066800Y0254300D03*
X0066800Y0259300D03*
X0066800Y0264300D03*
X0066800Y0269300D03*
X0066800Y0274300D03*
X0066800Y0279300D03*
X0089300Y0279300D03*
X0089300Y0274300D03*
X0089300Y0269300D03*
X0089300Y0264300D03*
X0089300Y0259300D03*
X0089300Y0254300D03*
X0096800Y0249300D03*
X0096800Y0244300D03*
X0114300Y0219300D03*
X0116800Y0201800D03*
X0099300Y0201800D03*
X0069300Y0184300D03*
X0064300Y0184300D03*
X0059300Y0184300D03*
X0084300Y0179300D03*
X0094300Y0171800D03*
X0252800Y0075800D03*
X0257800Y0075800D03*
X0257800Y0070800D03*
X0257800Y0080800D03*
X0261800Y0096800D03*
X0346800Y0344300D03*
X0334300Y0364300D03*
X0329300Y0364300D03*
X0311800Y0366800D03*
X0309300Y0359300D03*
X0304300Y0361800D03*
X0299300Y0364300D03*
X0289300Y0371800D03*
X0296800Y0384300D03*
X0296800Y0356800D03*
X0344300Y0376800D03*
X0211800Y0371800D03*
X0199300Y0366800D03*
X0191800Y0366800D03*
X0186800Y0369300D03*
X0179300Y0371800D03*
X0174300Y0374300D03*
X0169300Y0371800D03*
D14*
X0164300Y0366800D01*
X0164300Y0351800D01*
X0156800Y0344300D01*
X0156800Y0339300D01*
X0161800Y0339300D02*
X0161800Y0341800D01*
X0166800Y0346800D01*
X0166800Y0361800D01*
X0169300Y0364300D01*
X0189300Y0364300D01*
X0191800Y0366800D01*
X0189300Y0371800D02*
X0206800Y0371800D01*
X0214300Y0364300D01*
X0224300Y0374300D01*
X0269300Y0374300D01*
X0281800Y0361800D01*
X0291800Y0361800D01*
X0294300Y0364300D01*
X0299300Y0364300D01*
X0296800Y0361800D02*
X0294300Y0359300D01*
X0279300Y0359300D01*
X0269300Y0369300D01*
X0264300Y0369300D01*
X0261800Y0366800D01*
X0261800Y0361800D01*
X0259300Y0359300D01*
X0229300Y0359300D01*
X0221800Y0351800D01*
X0206800Y0351800D01*
X0199300Y0344300D01*
X0194300Y0344300D01*
X0199300Y0341800D02*
X0194300Y0336800D01*
X0194300Y0321800D01*
X0199300Y0316800D01*
X0199300Y0311800D01*
X0191800Y0304300D01*
X0191800Y0299300D01*
X0196800Y0294300D01*
X0199300Y0299300D02*
X0209300Y0309300D01*
X0209300Y0311800D01*
X0211800Y0311800D01*
X0216800Y0316800D01*
X0239300Y0316800D01*
X0259300Y0296800D01*
X0266800Y0296800D01*
X0269300Y0291800D02*
X0269300Y0281800D01*
X0269300Y0276800D02*
X0261800Y0284300D01*
X0261800Y0289300D01*
X0236800Y0314300D01*
X0219300Y0314300D01*
X0214300Y0309300D01*
X0214300Y0301800D01*
X0199300Y0286800D01*
X0169300Y0316800D01*
X0169300Y0321800D01*
X0164300Y0326800D01*
X0159300Y0326800D02*
X0166800Y0319300D01*
X0166800Y0314300D01*
X0196800Y0284300D01*
X0201800Y0284300D01*
X0216800Y0299300D01*
X0216800Y0306800D01*
X0221800Y0311800D01*
X0234300Y0311800D01*
X0259300Y0286800D01*
X0259300Y0281800D01*
X0266800Y0274300D01*
X0276800Y0274300D01*
X0291800Y0259300D01*
X0291800Y0251800D01*
X0291800Y0246800D02*
X0296800Y0246800D01*
X0301800Y0251800D01*
X0301800Y0246800D01*
X0304300Y0244300D01*
X0304300Y0234300D01*
X0306800Y0231800D01*
X0306800Y0216800D01*
X0304300Y0214300D01*
X0304300Y0211800D01*
X0309300Y0206800D01*
X0331800Y0206800D01*
X0331800Y0211800D02*
X0331800Y0219300D01*
X0336800Y0224300D01*
X0334300Y0226800D01*
X0334300Y0246800D01*
X0336800Y0249300D01*
X0336800Y0254300D01*
X0338050Y0255550D01*
X0339300Y0256800D01*
X0339300Y0261800D01*
X0341800Y0264300D01*
X0344300Y0264300D01*
X0344300Y0259300D02*
X0344300Y0256800D01*
X0339300Y0251800D01*
X0339300Y0246800D01*
X0336800Y0244300D01*
X0336800Y0234300D01*
X0339300Y0231800D01*
X0346800Y0229300D02*
X0346800Y0256800D01*
X0356800Y0266800D01*
X0346800Y0276800D01*
X0346800Y0299300D01*
X0341800Y0304300D01*
X0341800Y0314300D01*
X0336800Y0319300D01*
X0336800Y0324300D01*
X0334300Y0326800D01*
X0334300Y0346800D01*
X0336800Y0349300D01*
X0336800Y0351800D01*
X0331800Y0356800D01*
X0326800Y0351800D01*
X0296800Y0351800D01*
X0296800Y0344300D01*
X0296800Y0339300D02*
X0299300Y0336800D01*
X0299300Y0311800D01*
X0329300Y0311800D01*
X0334300Y0306800D01*
X0334300Y0299300D01*
X0339300Y0296800D02*
X0339300Y0289300D01*
X0334300Y0284300D01*
X0334300Y0271800D01*
X0336800Y0269300D01*
X0334300Y0266800D01*
X0334300Y0261800D01*
X0331800Y0259300D01*
X0336800Y0259300D02*
X0336800Y0264300D01*
X0339300Y0266800D01*
X0339300Y0279300D01*
X0344300Y0274300D02*
X0351800Y0266800D01*
X0349300Y0264300D02*
X0344300Y0259300D01*
X0349300Y0264300D02*
X0344300Y0269300D01*
X0344300Y0274300D02*
X0344300Y0296800D01*
X0339300Y0301800D01*
X0339300Y0311800D01*
X0331800Y0319300D01*
X0331800Y0324300D01*
X0336800Y0334300D02*
X0344300Y0326800D01*
X0344300Y0306800D01*
X0349300Y0301800D01*
X0349300Y0279300D01*
X0359300Y0269300D01*
X0359300Y0264300D01*
X0349300Y0254300D01*
X0349300Y0226800D01*
X0351800Y0224300D01*
X0346800Y0219300D01*
X0346800Y0224300D02*
X0336800Y0214300D01*
X0336800Y0206800D01*
X0321800Y0191800D01*
X0304300Y0191800D01*
X0301800Y0194300D01*
X0304300Y0196800D02*
X0306800Y0196800D01*
X0309300Y0199300D01*
X0304300Y0196800D02*
X0301800Y0199300D01*
X0301800Y0216800D01*
X0304300Y0219300D01*
X0304300Y0229300D01*
X0301800Y0231800D01*
X0301800Y0241800D01*
X0299300Y0244300D01*
X0294300Y0244300D01*
X0284300Y0234300D01*
X0284300Y0221800D01*
X0286800Y0224300D02*
X0286800Y0226800D01*
X0291800Y0231800D01*
X0294300Y0231800D01*
X0296800Y0231800D01*
X0296800Y0226800D01*
X0299300Y0224300D01*
X0296800Y0221800D01*
X0296800Y0204300D01*
X0291800Y0199300D01*
X0289300Y0199300D01*
X0294300Y0191800D02*
X0299300Y0196800D01*
X0299300Y0219300D01*
X0301800Y0221800D01*
X0301800Y0226800D01*
X0299300Y0229300D01*
X0299300Y0236800D01*
X0291800Y0236800D01*
X0286800Y0241800D02*
X0291800Y0246800D01*
X0286800Y0241800D02*
X0274300Y0241800D01*
X0258050Y0225550D01*
X0259300Y0224300D01*
X0259300Y0219300D01*
X0256800Y0216800D01*
X0251800Y0216800D01*
X0246800Y0219300D02*
X0246800Y0211800D01*
X0241800Y0206800D01*
X0236800Y0206800D01*
X0226800Y0204300D02*
X0266800Y0244300D01*
X0266800Y0246800D01*
X0271800Y0251800D01*
X0276800Y0251800D01*
X0281800Y0246800D01*
X0271800Y0246800D02*
X0271800Y0244300D01*
X0246800Y0219300D01*
X0226800Y0204300D02*
X0226800Y0181800D01*
X0234300Y0174300D01*
X0241800Y0169300D02*
X0241800Y0189300D01*
X0236800Y0194300D01*
X0249300Y0186800D02*
X0279300Y0216800D01*
X0286800Y0216800D01*
X0289300Y0219300D01*
X0289300Y0221800D01*
X0286800Y0224300D01*
X0294300Y0224300D02*
X0294300Y0219300D01*
X0289300Y0214300D01*
X0284300Y0214300D01*
X0274300Y0204300D01*
X0274300Y0201800D01*
X0294300Y0191800D02*
X0294300Y0179300D01*
X0306800Y0166800D01*
X0306800Y0156800D01*
X0329300Y0134300D01*
X0349300Y0134300D01*
X0354300Y0131800D02*
X0351800Y0129300D01*
X0346800Y0129300D01*
X0344300Y0131800D01*
X0339300Y0131800D01*
X0336800Y0129300D01*
X0296800Y0129300D01*
X0296800Y0114300D01*
X0299300Y0111800D01*
X0304300Y0109300D02*
X0306800Y0106800D01*
X0341800Y0106800D01*
X0346800Y0111800D01*
X0346800Y0119300D01*
X0356800Y0129300D01*
X0356800Y0139300D01*
X0346800Y0149300D01*
X0331800Y0149300D01*
X0329300Y0151800D01*
X0329300Y0154300D01*
X0334300Y0159300D01*
X0334300Y0171800D01*
X0344300Y0181800D01*
X0344300Y0204300D01*
X0349300Y0209300D01*
X0349300Y0214300D02*
X0341800Y0214300D01*
X0339300Y0211800D01*
X0339300Y0186800D01*
X0341800Y0184300D01*
X0331800Y0174300D01*
X0331800Y0161800D01*
X0324300Y0154300D01*
X0324300Y0149300D01*
X0334300Y0154300D02*
X0341800Y0154300D01*
X0344300Y0151800D01*
X0361800Y0151800D01*
X0366800Y0141800D02*
X0366800Y0181800D01*
X0354300Y0194300D01*
X0354300Y0214300D01*
X0356800Y0216800D01*
X0356800Y0229300D01*
X0354300Y0231800D01*
X0354300Y0249300D01*
X0364300Y0259300D01*
X0364300Y0289300D01*
X0369300Y0294300D01*
X0369300Y0309300D01*
X0364300Y0314300D01*
X0361800Y0314300D01*
X0356800Y0319300D01*
X0356800Y0324300D01*
X0351800Y0329300D01*
X0351800Y0344300D01*
X0344300Y0351800D01*
X0344300Y0376800D01*
X0346800Y0379300D01*
X0371800Y0379300D01*
X0379300Y0386800D01*
X0379300Y0406800D01*
X0376800Y0409300D01*
X0354300Y0409300D01*
X0351800Y0406800D01*
X0351800Y0401800D01*
X0341800Y0401800D02*
X0341800Y0414300D01*
X0339300Y0416800D01*
X0244300Y0416800D01*
X0239300Y0421800D01*
X0156800Y0421800D01*
X0154300Y0419300D01*
X0159300Y0419300D02*
X0151800Y0411800D01*
X0151800Y0406800D02*
X0161800Y0416800D01*
X0234300Y0416800D01*
X0239300Y0411800D01*
X0299300Y0411800D01*
X0301800Y0409300D01*
X0301800Y0401800D01*
X0301800Y0391800D02*
X0301800Y0381800D01*
X0299300Y0379300D01*
X0296800Y0379300D01*
X0294300Y0381800D01*
X0156800Y0381800D01*
X0154300Y0379300D01*
X0154300Y0364300D01*
X0156800Y0361800D01*
X0156800Y0359300D01*
X0154300Y0356800D01*
X0151800Y0356800D01*
X0151800Y0351800D02*
X0154300Y0351800D01*
X0159300Y0356800D01*
X0159300Y0364300D01*
X0156800Y0366800D01*
X0156800Y0376800D01*
X0159300Y0379300D01*
X0291800Y0379300D01*
X0294300Y0376800D01*
X0314300Y0376800D01*
X0321800Y0384300D01*
X0321800Y0391800D01*
X0311800Y0401800D02*
X0311800Y0411800D01*
X0309300Y0414300D01*
X0241800Y0414300D01*
X0236800Y0419300D01*
X0159300Y0419300D01*
X0164300Y0414300D02*
X0151800Y0401800D01*
X0151800Y0396800D02*
X0166800Y0411800D01*
X0219300Y0411800D01*
X0221800Y0409300D01*
X0221800Y0401800D01*
X0231800Y0401800D02*
X0231800Y0411800D01*
X0229300Y0414300D01*
X0164300Y0414300D01*
X0146800Y0414300D02*
X0146800Y0384300D01*
X0149300Y0381800D01*
X0149300Y0366800D01*
X0146800Y0364300D01*
X0146800Y0339300D01*
X0144300Y0334300D02*
X0161800Y0334300D01*
X0166800Y0339300D01*
X0186800Y0339300D01*
X0189300Y0336800D01*
X0199300Y0341800D02*
X0201800Y0341800D01*
X0209300Y0349300D01*
X0224300Y0349300D01*
X0229300Y0354300D01*
X0226800Y0366800D02*
X0231800Y0371800D01*
X0256800Y0371800D01*
X0259300Y0369300D01*
X0264300Y0364300D02*
X0269300Y0364300D01*
X0264300Y0364300D02*
X0264300Y0359300D01*
X0269300Y0354300D01*
X0269300Y0316800D01*
X0266800Y0314300D01*
X0266800Y0311800D01*
X0271800Y0306800D01*
X0271800Y0294300D01*
X0269300Y0291800D01*
X0276800Y0289300D02*
X0284300Y0281800D01*
X0289300Y0281800D01*
X0291800Y0279300D01*
X0291800Y0269300D01*
X0301800Y0259300D01*
X0301800Y0251800D01*
X0304300Y0249300D02*
X0309300Y0244300D01*
X0309300Y0241800D01*
X0304300Y0249300D02*
X0304300Y0266800D01*
X0301800Y0269300D01*
X0296800Y0269300D01*
X0296800Y0274300D02*
X0296800Y0284300D01*
X0329300Y0284300D01*
X0331800Y0281800D01*
X0331800Y0269300D01*
X0336800Y0259300D02*
X0319300Y0241800D01*
X0331800Y0249300D02*
X0331800Y0224300D01*
X0336800Y0219300D02*
X0346800Y0229300D01*
X0351800Y0229300D02*
X0354300Y0226800D01*
X0354300Y0219300D01*
X0349300Y0214300D01*
X0356800Y0204300D02*
X0356800Y0196800D01*
X0369300Y0184300D01*
X0369300Y0139300D01*
X0361800Y0134300D01*
X0361800Y0124300D01*
X0351800Y0114300D01*
X0351800Y0106800D01*
X0346800Y0101800D01*
X0304300Y0101800D01*
X0289300Y0086800D01*
X0259300Y0086800D01*
X0251800Y0094300D01*
X0224300Y0094300D01*
X0219300Y0109300D02*
X0234300Y0124300D01*
X0234300Y0131800D01*
X0224300Y0141800D01*
X0224300Y0151800D01*
X0241800Y0169300D01*
X0249300Y0171800D02*
X0249300Y0186800D01*
X0254300Y0174300D02*
X0294300Y0174300D01*
X0299300Y0169300D01*
X0299300Y0159300D01*
X0301800Y0156800D01*
X0299300Y0154300D01*
X0299300Y0139300D01*
X0299300Y0134300D02*
X0289300Y0144300D01*
X0289300Y0149300D01*
X0296800Y0156800D01*
X0316800Y0159300D02*
X0319300Y0161800D01*
X0326800Y0161800D01*
X0329300Y0164300D01*
X0329300Y0176800D01*
X0336800Y0184300D01*
X0324300Y0189300D02*
X0301800Y0189300D01*
X0249300Y0171800D02*
X0231800Y0154300D01*
X0225800Y0131800D02*
X0216800Y0122800D01*
X0216800Y0121800D01*
X0221800Y0119300D02*
X0221800Y0116800D01*
X0221800Y0119300D02*
X0229300Y0126800D01*
X0219300Y0109300D02*
X0141800Y0109300D01*
X0134300Y0116800D01*
X0061800Y0116800D01*
X0089300Y0111800D02*
X0094300Y0106800D01*
X0099300Y0111800D01*
X0129300Y0111800D01*
X0136800Y0104300D01*
X0141800Y0104300D01*
X0154300Y0091800D01*
X0161800Y0091800D01*
X0169300Y0099300D01*
X0251800Y0099300D01*
X0261800Y0089300D01*
X0286800Y0089300D01*
X0301800Y0104300D01*
X0344300Y0104300D01*
X0349300Y0109300D01*
X0349300Y0116800D01*
X0359300Y0126800D01*
X0359300Y0136800D01*
X0366800Y0141800D01*
X0354300Y0136800D02*
X0354300Y0131800D01*
X0354300Y0136800D02*
X0351800Y0139300D01*
X0344300Y0139300D01*
X0339300Y0144300D01*
X0339300Y0119300D02*
X0341800Y0116800D01*
X0339300Y0119300D02*
X0304300Y0119300D01*
X0301800Y0121800D01*
X0301800Y0124300D01*
X0301800Y0134300D02*
X0299300Y0134300D01*
X0289300Y0099300D02*
X0281800Y0091800D01*
X0279300Y0091800D01*
X0274300Y0096800D01*
X0261800Y0096800D01*
X0171800Y0136800D02*
X0146800Y0136800D01*
X0146800Y0176800D01*
X0166800Y0176800D01*
X0166800Y0181800D01*
X0179300Y0181800D01*
X0179300Y0201800D01*
X0184300Y0201800D01*
X0184300Y0176800D01*
X0171800Y0176800D01*
X0171800Y0136800D01*
X0171800Y0138073D02*
X0146800Y0138073D01*
X0146800Y0139672D02*
X0171800Y0139672D01*
X0171800Y0141270D02*
X0146800Y0141270D01*
X0146800Y0142869D02*
X0171800Y0142869D01*
X0171800Y0144467D02*
X0146800Y0144467D01*
X0146800Y0146066D02*
X0171800Y0146066D01*
X0171800Y0147664D02*
X0146800Y0147664D01*
X0146800Y0149263D02*
X0171800Y0149263D01*
X0171800Y0150861D02*
X0146800Y0150861D01*
X0146800Y0152460D02*
X0171800Y0152460D01*
X0171800Y0154058D02*
X0146800Y0154058D01*
X0146800Y0155657D02*
X0171800Y0155657D01*
X0171800Y0157255D02*
X0146800Y0157255D01*
X0146800Y0158854D02*
X0171800Y0158854D01*
X0171800Y0160452D02*
X0146800Y0160452D01*
X0146800Y0162051D02*
X0171800Y0162051D01*
X0171800Y0163649D02*
X0146800Y0163649D01*
X0146800Y0165248D02*
X0171800Y0165248D01*
X0171800Y0166846D02*
X0146800Y0166846D01*
X0146800Y0168445D02*
X0171800Y0168445D01*
X0171800Y0170043D02*
X0146800Y0170043D01*
X0146800Y0171642D02*
X0171800Y0171642D01*
X0171800Y0173240D02*
X0146800Y0173240D01*
X0146800Y0174839D02*
X0171800Y0174839D01*
X0171800Y0176437D02*
X0146800Y0176437D01*
X0141800Y0171800D02*
X0141800Y0236800D01*
X0144300Y0239300D01*
X0144300Y0244300D02*
X0144300Y0251800D01*
X0151800Y0259300D01*
X0149300Y0266800D02*
X0149300Y0279300D01*
X0166800Y0296800D01*
X0166800Y0309300D01*
X0161800Y0314300D01*
X0161800Y0316800D01*
X0159300Y0314300D02*
X0159300Y0296800D01*
X0156800Y0299300D02*
X0154300Y0296800D01*
X0156800Y0299300D02*
X0156800Y0311800D01*
X0154300Y0314300D01*
X0146800Y0314300D01*
X0151800Y0319300D02*
X0156800Y0319300D01*
X0156800Y0316800D01*
X0159300Y0314300D01*
X0156800Y0319300D02*
X0156800Y0329300D01*
X0161800Y0334300D01*
X0164300Y0331800D02*
X0159300Y0326800D01*
X0144300Y0334300D02*
X0139300Y0339300D01*
X0139300Y0374300D01*
X0141800Y0374300D01*
X0144300Y0371800D01*
X0139300Y0374300D02*
X0139300Y0376800D01*
X0141800Y0379300D01*
X0144300Y0379300D01*
X0151800Y0381800D02*
X0154300Y0384300D01*
X0296800Y0384300D01*
X0301800Y0371800D02*
X0289300Y0371800D01*
X0294300Y0369300D02*
X0289300Y0364300D01*
X0284300Y0364300D01*
X0271800Y0376800D01*
X0176800Y0376800D01*
X0174300Y0374300D01*
X0179300Y0371800D02*
X0181800Y0374300D01*
X0209300Y0374300D01*
X0211800Y0371800D01*
X0199300Y0366800D02*
X0199300Y0351800D01*
X0209300Y0341800D02*
X0209300Y0324300D01*
X0216800Y0294300D02*
X0201800Y0279300D01*
X0191800Y0279300D01*
X0186800Y0284300D01*
X0186800Y0289300D01*
X0166800Y0309300D01*
X0166800Y0291800D02*
X0166800Y0284300D01*
X0164300Y0281800D01*
X0171800Y0281800D02*
X0164300Y0274300D01*
X0159300Y0274300D02*
X0159300Y0229300D01*
X0191800Y0229300D01*
X0196800Y0234300D01*
X0204300Y0226800D01*
X0211800Y0226800D01*
X0216800Y0231800D01*
X0216800Y0276800D01*
X0221800Y0281800D01*
X0226800Y0286800D01*
X0229300Y0286800D01*
X0221800Y0281800D02*
X0221800Y0279300D01*
X0226800Y0274300D01*
X0234300Y0274300D01*
X0239300Y0279300D01*
X0246800Y0279300D01*
X0251800Y0289300D02*
X0246800Y0294300D01*
X0216800Y0294300D01*
X0251800Y0289300D02*
X0251800Y0259300D01*
X0246800Y0254300D01*
X0246800Y0246800D02*
X0234300Y0259300D01*
X0246800Y0246800D02*
X0261800Y0246800D01*
X0279300Y0276800D02*
X0296800Y0259300D01*
X0296800Y0251800D01*
X0279300Y0276800D02*
X0269300Y0276800D01*
X0276800Y0289300D02*
X0276800Y0306800D01*
X0289300Y0319300D01*
X0289300Y0324300D01*
X0294300Y0329300D01*
X0289300Y0329300D02*
X0284300Y0334300D01*
X0284300Y0351800D01*
X0281800Y0349300D02*
X0276800Y0344300D01*
X0276800Y0324300D01*
X0274300Y0321800D02*
X0274300Y0316800D01*
X0271800Y0314300D01*
X0274300Y0321800D02*
X0271800Y0324300D01*
X0271800Y0356800D01*
X0269300Y0359300D01*
X0276800Y0356800D02*
X0276800Y0349300D01*
X0279300Y0351800D02*
X0281800Y0349300D01*
X0279300Y0351800D02*
X0279300Y0354300D01*
X0281800Y0356800D01*
X0296800Y0356800D01*
X0296800Y0361800D02*
X0304300Y0354300D01*
X0324300Y0354300D01*
X0329300Y0359300D01*
X0334300Y0359300D01*
X0339300Y0354300D01*
X0339300Y0346800D01*
X0336800Y0344300D01*
X0336800Y0334300D01*
X0339300Y0336800D02*
X0346800Y0329300D01*
X0346800Y0309300D01*
X0351800Y0304300D01*
X0351800Y0281800D01*
X0361800Y0271800D01*
X0361800Y0261800D01*
X0351800Y0251800D01*
X0351800Y0229300D01*
X0361800Y0209300D02*
X0356800Y0204300D01*
X0291800Y0284300D02*
X0286800Y0284300D01*
X0279300Y0291800D01*
X0279300Y0304300D01*
X0284300Y0309300D01*
X0286800Y0309300D01*
X0284300Y0304300D02*
X0281800Y0301800D01*
X0281800Y0294300D01*
X0286800Y0289300D01*
X0291800Y0289300D01*
X0294300Y0286800D02*
X0291800Y0284300D01*
X0294300Y0286800D02*
X0331800Y0286800D01*
X0356800Y0289300D02*
X0359300Y0289300D01*
X0366800Y0296800D01*
X0366800Y0306800D01*
X0361800Y0311800D01*
X0356800Y0311800D01*
X0351800Y0309300D02*
X0356800Y0304300D01*
X0356800Y0296800D01*
X0359300Y0299300D02*
X0359300Y0304300D01*
X0361800Y0306800D01*
X0359300Y0299300D02*
X0361800Y0296800D01*
X0339300Y0336800D02*
X0339300Y0341800D01*
X0341800Y0344300D01*
X0341800Y0356800D01*
X0334300Y0364300D01*
X0329300Y0364300D02*
X0319300Y0364300D01*
X0316800Y0361800D01*
X0311800Y0361800D01*
X0301800Y0371800D01*
X0299300Y0369300D02*
X0304300Y0364300D01*
X0304300Y0361800D01*
X0299300Y0369300D02*
X0294300Y0369300D01*
X0294300Y0324300D02*
X0294300Y0304300D01*
X0291800Y0301800D01*
X0286800Y0301800D02*
X0286800Y0294300D01*
X0286800Y0301800D02*
X0291800Y0306800D01*
X0291800Y0311800D01*
X0289300Y0314300D01*
X0211800Y0246800D02*
X0209300Y0244300D01*
X0181800Y0244300D01*
X0156800Y0236800D02*
X0156800Y0224300D01*
X0161800Y0224300D01*
X0171800Y0214300D01*
X0164300Y0214300D02*
X0161800Y0214300D01*
X0156800Y0209300D01*
X0156800Y0199300D01*
X0166800Y0181233D02*
X0184300Y0181233D01*
X0184300Y0179634D02*
X0166800Y0179634D01*
X0166800Y0178036D02*
X0184300Y0178036D01*
X0184300Y0182832D02*
X0179300Y0182832D01*
X0179300Y0184430D02*
X0184300Y0184430D01*
X0184300Y0186029D02*
X0179300Y0186029D01*
X0179300Y0187627D02*
X0184300Y0187627D01*
X0184300Y0189226D02*
X0179300Y0189226D01*
X0179300Y0190824D02*
X0184300Y0190824D01*
X0184300Y0192423D02*
X0179300Y0192423D01*
X0179300Y0194021D02*
X0184300Y0194021D01*
X0184300Y0195620D02*
X0179300Y0195620D01*
X0179300Y0197218D02*
X0184300Y0197218D01*
X0184300Y0198817D02*
X0179300Y0198817D01*
X0179300Y0200415D02*
X0184300Y0200415D01*
X0151800Y0234300D02*
X0144300Y0226800D01*
X0144300Y0124300D01*
X0141800Y0121800D01*
X0101800Y0121800D01*
X0104300Y0124300D02*
X0101800Y0126800D01*
X0099300Y0126800D01*
X0096800Y0124300D01*
X0096800Y0121800D01*
X0096800Y0114300D02*
X0131800Y0114300D01*
X0139300Y0106800D01*
X0146800Y0106800D01*
X0154300Y0099300D01*
X0156800Y0099300D01*
X0126800Y0126800D02*
X0124300Y0124300D01*
X0104300Y0124300D01*
X0096800Y0114300D02*
X0094300Y0111800D01*
X0126800Y0126800D02*
X0126800Y0156800D01*
X0141800Y0171800D01*
X0111800Y0169300D02*
X0111800Y0166800D01*
X0111800Y0169300D02*
X0106800Y0174300D01*
X0096800Y0174300D01*
X0094300Y0171800D01*
X0074300Y0171642D02*
X0034300Y0171642D01*
X0034300Y0173240D02*
X0074300Y0173240D01*
X0074300Y0174839D02*
X0034300Y0174839D01*
X0034300Y0176437D02*
X0074300Y0176437D01*
X0074300Y0178036D02*
X0034300Y0178036D01*
X0034300Y0179634D02*
X0074300Y0179634D01*
X0074300Y0181233D02*
X0034300Y0181233D01*
X0034300Y0182832D02*
X0074300Y0182832D01*
X0074300Y0184430D02*
X0034300Y0184430D01*
X0034300Y0186029D02*
X0074300Y0186029D01*
X0074300Y0187627D02*
X0034300Y0187627D01*
X0034300Y0189226D02*
X0074300Y0189226D01*
X0074300Y0189300D02*
X0074300Y0151800D01*
X0101800Y0151800D01*
X0101800Y0144300D01*
X0066800Y0144300D01*
X0066800Y0164300D01*
X0034300Y0164300D01*
X0034300Y0189300D01*
X0074300Y0189300D01*
X0099300Y0201800D02*
X0099300Y0219300D01*
X0104815Y0234300D02*
X0088785Y0234300D01*
X0088597Y0234489D01*
X0087431Y0234972D01*
X0086169Y0234972D01*
X0085003Y0234489D01*
X0084111Y0233597D01*
X0083628Y0232431D01*
X0083628Y0231169D01*
X0083640Y0231140D01*
X0082460Y0229960D01*
X0082431Y0229972D01*
X0081169Y0229972D01*
X0080003Y0229489D01*
X0079111Y0228597D01*
X0078628Y0227431D01*
X0078628Y0226169D01*
X0079111Y0225003D01*
X0079300Y0224815D01*
X0079300Y0216800D01*
X0069300Y0216800D01*
X0069300Y0251800D01*
X0087315Y0251800D01*
X0087503Y0251611D01*
X0088669Y0251128D01*
X0089931Y0251128D01*
X0091097Y0251611D01*
X0091285Y0251800D01*
X0116800Y0251800D01*
X0116800Y0234300D01*
X0108785Y0234300D01*
X0108597Y0234489D01*
X0107431Y0234972D01*
X0106169Y0234972D01*
X0105003Y0234489D01*
X0104815Y0234300D01*
X0116800Y0235582D02*
X0069300Y0235582D01*
X0069300Y0233984D02*
X0084498Y0233984D01*
X0083628Y0232385D02*
X0069300Y0232385D01*
X0069300Y0230787D02*
X0083287Y0230787D01*
X0079703Y0229188D02*
X0069300Y0229188D01*
X0069300Y0227590D02*
X0078694Y0227590D01*
X0078702Y0225991D02*
X0069300Y0225991D01*
X0069300Y0224393D02*
X0079300Y0224393D01*
X0079300Y0222794D02*
X0069300Y0222794D01*
X0069300Y0221196D02*
X0079300Y0221196D01*
X0079300Y0219597D02*
X0069300Y0219597D01*
X0069300Y0217999D02*
X0079300Y0217999D01*
X0069300Y0237181D02*
X0116800Y0237181D01*
X0116800Y0238779D02*
X0069300Y0238779D01*
X0069300Y0240378D02*
X0116800Y0240378D01*
X0116800Y0241976D02*
X0069300Y0241976D01*
X0069300Y0243575D02*
X0116800Y0243575D01*
X0116800Y0245173D02*
X0069300Y0245173D01*
X0069300Y0246772D02*
X0116800Y0246772D01*
X0116800Y0248370D02*
X0069300Y0248370D01*
X0069300Y0249969D02*
X0116800Y0249969D01*
X0116800Y0251568D02*
X0090991Y0251568D01*
X0087609Y0251568D02*
X0069300Y0251568D01*
X0144300Y0244300D02*
X0149300Y0239300D01*
X0156800Y0236800D02*
X0146800Y0246800D01*
X0146800Y0249300D01*
X0149300Y0251800D01*
X0151800Y0246800D02*
X0156800Y0251800D01*
X0156800Y0271800D01*
X0154300Y0274300D01*
X0171800Y0281800D02*
X0171800Y0289300D01*
X0104300Y0314300D02*
X0051800Y0314300D01*
X0044300Y0321800D01*
X0044300Y0351800D01*
X0051800Y0354300D02*
X0054300Y0356800D01*
X0074300Y0356800D01*
X0075550Y0358050D01*
X0064300Y0326800D02*
X0054300Y0326800D01*
X0049300Y0321800D02*
X0066800Y0321800D01*
X0069300Y0324300D01*
X0074300Y0319300D01*
X0104300Y0319300D01*
X0084300Y0324300D02*
X0074300Y0324300D01*
X0151800Y0361800D02*
X0151800Y0381800D01*
X0186800Y0369300D02*
X0189300Y0371800D01*
X0074300Y0170043D02*
X0034300Y0170043D01*
X0034300Y0168445D02*
X0074300Y0168445D01*
X0074300Y0166846D02*
X0034300Y0166846D01*
X0034300Y0165248D02*
X0074300Y0165248D01*
X0074300Y0163649D02*
X0066800Y0163649D01*
X0066800Y0162051D02*
X0074300Y0162051D01*
X0074300Y0160452D02*
X0066800Y0160452D01*
X0066800Y0158854D02*
X0074300Y0158854D01*
X0074300Y0157255D02*
X0066800Y0157255D01*
X0066800Y0155657D02*
X0074300Y0155657D01*
X0074300Y0154058D02*
X0066800Y0154058D01*
X0066800Y0152460D02*
X0074300Y0152460D01*
X0066800Y0150861D02*
X0101800Y0150861D01*
X0101800Y0149263D02*
X0066800Y0149263D01*
X0066800Y0147664D02*
X0101800Y0147664D01*
X0101800Y0146066D02*
X0066800Y0146066D01*
X0066800Y0144467D02*
X0101800Y0144467D01*
D15*
X0226800Y0366800D03*
D16*
X0331800Y0351800D03*
X0284300Y0124300D03*
X0279300Y0096800D03*
D17*
X0281800Y0099300D01*
X0281800Y0121800D01*
X0284300Y0124300D01*
X0279300Y0149300D02*
X0261800Y0149300D01*
X0239300Y0126800D01*
X0239300Y0114300D01*
X0229300Y0104300D01*
X0169300Y0104300D01*
X0161800Y0096800D01*
X0279300Y0149300D02*
X0286800Y0156800D01*
X0291800Y0156800D01*
M02*
