G75*
%MOIN*%
%OFA0B0*%
%FSLAX25Y25*%
%IPPOS*%
%LPD*%
%AMOC8*
5,1,8,0,0,1.08239X$1,22.5*
%
%ADD10C,0.15800*%
%ADD11R,0.05918X0.06706*%
%ADD12R,0.06706X0.05918*%
%ADD13R,0.10249X0.03950*%
%ADD14R,0.13792X0.07887*%
%ADD15OC8,0.06800*%
%ADD16R,0.12020X0.14186*%
%ADD17R,0.14186X0.12020*%
%ADD18R,0.05524X0.05524*%
%ADD19R,0.08280X0.03162*%
%ADD20R,0.08595X0.03162*%
%ADD21R,0.05131X0.06312*%
%ADD22R,0.06312X0.05131*%
%ADD23R,0.06496X0.02165*%
%ADD24R,0.03005X0.08005*%
%ADD25R,0.02165X0.06496*%
%ADD26R,0.03950X0.10249*%
%ADD27R,0.07887X0.13792*%
%ADD28R,0.08674X0.03162*%
%ADD29R,0.06600X0.02200*%
%ADD30R,0.08600X0.03000*%
%ADD31R,0.03162X0.06902*%
%ADD32R,0.03950X0.05918*%
%ADD33R,0.08600X0.02400*%
%ADD34R,0.06706X0.02965*%
%ADD35R,0.05800X0.03300*%
%ADD36R,0.05800X0.03400*%
%ADD37C,0.04300*%
%ADD38R,0.17600X0.18400*%
%ADD39C,0.08674*%
%ADD40R,0.03000X0.08600*%
%ADD41R,0.05918X0.03950*%
%ADD42R,0.14580X0.05524*%
%ADD43R,0.09068X0.06312*%
%ADD44C,0.04343*%
%ADD45C,0.03769*%
%ADD46C,0.04934*%
D10*
X0022800Y0108300D03*
X0364300Y0111800D03*
X0359300Y0359300D03*
X0074300Y0409300D03*
D11*
X0065540Y0354300D03*
X0058060Y0354300D03*
X0073454Y0276800D03*
X0080146Y0276800D03*
X0080146Y0266800D03*
X0073454Y0266800D03*
X0073454Y0256800D03*
X0080146Y0256800D03*
X0105954Y0201800D03*
X0112646Y0201800D03*
X0077646Y0176800D03*
X0070954Y0176800D03*
X0113454Y0174300D03*
X0120146Y0174300D03*
X0120954Y0146800D03*
X0127646Y0146800D03*
X0127646Y0136800D03*
X0120954Y0136800D03*
X0120954Y0126800D03*
X0127646Y0126800D03*
X0185954Y0131800D03*
X0192646Y0131800D03*
X0192646Y0141800D03*
X0185954Y0141800D03*
X0185954Y0151800D03*
X0192646Y0151800D03*
X0230560Y0231800D03*
X0238040Y0231800D03*
X0238040Y0241800D03*
X0230560Y0241800D03*
X0230560Y0251800D03*
X0238040Y0251800D03*
X0198040Y0241800D03*
X0190560Y0241800D03*
X0185146Y0284300D03*
X0178454Y0284300D03*
X0218060Y0334300D03*
X0225540Y0334300D03*
X0223040Y0344300D03*
X0215560Y0344300D03*
X0188040Y0344300D03*
X0180560Y0344300D03*
X0243060Y0366800D03*
X0250540Y0366800D03*
X0318060Y0356800D03*
X0325540Y0356800D03*
X0333060Y0241800D03*
X0340540Y0241800D03*
X0320540Y0199300D03*
X0313060Y0199300D03*
D12*
X0281800Y0203060D03*
X0281800Y0210540D03*
X0266800Y0210540D03*
X0266800Y0203060D03*
X0251800Y0203060D03*
X0251800Y0210540D03*
X0239300Y0215560D03*
X0239300Y0223040D03*
X0229300Y0223040D03*
X0229300Y0215560D03*
X0229300Y0205540D03*
X0229300Y0198060D03*
X0229300Y0188040D03*
X0229300Y0180560D03*
X0239300Y0180560D03*
X0239300Y0188040D03*
X0229300Y0168040D03*
X0229300Y0160560D03*
X0209300Y0200954D03*
X0209300Y0207646D03*
X0199300Y0207646D03*
X0199300Y0200954D03*
X0189300Y0200954D03*
X0189300Y0207646D03*
X0156800Y0215954D03*
X0156800Y0222646D03*
X0164300Y0235560D03*
X0164300Y0243040D03*
X0174300Y0243040D03*
X0174300Y0235560D03*
X0164300Y0253454D03*
X0164300Y0260146D03*
X0161800Y0303060D03*
X0161800Y0310540D03*
X0171800Y0325560D03*
X0171800Y0333040D03*
X0201800Y0333040D03*
X0201800Y0325560D03*
X0229300Y0273040D03*
X0229300Y0265560D03*
X0239300Y0265560D03*
X0239300Y0273040D03*
X0276800Y0298060D03*
X0276800Y0305540D03*
X0341800Y0330560D03*
X0341800Y0338040D03*
X0351800Y0338040D03*
X0351800Y0330560D03*
X0361800Y0330560D03*
X0361800Y0338040D03*
X0159300Y0180146D03*
X0159300Y0173454D03*
X0096800Y0230954D03*
X0096800Y0237646D03*
X0061800Y0225146D03*
X0061800Y0218454D03*
X0051800Y0218454D03*
X0051800Y0225146D03*
X0041800Y0225146D03*
X0041800Y0218454D03*
X0039300Y0150146D03*
X0039300Y0143454D03*
X0029300Y0143454D03*
X0029300Y0150146D03*
X0049300Y0150146D03*
X0049300Y0143454D03*
X0089300Y0333060D03*
X0089300Y0340540D03*
X0356800Y0140540D03*
X0356800Y0133060D03*
X0341800Y0108040D03*
X0341800Y0100560D03*
X0371800Y0165560D03*
X0371800Y0173040D03*
D13*
X0042800Y0276131D03*
X0042800Y0282036D03*
X0042800Y0287942D03*
X0042800Y0293847D03*
X0042800Y0299753D03*
X0042800Y0305658D03*
X0042800Y0311564D03*
X0042800Y0317469D03*
X0042800Y0363631D03*
X0042800Y0369536D03*
X0042800Y0375442D03*
X0042800Y0381347D03*
X0042800Y0387253D03*
X0042800Y0393158D03*
X0042800Y0399064D03*
X0042800Y0404969D03*
D14*
X0022918Y0415206D03*
X0022918Y0353394D03*
X0022918Y0327706D03*
X0022918Y0265894D03*
D15*
X0181800Y0391800D03*
X0181800Y0401800D03*
X0191800Y0401800D03*
X0191800Y0391800D03*
X0201800Y0391800D03*
X0211800Y0391800D03*
X0211800Y0401800D03*
X0201800Y0401800D03*
X0221800Y0401800D03*
X0231800Y0401800D03*
X0231800Y0391800D03*
X0221800Y0391800D03*
X0241800Y0391800D03*
X0241800Y0401800D03*
X0251800Y0401800D03*
X0261800Y0401800D03*
X0261800Y0391800D03*
X0251800Y0391800D03*
X0271800Y0391800D03*
X0271800Y0401800D03*
X0281800Y0401800D03*
X0291800Y0401800D03*
X0291800Y0391800D03*
X0281800Y0391800D03*
X0301800Y0391800D03*
X0301800Y0401800D03*
X0311800Y0401800D03*
X0321800Y0401800D03*
X0321800Y0391800D03*
X0311800Y0391800D03*
X0331800Y0391800D03*
X0341800Y0391800D03*
X0341800Y0401800D03*
X0331800Y0401800D03*
X0351800Y0401800D03*
X0351800Y0391800D03*
X0361800Y0391800D03*
X0371800Y0391800D03*
X0371800Y0401800D03*
X0361800Y0401800D03*
D16*
X0047194Y0176800D03*
X0021406Y0176800D03*
D17*
X0106800Y0256406D03*
X0106800Y0282194D03*
X0159300Y0149694D03*
X0159300Y0123906D03*
D18*
X0177666Y0121800D03*
X0185934Y0121800D03*
X0019300Y0150166D03*
X0019300Y0158434D03*
X0080166Y0286800D03*
X0088434Y0286800D03*
X0251800Y0320166D03*
X0261800Y0320166D03*
X0261800Y0328434D03*
X0251800Y0328434D03*
D19*
X0133217Y0314300D03*
X0133217Y0309300D03*
D20*
X0133217Y0319300D03*
X0133217Y0324300D03*
X0110383Y0324300D03*
X0110383Y0319300D03*
X0110383Y0314300D03*
X0110383Y0309300D03*
D21*
X0095737Y0321800D03*
X0087863Y0321800D03*
X0073237Y0286800D03*
X0065363Y0286800D03*
X0035737Y0336800D03*
X0027863Y0336800D03*
X0165363Y0221800D03*
X0173237Y0221800D03*
X0113237Y0211800D03*
X0105363Y0211800D03*
X0090737Y0201800D03*
X0082863Y0201800D03*
X0105363Y0184300D03*
X0113237Y0184300D03*
X0095737Y0179300D03*
X0087863Y0179300D03*
X0192863Y0121800D03*
X0200737Y0121800D03*
X0252863Y0284300D03*
X0260737Y0284300D03*
X0260737Y0294300D03*
X0252863Y0294300D03*
X0307863Y0374300D03*
X0315737Y0374300D03*
X0325363Y0374300D03*
X0333237Y0374300D03*
D22*
X0261800Y0313237D03*
X0251800Y0313237D03*
X0251800Y0305363D03*
X0261800Y0305363D03*
X0234800Y0300737D03*
X0234800Y0292863D03*
X0146800Y0215737D03*
X0146800Y0207863D03*
X0146800Y0198237D03*
X0146800Y0190363D03*
X0119300Y0165737D03*
X0119300Y0157863D03*
X0106800Y0220363D03*
X0106800Y0228237D03*
X0019300Y0143237D03*
X0019300Y0135363D03*
X0064300Y0335363D03*
X0064300Y0343237D03*
X0011800Y0345737D03*
X0011800Y0337863D03*
D23*
X0080698Y0220639D03*
X0080698Y0218080D03*
X0080698Y0215520D03*
X0080698Y0212961D03*
X0092902Y0212961D03*
X0092902Y0215520D03*
X0092902Y0218080D03*
X0092902Y0220639D03*
X0163198Y0208139D03*
X0163198Y0205580D03*
X0163198Y0203020D03*
X0163198Y0200461D03*
X0175402Y0200461D03*
X0175402Y0203020D03*
X0175402Y0205580D03*
X0175402Y0208139D03*
D24*
X0080540Y0333591D03*
X0076800Y0333591D03*
X0073060Y0333591D03*
X0073060Y0345009D03*
X0076800Y0345009D03*
X0080540Y0345009D03*
X0055540Y0345009D03*
X0051800Y0345009D03*
X0048060Y0345009D03*
X0048060Y0333591D03*
X0051800Y0333591D03*
X0055540Y0333591D03*
D25*
X0097961Y0167902D03*
X0100520Y0167902D03*
X0103080Y0167902D03*
X0105639Y0167902D03*
X0105639Y0155698D03*
X0103080Y0155698D03*
X0100520Y0155698D03*
X0097961Y0155698D03*
D26*
X0099828Y0084300D03*
X0093922Y0084300D03*
X0088017Y0084300D03*
X0082111Y0084300D03*
X0076206Y0084300D03*
X0070300Y0084300D03*
X0064394Y0084300D03*
X0058489Y0084300D03*
X0052583Y0084300D03*
X0046678Y0084300D03*
X0040772Y0084300D03*
X0136442Y0084300D03*
X0142347Y0084300D03*
X0148253Y0084300D03*
X0154158Y0084300D03*
X0189847Y0084300D03*
X0195753Y0084300D03*
X0232347Y0084300D03*
X0238253Y0084300D03*
X0274847Y0084300D03*
X0280753Y0084300D03*
X0317347Y0084300D03*
X0323253Y0084300D03*
X0359847Y0084300D03*
X0365753Y0084300D03*
D27*
X0030536Y0064418D03*
X0110064Y0064418D03*
X0126206Y0064418D03*
X0164394Y0064418D03*
X0179611Y0064418D03*
X0205989Y0064418D03*
X0222111Y0064418D03*
X0248489Y0064418D03*
X0264611Y0064418D03*
X0290989Y0064418D03*
X0307111Y0064418D03*
X0333489Y0064418D03*
X0349611Y0064418D03*
X0375989Y0064418D03*
D28*
X0140107Y0334300D03*
X0140107Y0339300D03*
X0140107Y0344300D03*
X0140107Y0349300D03*
X0140107Y0354300D03*
X0140107Y0359300D03*
X0140107Y0364300D03*
X0140107Y0369300D03*
X0140107Y0381800D03*
X0140107Y0386800D03*
X0140107Y0391800D03*
X0140107Y0396800D03*
X0140107Y0401800D03*
X0140107Y0406800D03*
X0140107Y0411800D03*
X0140107Y0416800D03*
X0103493Y0416800D03*
X0103493Y0411800D03*
X0103493Y0406800D03*
X0103493Y0401800D03*
X0103493Y0396800D03*
X0103493Y0391800D03*
X0103493Y0386800D03*
X0103493Y0381800D03*
X0103493Y0369300D03*
X0103493Y0364300D03*
X0103493Y0359300D03*
X0103493Y0354300D03*
X0103493Y0349300D03*
X0103493Y0344300D03*
X0103493Y0339300D03*
X0103493Y0334300D03*
D29*
X0235702Y0337784D03*
X0235702Y0340343D03*
X0235702Y0342902D03*
X0235702Y0345461D03*
X0235702Y0348020D03*
X0235702Y0350580D03*
X0235702Y0353139D03*
X0235702Y0355698D03*
X0235702Y0358257D03*
X0235702Y0360816D03*
X0257898Y0360816D03*
X0257898Y0358257D03*
X0257898Y0355698D03*
X0257898Y0353139D03*
X0257898Y0350580D03*
X0257898Y0348020D03*
X0257898Y0345461D03*
X0257898Y0342902D03*
X0257898Y0340343D03*
X0257898Y0337784D03*
D30*
X0304600Y0339300D03*
X0304600Y0334300D03*
X0304600Y0329300D03*
X0304600Y0324300D03*
X0304600Y0319300D03*
X0324000Y0319300D03*
X0324000Y0324300D03*
X0324000Y0329300D03*
X0324000Y0334300D03*
X0324000Y0339300D03*
X0324000Y0344300D03*
X0324000Y0349300D03*
X0304600Y0349300D03*
X0304600Y0344300D03*
X0226100Y0306800D03*
X0226100Y0301800D03*
X0226100Y0296800D03*
X0226100Y0291800D03*
X0207500Y0291800D03*
X0207500Y0296800D03*
X0207500Y0301800D03*
X0207500Y0306800D03*
X0304600Y0279300D03*
X0304600Y0274300D03*
X0304600Y0269300D03*
X0304600Y0264300D03*
X0304600Y0259300D03*
X0304600Y0254300D03*
X0304600Y0249300D03*
X0324000Y0249300D03*
X0324000Y0254300D03*
X0324000Y0259300D03*
X0324000Y0264300D03*
X0324000Y0269300D03*
X0324000Y0274300D03*
X0324000Y0279300D03*
D31*
X0286800Y0275560D03*
X0281800Y0275560D03*
X0276800Y0275560D03*
X0271800Y0275560D03*
X0266800Y0275560D03*
X0261800Y0275560D03*
X0256800Y0275560D03*
X0251800Y0275560D03*
X0251800Y0254300D03*
X0256800Y0254300D03*
X0261800Y0254300D03*
X0266800Y0254300D03*
X0271800Y0254300D03*
X0276800Y0254300D03*
X0281800Y0254300D03*
X0286800Y0254300D03*
D32*
X0284300Y0236524D03*
X0280560Y0227076D03*
X0270540Y0227076D03*
X0263060Y0227076D03*
X0255540Y0227076D03*
X0248060Y0227076D03*
X0251800Y0236524D03*
X0266800Y0236524D03*
X0288040Y0227076D03*
D33*
X0303000Y0290343D03*
X0303000Y0292902D03*
X0303000Y0295461D03*
X0303000Y0298020D03*
X0303000Y0300580D03*
X0303000Y0303139D03*
X0303000Y0305698D03*
X0303000Y0308257D03*
X0325600Y0308257D03*
X0325600Y0305698D03*
X0325600Y0303139D03*
X0325600Y0300580D03*
X0325600Y0298020D03*
X0325600Y0295461D03*
X0325600Y0292902D03*
X0325600Y0290343D03*
D34*
X0324930Y0236800D03*
X0324930Y0231800D03*
X0324930Y0226800D03*
X0324930Y0221800D03*
X0324930Y0216800D03*
X0324930Y0211800D03*
X0324930Y0206800D03*
X0303670Y0206800D03*
X0303670Y0211800D03*
X0303670Y0216800D03*
X0303670Y0221800D03*
X0303670Y0226800D03*
X0303670Y0231800D03*
X0303670Y0236800D03*
D35*
X0343300Y0194300D03*
X0343300Y0189300D03*
X0343300Y0184300D03*
X0343300Y0179300D03*
X0365300Y0179300D03*
X0365300Y0184300D03*
X0365300Y0189300D03*
X0365300Y0194300D03*
X0332800Y0149300D03*
X0332800Y0144300D03*
X0332800Y0139300D03*
X0332800Y0134300D03*
X0332800Y0124300D03*
X0332800Y0119300D03*
X0332800Y0114300D03*
X0332800Y0109300D03*
X0310800Y0109300D03*
X0310800Y0114300D03*
X0310800Y0119300D03*
X0310800Y0124300D03*
X0310800Y0134300D03*
X0310800Y0139300D03*
X0310800Y0144300D03*
X0310800Y0149300D03*
D36*
X0304800Y0166800D03*
X0304800Y0171800D03*
X0304800Y0176800D03*
X0304800Y0181800D03*
X0281300Y0179300D03*
X0281300Y0184300D03*
X0281300Y0189300D03*
X0281300Y0194300D03*
X0257300Y0194300D03*
X0257300Y0189300D03*
X0257300Y0184300D03*
X0257300Y0179300D03*
X0259800Y0169300D03*
X0259800Y0164300D03*
X0259800Y0159300D03*
X0259800Y0154300D03*
X0259800Y0144300D03*
X0259800Y0139300D03*
X0259800Y0134300D03*
X0259800Y0129300D03*
X0259800Y0119300D03*
X0259800Y0114300D03*
X0259800Y0109300D03*
X0259800Y0104300D03*
X0283800Y0104300D03*
X0283800Y0109300D03*
X0283800Y0114300D03*
X0283800Y0119300D03*
X0283800Y0129300D03*
X0283800Y0134300D03*
X0283800Y0139300D03*
X0283800Y0144300D03*
X0283800Y0154300D03*
X0283800Y0159300D03*
X0283800Y0164300D03*
X0283800Y0169300D03*
X0328800Y0166800D03*
X0328800Y0171800D03*
X0328800Y0176800D03*
X0328800Y0181800D03*
X0339800Y0171800D03*
X0339800Y0166800D03*
X0339800Y0161800D03*
X0339800Y0156800D03*
X0363800Y0156800D03*
X0363800Y0161800D03*
X0363800Y0166800D03*
X0363800Y0171800D03*
D37*
X0356800Y0169300D03*
X0356800Y0164300D03*
X0356800Y0159300D03*
X0351800Y0159300D03*
X0351800Y0164300D03*
X0351800Y0169300D03*
X0346800Y0169300D03*
X0346800Y0164300D03*
X0346800Y0159300D03*
X0321800Y0169300D03*
X0321800Y0174300D03*
X0321800Y0179300D03*
X0316800Y0179300D03*
X0311800Y0179300D03*
X0311800Y0174300D03*
X0316800Y0174300D03*
X0316800Y0169300D03*
X0311800Y0169300D03*
X0276800Y0166800D03*
X0271800Y0166800D03*
X0266800Y0166800D03*
X0266800Y0161800D03*
X0266800Y0156800D03*
X0271800Y0156800D03*
X0271800Y0161800D03*
X0276800Y0161800D03*
X0276800Y0156800D03*
X0276800Y0141800D03*
X0276800Y0136800D03*
X0276800Y0131800D03*
X0271800Y0131800D03*
X0271800Y0136800D03*
X0271800Y0141800D03*
X0266800Y0141800D03*
X0266800Y0136800D03*
X0266800Y0131800D03*
X0266800Y0116800D03*
X0266800Y0111800D03*
X0266800Y0106800D03*
X0271800Y0106800D03*
X0271800Y0111800D03*
X0271800Y0116800D03*
X0276800Y0116800D03*
X0276800Y0111800D03*
X0276800Y0106800D03*
X0274300Y0181800D03*
X0269300Y0181800D03*
X0269300Y0186800D03*
X0274300Y0186800D03*
X0274300Y0191800D03*
X0269300Y0191800D03*
X0264300Y0191800D03*
X0264300Y0186800D03*
X0264300Y0181800D03*
D38*
X0270600Y0186800D03*
X0270500Y0161800D03*
X0270500Y0136800D03*
X0270500Y0111800D03*
X0353100Y0164300D03*
X0318100Y0174300D03*
D39*
X0314300Y0189300D03*
X0331800Y0189300D03*
X0344300Y0201800D03*
X0366800Y0216800D03*
X0339300Y0254300D03*
X0279300Y0316800D03*
X0284300Y0324300D03*
X0284300Y0334300D03*
X0279300Y0341800D03*
X0181800Y0334300D03*
X0206800Y0234300D03*
X0291800Y0169300D03*
X0309300Y0156800D03*
X0291800Y0144300D03*
X0291800Y0129300D03*
X0291800Y0114300D03*
X0296800Y0104300D03*
X0309300Y0101800D03*
X0307800Y0090800D03*
X0346800Y0126800D03*
X0341800Y0134300D03*
X0366800Y0144300D03*
X0239300Y0151800D03*
X0217800Y0085800D03*
X0150800Y0096800D03*
D40*
X0171800Y0297100D03*
X0176800Y0297100D03*
X0181800Y0297100D03*
X0186800Y0297100D03*
X0186800Y0316500D03*
X0181800Y0316500D03*
X0176800Y0316500D03*
X0171800Y0316500D03*
D41*
X0171524Y0345560D03*
X0171524Y0353040D03*
X0162076Y0349300D03*
D42*
X0215973Y0319300D03*
X0237627Y0319300D03*
D43*
X0212213Y0270658D03*
X0212213Y0252942D03*
X0176387Y0252942D03*
X0176387Y0270658D03*
D44*
X0164300Y0274300D03*
X0159300Y0274300D03*
X0154300Y0274300D03*
X0149300Y0266800D03*
X0151800Y0259300D03*
X0149300Y0251800D03*
X0151800Y0246800D03*
X0149300Y0239300D03*
X0144300Y0239300D03*
X0151800Y0234300D03*
X0151800Y0229300D03*
X0164300Y0214300D03*
X0171800Y0214300D03*
X0181800Y0209300D03*
X0181800Y0199300D03*
X0181800Y0194300D03*
X0181800Y0189300D03*
X0181800Y0184300D03*
X0174300Y0189300D03*
X0174300Y0194300D03*
X0169300Y0194300D03*
X0169300Y0189300D03*
X0156800Y0191800D03*
X0156800Y0199300D03*
X0134300Y0184300D03*
X0124300Y0174300D03*
X0111800Y0166800D03*
X0111800Y0159300D03*
X0111800Y0154300D03*
X0106800Y0149300D03*
X0099300Y0145550D03*
X0096800Y0149300D03*
X0094300Y0145550D03*
X0091800Y0149300D03*
X0091800Y0156800D03*
X0091800Y0161800D03*
X0086800Y0161800D03*
X0086800Y0156800D03*
X0081800Y0156800D03*
X0081800Y0161800D03*
X0069300Y0169300D03*
X0064300Y0169300D03*
X0059300Y0169300D03*
X0049300Y0159300D03*
X0044300Y0159300D03*
X0039300Y0159300D03*
X0034300Y0159300D03*
X0029300Y0159300D03*
X0014300Y0164300D03*
X0026800Y0136800D03*
X0031800Y0136800D03*
X0036800Y0136800D03*
X0041800Y0136800D03*
X0046800Y0136800D03*
X0051800Y0136800D03*
X0061800Y0116800D03*
X0055800Y0102800D03*
X0055800Y0097800D03*
X0055800Y0092800D03*
X0050800Y0092800D03*
X0050800Y0097800D03*
X0050800Y0102800D03*
X0045800Y0102800D03*
X0045800Y0097800D03*
X0045800Y0092800D03*
X0040800Y0097300D03*
X0034800Y0097300D03*
X0034800Y0091300D03*
X0034800Y0085300D03*
X0028800Y0085300D03*
X0028800Y0091300D03*
X0089300Y0111800D03*
X0094300Y0111800D03*
X0096800Y0121800D03*
X0101800Y0121800D03*
X0106800Y0129300D03*
X0106800Y0134300D03*
X0106800Y0139300D03*
X0111800Y0139300D03*
X0111800Y0134300D03*
X0111800Y0129300D03*
X0134300Y0126800D03*
X0134300Y0131800D03*
X0134300Y0136800D03*
X0134300Y0141800D03*
X0134300Y0146800D03*
X0134300Y0151800D03*
X0151800Y0161800D03*
X0151800Y0166800D03*
X0151800Y0171800D03*
X0166800Y0171800D03*
X0166800Y0166800D03*
X0166800Y0161800D03*
X0176800Y0151800D03*
X0176800Y0146800D03*
X0176800Y0141800D03*
X0176800Y0136800D03*
X0176800Y0131800D03*
X0201800Y0139300D03*
X0206800Y0139300D03*
X0206800Y0144300D03*
X0201800Y0144300D03*
X0211800Y0144300D03*
X0211800Y0139300D03*
X0225800Y0131800D03*
X0229300Y0126800D03*
X0221800Y0116800D03*
X0216800Y0121800D03*
X0224300Y0094300D03*
X0217800Y0078300D03*
X0217800Y0073300D03*
X0212800Y0073300D03*
X0184300Y0084300D03*
X0179300Y0084300D03*
X0179300Y0089300D03*
X0164300Y0089300D03*
X0164300Y0084300D03*
X0159300Y0084300D03*
X0161800Y0096800D03*
X0156800Y0099300D03*
X0130300Y0095800D03*
X0130300Y0090800D03*
X0130300Y0085800D03*
X0120300Y0080800D03*
X0120300Y0075800D03*
X0115300Y0075800D03*
X0115300Y0080800D03*
X0231800Y0154300D03*
X0234300Y0174300D03*
X0254300Y0174300D03*
X0236800Y0194300D03*
X0236800Y0199300D03*
X0236800Y0206800D03*
X0251800Y0216800D03*
X0254300Y0221800D03*
X0266800Y0216800D03*
X0269300Y0221800D03*
X0284300Y0221800D03*
X0294300Y0224300D03*
X0294300Y0231800D03*
X0291800Y0236800D03*
X0299300Y0244300D03*
X0296800Y0251800D03*
X0291800Y0251800D03*
X0286800Y0246800D03*
X0281800Y0246800D03*
X0271800Y0246800D03*
X0261800Y0246800D03*
X0246800Y0254300D03*
X0241800Y0259300D03*
X0234300Y0259300D03*
X0246800Y0279300D03*
X0246800Y0289300D03*
X0229300Y0286800D03*
X0234300Y0306800D03*
X0209300Y0311800D03*
X0209300Y0324300D03*
X0204300Y0339300D03*
X0209300Y0341800D03*
X0199300Y0351800D03*
X0194300Y0344300D03*
X0189300Y0336800D03*
X0181800Y0326800D03*
X0164300Y0326800D03*
X0164300Y0331800D03*
X0161800Y0339300D03*
X0156800Y0339300D03*
X0146800Y0339300D03*
X0151800Y0351800D03*
X0151800Y0356800D03*
X0151800Y0361800D03*
X0146800Y0364300D03*
X0144300Y0371800D03*
X0144300Y0379300D03*
X0146800Y0384300D03*
X0151800Y0396800D03*
X0151800Y0401800D03*
X0151800Y0406800D03*
X0151800Y0411800D03*
X0146800Y0414300D03*
X0154300Y0419300D03*
X0098050Y0416800D03*
X0098050Y0386800D03*
X0098050Y0381800D03*
X0098050Y0371800D03*
X0096800Y0366800D03*
X0079300Y0354300D03*
X0075550Y0358050D03*
X0069300Y0349300D03*
X0064300Y0346800D03*
X0051800Y0354300D03*
X0044300Y0351800D03*
X0021800Y0336800D03*
X0049300Y0321800D03*
X0054300Y0326800D03*
X0064300Y0326800D03*
X0069300Y0324300D03*
X0074300Y0324300D03*
X0084300Y0324300D03*
X0089300Y0329300D03*
X0098050Y0334300D03*
X0099300Y0324300D03*
X0104300Y0319300D03*
X0104300Y0314300D03*
X0104300Y0309300D03*
X0144300Y0324300D03*
X0151800Y0319300D03*
X0146800Y0314300D03*
X0161800Y0316800D03*
X0159300Y0296800D03*
X0154300Y0296800D03*
X0166800Y0291800D03*
X0171800Y0289300D03*
X0164300Y0281800D03*
X0191800Y0284300D03*
X0196800Y0294300D03*
X0199300Y0299300D03*
X0196800Y0304300D03*
X0234300Y0334300D03*
X0229300Y0354300D03*
X0239300Y0366800D03*
X0256800Y0364300D03*
X0259300Y0369300D03*
X0269300Y0364300D03*
X0269300Y0359300D03*
X0264300Y0359300D03*
X0276800Y0356800D03*
X0284300Y0351800D03*
X0276800Y0349300D03*
X0296800Y0344300D03*
X0296800Y0339300D03*
X0294300Y0329300D03*
X0289300Y0329300D03*
X0294300Y0324300D03*
X0289300Y0314300D03*
X0286800Y0309300D03*
X0284300Y0304300D03*
X0291800Y0301800D03*
X0286800Y0294300D03*
X0291800Y0289300D03*
X0296800Y0274300D03*
X0296800Y0269300D03*
X0274300Y0286800D03*
X0269300Y0281800D03*
X0266800Y0296800D03*
X0271800Y0314300D03*
X0276800Y0324300D03*
X0296800Y0356800D03*
X0304300Y0361800D03*
X0299300Y0364300D03*
X0289300Y0371800D03*
X0296800Y0384300D03*
X0311800Y0366800D03*
X0309300Y0359300D03*
X0329300Y0364300D03*
X0334300Y0364300D03*
X0344300Y0376800D03*
X0346800Y0344300D03*
X0331800Y0324300D03*
X0334300Y0311800D03*
X0334300Y0299300D03*
X0339300Y0296800D03*
X0331800Y0286800D03*
X0339300Y0279300D03*
X0344300Y0269300D03*
X0344300Y0264300D03*
X0344300Y0259300D03*
X0351800Y0266800D03*
X0331800Y0269300D03*
X0331800Y0259300D03*
X0331800Y0249300D03*
X0319300Y0241800D03*
X0309300Y0241800D03*
X0331800Y0224300D03*
X0336800Y0219300D03*
X0346800Y0219300D03*
X0346800Y0224300D03*
X0339300Y0231800D03*
X0341800Y0236800D03*
X0331800Y0211800D03*
X0331800Y0206800D03*
X0324300Y0199300D03*
X0324300Y0189300D03*
X0336800Y0184300D03*
X0349300Y0184300D03*
X0349300Y0179300D03*
X0354300Y0179300D03*
X0374300Y0159300D03*
X0361800Y0151800D03*
X0356800Y0146800D03*
X0344300Y0144300D03*
X0339300Y0144300D03*
X0336800Y0139300D03*
X0349300Y0134300D03*
X0339300Y0126800D03*
X0341800Y0121800D03*
X0341800Y0116800D03*
X0336800Y0114300D03*
X0349300Y0099300D03*
X0342800Y0080800D03*
X0342800Y0075800D03*
X0342800Y0070800D03*
X0337800Y0075800D03*
X0300300Y0075800D03*
X0300300Y0070800D03*
X0295300Y0075800D03*
X0300300Y0080800D03*
X0289300Y0099300D03*
X0304300Y0109300D03*
X0299300Y0111800D03*
X0304300Y0114300D03*
X0301800Y0124300D03*
X0306800Y0124300D03*
X0301800Y0134300D03*
X0299300Y0139300D03*
X0304300Y0139300D03*
X0296800Y0156800D03*
X0291800Y0156800D03*
X0316800Y0159300D03*
X0324300Y0149300D03*
X0334300Y0154300D03*
X0366800Y0131800D03*
X0299300Y0179300D03*
X0299300Y0184300D03*
X0301800Y0189300D03*
X0301800Y0194300D03*
X0306800Y0196800D03*
X0289300Y0199300D03*
X0289300Y0204300D03*
X0289300Y0209300D03*
X0274300Y0201800D03*
X0286800Y0189300D03*
X0286800Y0184300D03*
X0286800Y0179300D03*
X0349300Y0209300D03*
X0361800Y0209300D03*
X0366800Y0201800D03*
X0356800Y0289300D03*
X0356800Y0296800D03*
X0361800Y0296800D03*
X0361800Y0306800D03*
X0356800Y0311800D03*
X0351800Y0309300D03*
X0226800Y0239300D03*
X0211800Y0246800D03*
X0196800Y0234300D03*
X0181800Y0244300D03*
X0196800Y0216800D03*
X0201800Y0216800D03*
X0206800Y0216800D03*
X0211800Y0216800D03*
X0211800Y0194300D03*
X0206800Y0194300D03*
X0201800Y0194300D03*
X0196800Y0194300D03*
X0191800Y0194300D03*
X0181800Y0179300D03*
X0116800Y0201800D03*
X0099300Y0201800D03*
X0099300Y0219300D03*
X0106800Y0231800D03*
X0104300Y0239300D03*
X0109300Y0239300D03*
X0109300Y0246800D03*
X0104300Y0246800D03*
X0096800Y0244300D03*
X0096800Y0249300D03*
X0089300Y0254300D03*
X0089300Y0259300D03*
X0089300Y0264300D03*
X0089300Y0269300D03*
X0089300Y0274300D03*
X0089300Y0279300D03*
X0066800Y0279300D03*
X0066800Y0274300D03*
X0066800Y0269300D03*
X0066800Y0264300D03*
X0066800Y0259300D03*
X0066800Y0254300D03*
X0064300Y0231800D03*
X0059300Y0231800D03*
X0054300Y0231800D03*
X0049300Y0231800D03*
X0044300Y0231800D03*
X0039300Y0231800D03*
X0070550Y0224300D03*
X0074300Y0221800D03*
X0070550Y0219300D03*
X0074300Y0226800D03*
X0081800Y0226800D03*
X0086800Y0226800D03*
X0086800Y0231800D03*
X0114300Y0219300D03*
X0069300Y0184300D03*
X0064300Y0184300D03*
X0059300Y0184300D03*
X0084300Y0179300D03*
X0094300Y0171800D03*
X0252800Y0075800D03*
X0257800Y0075800D03*
X0257800Y0070800D03*
X0257800Y0080800D03*
X0261800Y0096800D03*
X0199300Y0366800D03*
X0191800Y0366800D03*
X0186800Y0369300D03*
X0179300Y0371800D03*
X0174300Y0374300D03*
X0169300Y0371800D03*
X0211800Y0371800D03*
D45*
X0226800Y0366800D03*
D46*
X0331800Y0351800D03*
X0284300Y0124300D03*
X0279300Y0096800D03*
M02*
