G75*
%MOIN*%
%OFA0B0*%
%FSLAX25Y25*%
%IPPOS*%
%LPD*%
%AMOC8*
5,1,8,0,0,1.08239X$1,22.5*
%
%ADD10R,0.05118X0.05906*%
%ADD11R,0.05906X0.05118*%
%ADD12R,0.09449X0.03150*%
%ADD13R,0.12992X0.07087*%
%ADD14R,0.11220X0.13386*%
%ADD15R,0.13386X0.11220*%
%ADD16R,0.04724X0.04724*%
%ADD17R,0.07480X0.02362*%
%ADD18R,0.07795X0.02362*%
%ADD19R,0.04331X0.05512*%
%ADD20R,0.05512X0.04331*%
%ADD21R,0.06102X0.01772*%
%ADD22R,0.02205X0.07205*%
%ADD23R,0.01772X0.06102*%
%ADD24R,0.03150X0.09449*%
%ADD25R,0.07087X0.12992*%
%ADD26R,0.07874X0.02362*%
%ADD27R,0.05800X0.01400*%
%ADD28R,0.07800X0.02200*%
%ADD29R,0.02362X0.06102*%
%ADD30R,0.03150X0.05118*%
%ADD31R,0.07800X0.01600*%
%ADD32R,0.05906X0.02165*%
%ADD33R,0.05000X0.02500*%
%ADD34R,0.05000X0.02600*%
%ADD35R,0.16800X0.17600*%
%ADD36R,0.02200X0.07800*%
%ADD37R,0.05118X0.03150*%
%ADD38R,0.13780X0.04724*%
%ADD39R,0.08268X0.05512*%
D10*
X0120954Y0126800D03*
X0127646Y0126800D03*
X0127646Y0136800D03*
X0120954Y0136800D03*
X0120954Y0146800D03*
X0127646Y0146800D03*
X0120146Y0174300D03*
X0113454Y0174300D03*
X0077646Y0176800D03*
X0070954Y0176800D03*
X0105954Y0201800D03*
X0112646Y0201800D03*
X0080146Y0256800D03*
X0073454Y0256800D03*
X0073454Y0266800D03*
X0080146Y0266800D03*
X0080146Y0276800D03*
X0073454Y0276800D03*
X0065540Y0354300D03*
X0058060Y0354300D03*
X0180560Y0344300D03*
X0188040Y0344300D03*
X0215560Y0344300D03*
X0223040Y0344300D03*
X0225540Y0334300D03*
X0218060Y0334300D03*
X0243060Y0366800D03*
X0250540Y0366800D03*
X0318060Y0356800D03*
X0325540Y0356800D03*
X0185146Y0284300D03*
X0178454Y0284300D03*
X0230560Y0251800D03*
X0238040Y0251800D03*
X0238040Y0241800D03*
X0230560Y0241800D03*
X0230560Y0231800D03*
X0238040Y0231800D03*
X0198040Y0241800D03*
X0190560Y0241800D03*
X0313060Y0199300D03*
X0320540Y0199300D03*
X0333060Y0241800D03*
X0340540Y0241800D03*
X0192646Y0151800D03*
X0185954Y0151800D03*
X0185954Y0141800D03*
X0192646Y0141800D03*
X0192646Y0131800D03*
X0185954Y0131800D03*
D11*
X0229300Y0160560D03*
X0229300Y0168040D03*
X0229300Y0180560D03*
X0229300Y0188040D03*
X0239300Y0188040D03*
X0239300Y0180560D03*
X0229300Y0198060D03*
X0229300Y0205540D03*
X0229300Y0215560D03*
X0229300Y0223040D03*
X0239300Y0223040D03*
X0239300Y0215560D03*
X0251800Y0210540D03*
X0251800Y0203060D03*
X0266800Y0203060D03*
X0266800Y0210540D03*
X0281800Y0210540D03*
X0281800Y0203060D03*
X0209300Y0200954D03*
X0209300Y0207646D03*
X0199300Y0207646D03*
X0199300Y0200954D03*
X0189300Y0200954D03*
X0189300Y0207646D03*
X0156800Y0215954D03*
X0156800Y0222646D03*
X0164300Y0235560D03*
X0164300Y0243040D03*
X0174300Y0243040D03*
X0174300Y0235560D03*
X0164300Y0253454D03*
X0164300Y0260146D03*
X0161800Y0303060D03*
X0161800Y0310540D03*
X0171800Y0325560D03*
X0171800Y0333040D03*
X0201800Y0333040D03*
X0201800Y0325560D03*
X0229300Y0273040D03*
X0229300Y0265560D03*
X0239300Y0265560D03*
X0239300Y0273040D03*
X0276800Y0298060D03*
X0276800Y0305540D03*
X0341800Y0330560D03*
X0341800Y0338040D03*
X0351800Y0338040D03*
X0351800Y0330560D03*
X0361800Y0330560D03*
X0361800Y0338040D03*
X0159300Y0180146D03*
X0159300Y0173454D03*
X0096800Y0230954D03*
X0096800Y0237646D03*
X0061800Y0225146D03*
X0061800Y0218454D03*
X0051800Y0218454D03*
X0051800Y0225146D03*
X0041800Y0225146D03*
X0041800Y0218454D03*
X0039300Y0150146D03*
X0039300Y0143454D03*
X0029300Y0143454D03*
X0029300Y0150146D03*
X0049300Y0150146D03*
X0049300Y0143454D03*
X0089300Y0333060D03*
X0089300Y0340540D03*
X0356800Y0140540D03*
X0356800Y0133060D03*
X0341800Y0108040D03*
X0341800Y0100560D03*
X0371800Y0165560D03*
X0371800Y0173040D03*
D12*
X0042800Y0276131D03*
X0042800Y0282036D03*
X0042800Y0287942D03*
X0042800Y0293847D03*
X0042800Y0299753D03*
X0042800Y0305658D03*
X0042800Y0311564D03*
X0042800Y0317469D03*
X0042800Y0363631D03*
X0042800Y0369536D03*
X0042800Y0375442D03*
X0042800Y0381347D03*
X0042800Y0387253D03*
X0042800Y0393158D03*
X0042800Y0399064D03*
X0042800Y0404969D03*
D13*
X0022918Y0415206D03*
X0022918Y0353394D03*
X0022918Y0327706D03*
X0022918Y0265894D03*
D14*
X0021406Y0176800D03*
X0047194Y0176800D03*
D15*
X0106800Y0256406D03*
X0106800Y0282194D03*
X0159300Y0149694D03*
X0159300Y0123906D03*
D16*
X0177666Y0121800D03*
X0185934Y0121800D03*
X0019300Y0150166D03*
X0019300Y0158434D03*
X0080166Y0286800D03*
X0088434Y0286800D03*
X0251800Y0320166D03*
X0261800Y0320166D03*
X0261800Y0328434D03*
X0251800Y0328434D03*
D17*
X0133217Y0314300D03*
X0133217Y0309300D03*
D18*
X0133217Y0319300D03*
X0133217Y0324300D03*
X0110383Y0324300D03*
X0110383Y0319300D03*
X0110383Y0314300D03*
X0110383Y0309300D03*
D19*
X0095737Y0321800D03*
X0087863Y0321800D03*
X0073237Y0286800D03*
X0065363Y0286800D03*
X0035737Y0336800D03*
X0027863Y0336800D03*
X0165363Y0221800D03*
X0173237Y0221800D03*
X0113237Y0211800D03*
X0105363Y0211800D03*
X0090737Y0201800D03*
X0082863Y0201800D03*
X0105363Y0184300D03*
X0113237Y0184300D03*
X0095737Y0179300D03*
X0087863Y0179300D03*
X0192863Y0121800D03*
X0200737Y0121800D03*
X0252863Y0284300D03*
X0260737Y0284300D03*
X0260737Y0294300D03*
X0252863Y0294300D03*
X0307863Y0374300D03*
X0315737Y0374300D03*
X0325363Y0374300D03*
X0333237Y0374300D03*
D20*
X0261800Y0313237D03*
X0251800Y0313237D03*
X0251800Y0305363D03*
X0261800Y0305363D03*
X0234800Y0300737D03*
X0234800Y0292863D03*
X0146800Y0215737D03*
X0146800Y0207863D03*
X0146800Y0198237D03*
X0146800Y0190363D03*
X0119300Y0165737D03*
X0119300Y0157863D03*
X0106800Y0220363D03*
X0106800Y0228237D03*
X0019300Y0143237D03*
X0019300Y0135363D03*
X0064300Y0335363D03*
X0064300Y0343237D03*
X0011800Y0345737D03*
X0011800Y0337863D03*
D21*
X0080698Y0220639D03*
X0080698Y0218080D03*
X0080698Y0215520D03*
X0080698Y0212961D03*
X0092902Y0212961D03*
X0092902Y0215520D03*
X0092902Y0218080D03*
X0092902Y0220639D03*
X0163198Y0208139D03*
X0163198Y0205580D03*
X0163198Y0203020D03*
X0163198Y0200461D03*
X0175402Y0200461D03*
X0175402Y0203020D03*
X0175402Y0205580D03*
X0175402Y0208139D03*
D22*
X0080540Y0333591D03*
X0076800Y0333591D03*
X0073060Y0333591D03*
X0073060Y0345009D03*
X0076800Y0345009D03*
X0080540Y0345009D03*
X0055540Y0345009D03*
X0051800Y0345009D03*
X0048060Y0345009D03*
X0048060Y0333591D03*
X0051800Y0333591D03*
X0055540Y0333591D03*
D23*
X0097961Y0167902D03*
X0100520Y0167902D03*
X0103080Y0167902D03*
X0105639Y0167902D03*
X0105639Y0155698D03*
X0103080Y0155698D03*
X0100520Y0155698D03*
X0097961Y0155698D03*
D24*
X0099828Y0084300D03*
X0093922Y0084300D03*
X0088017Y0084300D03*
X0082111Y0084300D03*
X0076206Y0084300D03*
X0070300Y0084300D03*
X0064394Y0084300D03*
X0058489Y0084300D03*
X0052583Y0084300D03*
X0046678Y0084300D03*
X0040772Y0084300D03*
X0136442Y0084300D03*
X0142347Y0084300D03*
X0148253Y0084300D03*
X0154158Y0084300D03*
X0189847Y0084300D03*
X0195753Y0084300D03*
X0232347Y0084300D03*
X0238253Y0084300D03*
X0274847Y0084300D03*
X0280753Y0084300D03*
X0317347Y0084300D03*
X0323253Y0084300D03*
X0359847Y0084300D03*
X0365753Y0084300D03*
D25*
X0030536Y0064418D03*
X0110064Y0064418D03*
X0126206Y0064418D03*
X0164394Y0064418D03*
X0179611Y0064418D03*
X0205989Y0064418D03*
X0222111Y0064418D03*
X0248489Y0064418D03*
X0264611Y0064418D03*
X0290989Y0064418D03*
X0307111Y0064418D03*
X0333489Y0064418D03*
X0349611Y0064418D03*
X0375989Y0064418D03*
D26*
X0140107Y0334300D03*
X0140107Y0339300D03*
X0140107Y0344300D03*
X0140107Y0349300D03*
X0140107Y0354300D03*
X0140107Y0359300D03*
X0140107Y0364300D03*
X0140107Y0369300D03*
X0140107Y0381800D03*
X0140107Y0386800D03*
X0140107Y0391800D03*
X0140107Y0396800D03*
X0140107Y0401800D03*
X0140107Y0406800D03*
X0140107Y0411800D03*
X0140107Y0416800D03*
X0103493Y0416800D03*
X0103493Y0411800D03*
X0103493Y0406800D03*
X0103493Y0401800D03*
X0103493Y0396800D03*
X0103493Y0391800D03*
X0103493Y0386800D03*
X0103493Y0381800D03*
X0103493Y0369300D03*
X0103493Y0364300D03*
X0103493Y0359300D03*
X0103493Y0354300D03*
X0103493Y0349300D03*
X0103493Y0344300D03*
X0103493Y0339300D03*
X0103493Y0334300D03*
D27*
X0235702Y0337784D03*
X0235702Y0340343D03*
X0235702Y0342902D03*
X0235702Y0345461D03*
X0235702Y0348020D03*
X0235702Y0350580D03*
X0235702Y0353139D03*
X0235702Y0355698D03*
X0235702Y0358257D03*
X0235702Y0360816D03*
X0257898Y0360816D03*
X0257898Y0358257D03*
X0257898Y0355698D03*
X0257898Y0353139D03*
X0257898Y0350580D03*
X0257898Y0348020D03*
X0257898Y0345461D03*
X0257898Y0342902D03*
X0257898Y0340343D03*
X0257898Y0337784D03*
D28*
X0304600Y0339300D03*
X0304600Y0334300D03*
X0304600Y0329300D03*
X0304600Y0324300D03*
X0304600Y0319300D03*
X0324000Y0319300D03*
X0324000Y0324300D03*
X0324000Y0329300D03*
X0324000Y0334300D03*
X0324000Y0339300D03*
X0324000Y0344300D03*
X0324000Y0349300D03*
X0304600Y0349300D03*
X0304600Y0344300D03*
X0226100Y0306800D03*
X0226100Y0301800D03*
X0226100Y0296800D03*
X0226100Y0291800D03*
X0207500Y0291800D03*
X0207500Y0296800D03*
X0207500Y0301800D03*
X0207500Y0306800D03*
X0304600Y0279300D03*
X0304600Y0274300D03*
X0304600Y0269300D03*
X0304600Y0264300D03*
X0304600Y0259300D03*
X0304600Y0254300D03*
X0304600Y0249300D03*
X0324000Y0249300D03*
X0324000Y0254300D03*
X0324000Y0259300D03*
X0324000Y0264300D03*
X0324000Y0269300D03*
X0324000Y0274300D03*
X0324000Y0279300D03*
D29*
X0286800Y0275560D03*
X0281800Y0275560D03*
X0276800Y0275560D03*
X0271800Y0275560D03*
X0266800Y0275560D03*
X0261800Y0275560D03*
X0256800Y0275560D03*
X0251800Y0275560D03*
X0251800Y0254300D03*
X0256800Y0254300D03*
X0261800Y0254300D03*
X0266800Y0254300D03*
X0271800Y0254300D03*
X0276800Y0254300D03*
X0281800Y0254300D03*
X0286800Y0254300D03*
D30*
X0284300Y0236524D03*
X0280560Y0227076D03*
X0270540Y0227076D03*
X0263060Y0227076D03*
X0255540Y0227076D03*
X0248060Y0227076D03*
X0251800Y0236524D03*
X0266800Y0236524D03*
X0288040Y0227076D03*
D31*
X0303000Y0290343D03*
X0303000Y0292902D03*
X0303000Y0295461D03*
X0303000Y0298020D03*
X0303000Y0300580D03*
X0303000Y0303139D03*
X0303000Y0305698D03*
X0303000Y0308257D03*
X0325600Y0308257D03*
X0325600Y0305698D03*
X0325600Y0303139D03*
X0325600Y0300580D03*
X0325600Y0298020D03*
X0325600Y0295461D03*
X0325600Y0292902D03*
X0325600Y0290343D03*
D32*
X0324930Y0236800D03*
X0324930Y0231800D03*
X0324930Y0226800D03*
X0324930Y0221800D03*
X0324930Y0216800D03*
X0324930Y0211800D03*
X0324930Y0206800D03*
X0303670Y0206800D03*
X0303670Y0211800D03*
X0303670Y0216800D03*
X0303670Y0221800D03*
X0303670Y0226800D03*
X0303670Y0231800D03*
X0303670Y0236800D03*
D33*
X0343300Y0194300D03*
X0343300Y0189300D03*
X0343300Y0184300D03*
X0343300Y0179300D03*
X0365300Y0179300D03*
X0365300Y0184300D03*
X0365300Y0189300D03*
X0365300Y0194300D03*
X0332800Y0149300D03*
X0332800Y0144300D03*
X0332800Y0139300D03*
X0332800Y0134300D03*
X0332800Y0124300D03*
X0332800Y0119300D03*
X0332800Y0114300D03*
X0332800Y0109300D03*
X0310800Y0109300D03*
X0310800Y0114300D03*
X0310800Y0119300D03*
X0310800Y0124300D03*
X0310800Y0134300D03*
X0310800Y0139300D03*
X0310800Y0144300D03*
X0310800Y0149300D03*
D34*
X0304800Y0166800D03*
X0304800Y0171800D03*
X0304800Y0176800D03*
X0304800Y0181800D03*
X0281300Y0179300D03*
X0281300Y0184300D03*
X0281300Y0189300D03*
X0281300Y0194300D03*
X0257300Y0194300D03*
X0257300Y0189300D03*
X0257300Y0184300D03*
X0257300Y0179300D03*
X0259800Y0169300D03*
X0259800Y0164300D03*
X0259800Y0159300D03*
X0259800Y0154300D03*
X0259800Y0144300D03*
X0259800Y0139300D03*
X0259800Y0134300D03*
X0259800Y0129300D03*
X0259800Y0119300D03*
X0259800Y0114300D03*
X0259800Y0109300D03*
X0259800Y0104300D03*
X0283800Y0104300D03*
X0283800Y0109300D03*
X0283800Y0114300D03*
X0283800Y0119300D03*
X0283800Y0129300D03*
X0283800Y0134300D03*
X0283800Y0139300D03*
X0283800Y0144300D03*
X0283800Y0154300D03*
X0283800Y0159300D03*
X0283800Y0164300D03*
X0283800Y0169300D03*
X0328800Y0166800D03*
X0328800Y0171800D03*
X0328800Y0176800D03*
X0328800Y0181800D03*
X0339800Y0171800D03*
X0339800Y0166800D03*
X0339800Y0161800D03*
X0339800Y0156800D03*
X0363800Y0156800D03*
X0363800Y0161800D03*
X0363800Y0166800D03*
X0363800Y0171800D03*
D35*
X0353100Y0164300D03*
X0318100Y0174300D03*
X0270600Y0186800D03*
X0270500Y0161800D03*
X0270500Y0136800D03*
X0270500Y0111800D03*
D36*
X0186800Y0297100D03*
X0181800Y0297100D03*
X0176800Y0297100D03*
X0171800Y0297100D03*
X0171800Y0316500D03*
X0176800Y0316500D03*
X0181800Y0316500D03*
X0186800Y0316500D03*
D37*
X0171524Y0345560D03*
X0171524Y0353040D03*
X0162076Y0349300D03*
D38*
X0215973Y0319300D03*
X0237627Y0319300D03*
D39*
X0212213Y0270658D03*
X0212213Y0252942D03*
X0176387Y0252942D03*
X0176387Y0270658D03*
M02*
